<svg xmlns="http://www.w3.org/2000/svg" xmlns:xlink="http://www.w3.org/1999/xlink" width="559.812" height="336.226" viewBox="0 0 135.342 81.287" xml:space="preserve" style="shape-rendering:geometricPrecision;text-rendering:geometricPrecision;image-rendering:optimizeQuality;fill-rule:evenodd;clip-rule:evenodd"><defs><style type="text/css">.str0{stroke:#166587;stroke-width:.913755}.fil0{fill:#fefefe}.fil1{fill:#166587}.fil2{fill:#fff}.fil3,.fil4{fill-rule:nonzero}.fil4{fill:#fefefe}.fil3{fill:#166587}</style></defs><g id="Layer_x0020_1"><metadata id="CorelCorpID_0Corel-Layer"/><path d="M8.88489 80.8305l117.572 0c4.63548,0 8.42801,-3.79254 8.42801,-8.42801l0 -26.9812 -134.428 0 0 26.9812c0,4.63548 3.79254,8.42801 8.42801,8.42801z" class="fil0 str0"/><path d="M8.88489 29.0769l117.572 0c4.63548,0 8.42801,3.79254 8.42801,8.42801l0 26.9812 -134.428 0 0 -26.9812c0,-4.63548 3.79254,-8.42801 8.42801,-8.42801z" class="fil1 str0"/><g id="_584867424"><polygon id="_690166656" points="59.004 43.226 56.291 43.226 56.291 41.191 51.548 45.934 53.583 45.934 53.583 58.139 54.935 59.496 56.291 58.139 58.326 56.105 57.648 55.431 56.291 56.782 56.291 45.934" class="fil2"/><polygon id="_584862120" points="103.279 41.191 103.279 41.191 103.279 38.478 100.566 41.191 100.566 43.904 98.531 45.934 100.566 45.934 100.566 58.139 101.923 59.496 103.279 58.139 103.279 45.934 105.992 43.226 103.279 43.226" class="fil2"/><rect id="_690168288" width=".407" height=".407" class="fil2" transform="matrix(4.99981 -4.99981 4.99981 4.99981 103.276 38.4769)"/><polygon id="_584865912" points="73.012 45.261 73.012 43.226 73.012 39.835 70.977 37.8 68.942 39.835 70.298 41.191 70.298 56.782 73.012 59.496 75.042 57.461 73.012 55.431" class="fil2"/><polygon id="_584866080" points="73.012 45.261 75.042 47.291 75.042 57.461 77.755 54.752 77.755 45.934 75.042 43.226" class="fil2"/><polygon id="_584866152" points="19.208 56.648 17.782 55.221 17.782 53.085 17.782 42.399 17.782 39.551 17.782 38.84 15.645 36.699 13.508 38.84 14.934 40.262 14.934 43.807 11.389 47.352 11.389 42.399 11.389 38.84 9.252 36.699 9.243 36.708 9.233 36.699 4.959 40.978 5.688 41.707 7.826 39.57 8.541 40.28 8.541 58.069 9.963 59.496 11.389 58.069 11.389 50.423 14.934 46.878 14.934 53.085 14.934 56.648 17.782 59.496 19.208 58.069 19.919 57.359 21.345 55.933 20.635 55.221" class="fil2"/><polygon id="_584865528" points="127.67 56.782 127.67 45.934 130.383 43.226 127.67 43.226 127.67 41.191 122.922 45.934 124.957 45.934 124.957 58.139 126.313 59.496 127.67 58.139 129.705 56.105 129.026 55.431" class="fil2"/><polygon id="_584865600" points="62.842 45.261 60.133 47.97 60.133 56.782 62.842 59.496 64.877 57.461 62.842 55.431" class="fil2"/><polygon id="_584865672" points="62.842 45.261 64.877 47.291 64.877 57.461 67.59 54.752 67.59 45.934 64.877 43.226" class="fil2"/><polygon id="_584866296" points="87.674 45.921 84.979 43.226 82.944 45.261 84.965 47.277 82.944 49.294 82.944 45.261 80.236 47.97 80.236 56.782 82.944 59.496 84.301 58.139 84.979 57.461 87.014 55.431 86.335 54.752 84.301 56.782 82.944 55.431 82.944 50.65" class="fil2"/><polygon id="_584866824" points="25.777 45.261 23.064 47.97 23.064 56.782 25.777 59.496 27.812 57.461 25.777 55.431" class="fil2"/><polygon id="_584866896" points="30.525 45.934 27.812 43.226 25.777 45.261 27.812 47.291 27.812 57.461 29.847 59.496 31.882 57.461 30.525 56.105" class="fil2"/><polygon id="_584866344" points="37.768 56.782 36.416 55.431 36.416 45.261 33.703 47.97 33.703 56.782 36.416 59.496 37.768 58.139 38.446 57.461 40.481 55.431 39.803 54.752" class="fil2"/><rect id="_584866704" width=".407" height=".407" class="fil2" transform="matrix(4.99981 -4.99981 4.99981 4.99981 36.4169 45.2418)"/><rect id="_584866608" width=".407" height=".407" class="fil2" transform="matrix(4.99981 -4.99981 4.99981 4.99981 45.4503 45.2618)"/><polygon id="_584866992" points="46.804 50.683 46.804 58.139 48.161 59.496 49.518 58.139 49.518 49.327 47.483 47.291 45.448 49.327" class="fil2"/><polygon id="_584866920" points="45.448 43.226 45.448 39.835 43.413 37.8 41.383 39.835 42.734 41.191 42.734 58.139 44.091 59.496 45.448 58.139 45.448 49.327 45.448 45.261" class="fil2"/><polygon id="_584866488" points="109.598 45.261 111.614 47.277 109.598 49.294 109.598 45.261 106.885 47.97 106.885 56.782 109.598 59.496 110.954 58.139 111.632 57.461 113.667 55.431 112.989 54.752 110.954 56.782 109.598 55.431 109.598 50.65 114.327 45.921 111.632 43.226" class="fil2"/><rect id="_584866632" width=".407" height=".407" class="fil2" transform="matrix(4.99981 -4.99981 4.99981 4.99981 93.1163 45.2621)"/><polygon id="_584867352" points="89.045 45.261 90.401 46.613 90.401 48.648 90.401 50.683 90.401 58.139 91.758 59.496 93.114 58.139 93.114 50.683 93.114 48.648 93.114 45.261 91.079 43.226" class="fil2"/><rect id="_584867736" width=".407" height=".407" class="fil2" transform="matrix(4.99981 -4.99981 4.99981 4.99981 116.148 57.4563)"/><rect id="_584867568" width=".407" height=".407" class="fil2" transform="matrix(4.99981 -4.99981 4.99981 4.99981 118.18 45.2583)"/><polygon id="_584867664" points="116.143 47.291 116.143 50.004 120.213 54.074 120.213 57.461 122.248 55.431 122.248 52.039 121.909 51.7 120.213 50.004 118.178 47.97 118.178 45.261" class="fil2"/></g><g id="_584867520"><path id="_584863560" d="M67.1504 16.9822c3.2738,-1.1283 4.91481,3.91526 1.63425,5.02693 -3.30012,1.11825 -5.15586,-3.8131 -1.63425,-5.02693zm-12.7169 3.38171c4.16087,1.81152 3.95098,-3.33 6.14728,-3.12413 0.672158,0.0630491 1.83756,0.569452 2.39038,0.918415l-0.101244 1.31873c-0.241231,2.67602 2.40052,4.95319 5.03004,4.93455 2.52562,-0.0178182 5.23097,-2.38198 4.94844,-4.93893l-0.210986 -1.53109c3.12047,-0.814704 2.23916,-1.45287 4.2877,1.09459 1.53419,1.90783 1.77341,2.28603 4.36263,1.14247 -0.120798,0.938883 -0.767097,2.30156 -1.2597,3.00333 -0.61651,0.878301 -1.77634,0.939157 -3.17173,1.12035 -3.1975,0.41521 -19.5868,1.24782 -21.2106,-1.15325 -0.452857,-0.669417 -1.01747,-1.85711 -1.21219,-2.78503zm1.5882 -1.00175c-1.9484,-0.473508 -2.80376,-2.8913 -1.1538,-4.17284 1.7884,-1.38909 2.96422,-1.15727 5.60908,-1.15727 4.51029,0 9.02068,0 13.531,0 2.3383,0 4.24932,-0.337541 6.06797,0.692352 1.90006,1.07604 1.99893,2.55257 0.381493,4.10577 -1.49207,1.43286 -1.99144,-0.569269 -3.54948,-2.25451 -1.47891,-1.59962 -3.05998,-0.517642 -4.88009,0.0240317 -0.744162,-0.614317 -0.715104,-0.929106 -1.7301,-1.50221 -2.58081,-1.45726 -4.98727,-0.434308 -6.68548,1.60382 -1.43131,-0.364497 -3.14907,-1.66797 -4.62396,-0.531257 -1.15069,0.88689 -1.73029,2.37348 -2.9666,3.19211zm-5.15677 -2.85539c0,2.57724 0.473416,5.14892 1.19464,7.42754 0.337358,1.06589 0.813607,2.12521 1.31042,2.98003 1.83016,3.14871 9.96321,7.249 14.0375,7.249 5.18903,0 9.40308,-2.54124 12.7746,-5.04283 1.72782,-1.28191 2.60813,-2.56153 3.43864,-5.14645 0.697469,-2.17081 1.19528,-4.8026 1.19528,-7.30227 0,-5.50007 -2.20928,-7.7512 -5.48518,-9.9453 -2.61919,-1.75423 -7.58846,-3.42101 -11.4282,-3.42101 -4.23763,0 -8.76291,1.61141 -11.6781,3.5005 -2.98122,1.93195 -5.35944,4.58787 -5.35944,9.70078z" class="fil2"/><path id="_584863992" d="M50.8649 16.5068c0,-5.11291 2.37823,-7.76883 5.35944,-9.70078 2.91524,-1.8891 7.44052,-3.5005 11.6781,-3.5005 3.83978,0 8.80905,1.66678 11.4282,3.42101 3.2759,2.19411 5.48518,4.44523 5.48518,9.9453 0,2.49967 -0.497813,5.13146 -1.19528,7.30227 -0.830511,2.58492 -1.71082,3.86454 -3.43864,5.14645 -3.37148,2.50159 -7.58553,5.04283 -12.7746,5.04283 -4.07425,0 -12.2073,-4.10029 -14.0375,-7.249 -0.496808,-0.854817 -0.973057,-1.91413 -1.31042,-2.98003 -0.721226,-2.27863 -1.19464,-4.8503 -1.19464,-7.42754zm36.4274 -8.98138c-0.342475,0.98457 -0.825394,1.67573 -0.908089,3.04052 1.82833,0.353897 2.11607,0.664848 2.31198,2.48249 0.174253,1.61634 0.361116,7.69299 -0.322555,8.91148 -0.480726,0.856736 -2.40381,1.21429 -3.67147,1.35382 0.870625,-3.8374 1.86269,-9.04909 -0.304463,-12.9124 0.296422,-0.222042 0.289752,-0.117143 0.913663,-0.206874 0.212996,-1.7598 0.646938,-1.92035 1.07046,-3.08465 0.263801,-0.725247 -0.694545,-2.35292 1.06608,-2.92054 2.73752,-0.882595 3.7357,3.95683 -0.155612,3.33612zm-37.2106 2.77133c0.82046,-0.106361 0.734019,-0.0831517 0.959899,0.115955 -1.01235,1.18742 -1.33207,4.36199 -1.33244,6.25913 -0.000548253,2.71595 0.328952,4.21789 0.971778,6.58113 -1.00988,0.0470584 -3.10494,-0.515266 -3.54911,-1.15882 -0.726069,-1.05182 -0.530526,-7.44582 -0.390539,-8.89101 0.215098,-2.22033 0.334982,-2.04937 2.30842,-2.67821 -0.0966752,-1.20533 -0.600702,-2.04517 -0.928923,-2.97911 -4.04748,0.458248 -2.79755,-4.34499 -0.111478,-3.33127 1.56161,0.589372 0.877753,2.35328 0.991698,2.80641 0.170689,0.678189 0.877204,1.09532 1.0807,3.27581zm2.30979 -4.84564c-0.0561959,-2.52041 -2.6529,-4.90595 -5.22421,-4.71406 -2.08967,0.156069 -3.71798,1.35702 -4.46232,2.94814 -1.10656,2.36553 -0.324474,4.87735 1.43597,6.05618 -0.837365,3.59398 -0.82512,3.64213 -0.82512,7.59047 0,1.68862 0.101427,3.58009 0.426175,5.01925 0.482919,2.1401 2.25021,3.25361 4.25901,3.82653 1.27761,0.364405 1.28912,-0.11559 1.81426,0.990875 0.522759,1.10135 1.34587,2.56217 2.19822,3.41223 0.263892,0.263253 0.451212,0.37135 0.729267,0.590742 0.30163,0.238124 0.381949,0.324017 0.731186,0.588915 3.39707,2.57752 9.24957,5.70283 13.6035,5.70283 5.343,0 8.67144,-1.61406 12.8634,-4.13273 1.123,-0.674808 2.01876,-1.38233 3.07378,-2.20663 0.991972,-0.774955 1.64558,-1.70187 2.31198,-2.80331 1.53365,-2.53494 -0.133774,-1.32604 2.85,-2.43031 4.65348,-1.72224 3.81748,-5.69543 3.81748,-11.5286 0,-2.51876 -0.660005,-3.92659 -0.660005,-4.45528 0,-0.291945 1.81508,-1.14521 1.81508,-4.45528 0,-1.19729 -0.86825,-2.65053 -1.52012,-3.2653 -3.50863,-3.30843 -8.54552,-0.343572 -8.54552,3.10028 -2.34405,-1.56965 -3.58758,-2.58209 -6.49561,-3.57013 -6.31139,-2.14431 -11.2838,-2.44667 -17.6455,0.0553735 -1.34066,0.527328 -2.31463,0.918506 -3.48798,1.6274 -1.16714,0.705236 -2.00862,1.34633 -3.06291,2.05238z" class="fil1"/><path id="_584864184" d="M54.4335 20.3639c0.194721,0.927918 0.75933,2.11562 1.21219,2.78503 1.62383,2.40107 18.0131,1.56846 21.2106,1.15325 1.39539,-0.181198 2.55522,-0.242054 3.17173,-1.12035 0.492605,-0.701763 1.1389,-2.06445 1.2597,-3.00333 -2.58921,1.14356 -2.82844,0.765361 -4.36263,-1.14247 -2.04855,-2.54746 -1.16723,-1.90929 -4.2877,-1.09459l0.210986 1.53109c0.282533,2.55696 -2.42282,4.92112 -4.94844,4.93893 -2.62951,0.0186406 -5.27127,-2.25853 -5.03004,-4.93455l0.101244 -1.31873c-0.552821,-0.348963 -1.71822,-0.855366 -2.39038,-0.918415 -2.1963,-0.205869 -1.98641,4.93565 -6.14728,3.12413z" class="fil1"/><path id="_690160320" d="M56.0216 19.3622c1.23631,-0.818633 1.8159,-2.30522 2.9666,-3.19211 1.47489,-1.13671 3.19266,0.16676 4.62396,0.531257 1.69821,-2.03813 4.10468,-3.06108 6.68548,-1.60382 1.015,0.573107 0.985941,0.887895 1.7301,1.50221 1.82011,-0.541674 3.40118,-1.62365 4.88009,-0.0240317 1.55804,1.68524 2.05741,3.68736 3.54948,2.25451 1.61744,-1.5532 1.51857,-3.02974 -0.381493,-4.10577 -1.81865,-1.02989 -3.72967,-0.692352 -6.06797,-0.692352 -4.51029,0 -9.02068,0 -13.531,0 -2.64486,0 -3.82068,-0.23182 -5.60908,1.15727 -1.64997,1.28154 -0.794601,3.69934 1.1538,4.17284z" class="fil1"/><path id="_690168744" d="M87.2922 7.52541c3.89131,0.620713 2.89313,-4.21871 0.155612,-3.33612 -1.76062,0.567624 -0.802276,2.1953 -1.06608,2.92054 -0.423525,1.16431 -0.857467,1.32485 -1.07046,3.08465 -0.623912,0.0897307 -0.617241,-0.0151683 -0.913663,0.206874 2.16715,3.86326 1.17509,9.07495 0.304463,12.9124 1.26765,-0.13953 3.19074,-0.497082 3.67147,-1.35382 0.683671,-1.21849 0.496808,-7.29514 0.322555,-8.91148 -0.195909,-1.81764 -0.48365,-2.12859 -2.31198,-2.48249 0.0826948,-1.36478 0.565614,-2.05595 0.908089,-3.04052z" class="fil2"/><path id="_690168096" d="M50.0817 10.2967c-0.203493,-2.18049 -0.910008,-2.59762 -1.0807,-3.27581 -0.113945,-0.453131 0.569909,-2.21704 -0.991698,-2.80641 -2.68607,-1.01372 -3.936,3.78952 0.111478,3.33127 0.328221,0.933948 0.832248,1.77378 0.928923,2.97911 -1.97344,0.628846 -2.09332,0.457882 -2.30842,2.67821 -0.139987,1.44519 -0.335531,7.83919 0.390539,8.89101 0.444176,0.643557 2.53923,1.20588 3.54911,1.15882 -0.642826,-2.36324 -0.972326,-3.86518 -0.971778,-6.58113 0.000365502,-1.89714 0.320088,-5.0717 1.33244,-6.25913 -0.22588,-0.199107 -0.139439,-0.222316 -0.959899,-0.115955z" class="fil2"/><path id="_690167760" d="M67.1504 16.9822c-3.52161,1.21383 -1.66587,6.14518 1.63425,5.02693 3.28056,-1.11167 1.63955,-6.15523 -1.63425,-5.02693z" class="fil1"/></g><g id="_587127464"><g><path id="_627017832" d="M47.3617 75.5401l-0.0323469 1.83756c3.24547,-0.0350882 5.23389,-3.00835 4.57764,-5.82427 -0.709896,-3.04591 -3.96396,-4.39342 -6.58123,-3.17393 -1.56645,0.729816 -2.90236,2.64048 -2.69676,4.2962l1.80147 -0.00767554c0.0947563,-0.752203 0.137155,-1.06398 0.524678,-1.63489 0.246257,-0.362669 0.683031,-0.78062 1.16878,-0.994439 2.5311,-1.11423 4.87168,1.44958 3.81502,3.81008 -0.413565,0.923989 -1.28072,1.60775 -2.57724,1.69136z" class="fil1"/><path id="_627018144" d="M79.699 71.0674c1.08874,-0.25978 1.95196,0.494615 2.15061,1.35437 0.525866,2.27561 -2.93699,3.14697 -3.50434,0.78592 -0.262248,-1.09111 0.511703,-1.93935 1.35373,-2.14029zm3.15949 2.19164c0.283538,-1.6199 -0.907541,-2.97902 -2.29234,-3.20408 -1.67866,-0.272847 -2.97409,0.89283 -3.22702,2.27223 -0.307844,1.67912 0.902607,3.00077 2.26374,3.2463 1.72581,0.311408 3.0121,-0.922801 3.25562,-2.31445z" class="fil1"/><path id="_627017328" d="M56.6732 74.5965l0.000548253 -0.0843395 0.000731004 -3.48881c1.46813,0.0279609 2.60511,0.168588 2.59689,1.77999 -0.00849792,1.65143 -1.08645,1.79315 -2.59817,1.79315zm-0.998916 0.929288c2.13389,0.103163 4.62278,0.0818724 4.63182,-2.72244 0.00849792,-2.61379 -2.20727,-2.88509 -4.63612,-2.69457l0.00429465 5.41701z" class="fil1"/><path id="_627017256" d="M64.2612 72.551c1.24307,-0.411007 1.62073,1.67692 0.532171,1.97499 -1.25714,0.344211 -1.58235,-1.62767 -0.532171,-1.97499zm1.20689 -0.853355l-0.0235749 0.319449 -0.0750192 -0.0949391c-0.267639,-0.107366 -0.499367,-0.306382 -0.9281,-0.304189 -0.973331,0.00493427 -1.77168,0.745441 -1.79553,1.86872 -0.0171786,0.811323 0.360019,1.37155 0.809495,1.67025 0.77395,0.514261 1.37913,0.260603 1.95671,0.034083 -0.0263161,1.13708 -0.972235,1.15316 -1.52551,0.842939 -0.117783,-0.0660645 -0.16941,-0.104259 -0.255303,-0.198742 -0.057201,-0.0628663 -0.0507134,-0.0683488 -0.100422,-0.126189l-0.114768 -0.109833c-0.223413,0.188416 -0.398854,0.388072 -0.63579,0.546791 0.130393,0.513896 0.979271,0.915308 1.60282,0.949117 0.802916,0.0435861 1.38361,-0.318809 1.69419,-0.775412 0.381218,-0.560314 0.314788,-1.38991 0.314788,-2.14924 0,-0.820643 0.0105082,-1.64814 -0.00264989,-2.47134l-0.921339 -0.00146201z" class="fil1"/><path id="_627016680" d="M88.1764 73.1341c0.150221,-0.846045 1.35848,-0.844766 1.43185,-0.0041119l-1.43185 0.0041119zm1.76592 1.07595c-0.185766,0.284817 -0.504027,0.568995 -1.05603,0.511794 -0.455872,-0.0473325 -0.713916,-0.341927 -0.773585,-0.795515l2.50972 -0.00146201c0.22524,-1.0913 -0.417403,-2.08016 -1.2852,-2.26547 -2.34524,-0.500829 -2.96952,2.85749 -1.25102,3.75635 0.9387,0.49096 2.2482,0.0241231 2.53192,-0.618795 -0.170415,-0.209798 -0.43449,-0.482006 -0.675813,-0.586905z" class="fil1"/><path id="_627015312" d="M73.929 74.4427c-0.381584,0.373177 -1.50102,0.506677 -1.30685,-0.184761 0.0711815,-0.253201 0.410733,-0.310311 0.747817,-0.285091 0.491234,0.0366416 0.554923,0.0338089 0.559035,0.469853zm-2.19776 -2.03804c0.123174,0.101884 0.311133,0.503936 0.642095,0.628206 0.440247,-0.74407 1.54744,-0.76865 1.55338,0.190883 -1.13973,-0.184944 -2.35968,0.0052084 -2.29846,1.28602 0.054277,1.13324 1.53511,1.4345 2.25569,0.749827l0.0598509 0.161643c0.106544,0.197462 0.251739,0.11093 0.956518,0.0920151 0.0152597,-0.651964 0.00246714,-1.31608 0.00310677,-1.96932 0.000731004,-0.757685 0.0185492,-1.10171 -0.438968,-1.53575 -0.601616,-0.570822 -2.09268,-0.608743 -2.73322,0.396478z" class="fil1"/><path id="_627015888" d="M93.4043 74.3983c-0.136606,0.23118 -0.39328,0.332881 -0.709713,0.351521 -1.16458,0.0685316 -0.546517,-1.28108 0.6982,-0.636887l0.0115133 0.285366zm-1.90792 -1.6507c0.105996,0.123448 0.168131,0.183665 0.263801,0.287284 0.187046,-0.0944822 0.111935,-0.0818724 0.214458,-0.211443 0.29898,-0.377381 1.42125,-0.621901 1.42655,0.401595 -1.14877,-0.169593 -2.3669,-0.0096858 -2.29965,1.28766 0.0605819,1.1707 1.43286,1.35958 2.27589,0.76198 0.0645111,0.111204 0.00749279,0.0408448 0.04916,0.141906 0.0509875,0.123631 -0.00429465,0.0337175 0.0647852,0.118788l0.888352 -0.0208336c0.0129753,-0.653609 0.00201026,-1.31599 0.00274126,-1.9706 0.000731004,-0.667772 -0.0496169,-1.17555 -0.434856,-1.53849 -0.766275,-0.721592 -2.26209,-0.402326 -2.74346,0.399219l0.292219 0.342932z" class="fil1"/><path id="_627014928" d="M96.0395 75.5212c0.0329865,-1.37575 -0.287924,-3.01228 0.755309,-3.01393 0.987586,-0.00164476 0.673803,1.62237 0.705418,3.02014l0.955604 0.0103254c0.0266816,-0.74535 0.0974976,-2.56692 -0.1674,-3.14112 -0.160273,-0.347501 -0.495803,-0.62647 -0.913846,-0.732831 -0.652147,-0.165755 -0.905988,0.0448653 -1.3201,0.214367l-0.113854 -0.182203 -0.860848 0.0132494 0.0044774 3.82351 0.955239 -0.0115133z" class="fil1"/><path id="_627014664" d="M86.2603 73.0142c0.185035,-0.154881 0.485752,-0.390813 0.593484,-0.609566 -1.0913,-1.50934 -3.47802,-0.708251 -3.47802,1.13927 0,2.51045 2.9771,2.4961 3.55286,1.19866l-0.614409 -0.562416c-0.291031,0.194447 -0.556568,0.681661 -1.21621,0.523399 -0.432754,-0.103711 -0.720221,-0.514078 -0.735847,-1.04433 -0.0154425,-0.526688 0.255303,-0.984753 0.670604,-1.11094 0.624368,-0.189695 0.951127,0.283995 1.22754,0.465923z" class="fil1"/><path id="_627013824" d="M68.7611 71.7352l-0.000822379 0.851802 0.549715 0.0203767c0.146749,1.89823 -0.57201,3.0587 1.8509,2.91762l-0.0116961 -0.880037c-0.389716,-0.0114219 -0.483011,0.0487945 -0.800814,-0.10563l-0.0109651 -0.227342c-0.15278,-0.128291 -0.0842482,-0.595585 -0.0841568,-0.82512 9.13755e-005,-0.297793 -0.0155338,-0.600611 0.0144373,-0.907998l0.89018 -0.0228439 0.00301539 -0.810957 -0.912841 -0.0392001 0.0048429 -1.02934 -0.914668 -0.00383777 -0.0170872 1.04113 -0.56004 0.0213819z" class="fil1"/><polygon id="_627013248" points="75.652 75.533 76.623 75.527 76.624 70.099 75.646 70.103" class="fil1"/><polygon id="_627012960" points="61.024 75.538 61.907 75.529 61.916 71.747 61.007 71.734" class="fil1"/><polygon id="_627012120" points="67.251 75.533 68.126 75.533 68.135 71.746 67.233 71.75" class="fil1"/><path id="_627004176" d="M45.5105 75.5483c0.450115,-0.104625 1.29104,-0.0424896 1.78749,-0.0371898l0.00712729 -1.77734 -1.76949 0.00676178c0.021656,0.446095 0.0668868,1.39421 -0.0251282,1.80777z" class="fil1"/><polygon id="_627003864" points="44.12 76.908 45.489 76.922 45.49 75.583 44.148 75.577" class="fil1"/><polygon id="_627003792" points="44.114 75.534 44.124 74.373 42.959 74.366 42.955 75.543" class="fil1"/><path id="_627004032" d="M68.2486 70.8667c0.0568355,-0.145927 0.0630491,-0.346313 -0.0107823,-0.493336 -0.249912,-0.497813 -0.934314,-0.399585 -1.09093,0.0093203 -0.313509,0.818724 0.836085,1.1654 1.10171,0.484016z" class="fil1"/><path id="_627035856" d="M62.0422 70.8667c0.312413,-0.792317 -0.859934,-1.11871 -1.10436,-0.486117 -0.318992,0.825669 0.841111,1.15398 1.10436,0.486117z" class="fil1"/><polygon id="_627035880" points="65.369 71.922 65.445 72.017 65.468 71.698" class="fil1"/></g><g><path id="_627035112" d="M116.312 70.1546c2.18177,-0.00109651 2.18707,0.831791 1.96302,2.26291 -0.109651,0.700027 -0.116047,1.36442 -0.609292,1.63836 -0.456786,0.253841 -0.984936,0.138342 -1.49125,0.0614957 -0.0234835,-0.00365502 -0.221585,-0.0399311 -0.234104,-0.0436775 -0.260055,-0.0787656 -0.0471497,-0.00986855 -0.179553,-0.0835172l0.551177 -3.83558zm7.18412 1.01536c0.137703,0.0121529 0.268552,0.0228439 0.405707,0.0444085l0.353257 0.106544c-0.197097,0.572102 -1.32412,3.46057 -1.7354,3.63428 -0.398854,0.168405 -0.670604,-0.184853 -0.754304,-0.511428l-0.416398 -3.59023 0.76728 0.125184 0.220306 2.00953c0.00529978,0.0545511 0.0235749,0.251648 0.0346313,0.301996 0.0254024,0.115955 0.0166303,0.0842482 0.0604905,0.186132 0.00740141,0.01727 0.0343572,0.0704505 0.0404793,0.0589372 0.00639628,-0.0119702 0.0299711,0.0398397 0.0329865,0.0532719l0.990967 -2.41862zm-5.01843 3.0545c-0.0439516,-0.666858 0.245709,-2.03639 0.345399,-2.76219 0.130667,-0.951949 0.154973,-1.05721 2.01775,-0.682392 0.119428,0.245343 0.0264989,0.3687 0.00283264,0.719947l-1.2777 -0.152597 -0.0853447 0.892099 0.712729 0.116961 -0.104442 0.674168 -0.765269 -0.0734659 -0.111752 0.880037 1.23594 0.229444 -0.0905531 0.575208c-0.075933,0.0350882 -0.0398397,0.0390173 -0.163014,0.0524495l-0.362578 -0.0413017c-0.824663,-0.131307 -0.975616,-0.0308849 -1.354,-0.428368zm7.28061 -4.56393c0.181289,-1.17445 -0.0460532,-1.58335 -1.15818,-1.74555l-7.7162 -1.13607c-1.08481,-0.160455 -1.54132,0.0811414 -1.68615,1.14101l-1.12511 7.72863c-0.171694,1.14548 0.0258593,1.58271 1.15051,1.75185l7.71108 1.13516c1.88983,0.274857 1.65444,-0.822562 2.07038,-3.6827 0.254481,-1.7503 0.483924,-3.44485 0.753665,-5.19232z" class="fil1"/><path id="_627034080" d="M116.668 73.4486c0.727988,0.151683 0.764264,-0.0585717 0.851254,-0.683214 0.095396,-0.685316 0.566071,-2.00752 -0.583615,-1.75349l-0.318261 2.25725c0.0239404,0.318078 -0.0122443,0.031159 0.050622,0.179461z" class="fil1"/></g><g><path id="_627030744" d="M12.0333 71.6608c0.11358,-0.0724607 0.197462,-0.122169 0.254207,-0.150587 0.113671,-0.0553735 0.224418,-0.0823293 0.332424,-0.0823293 0.122169,0 0.212996,0.0354537 0.274126,0.105082 0.0610388,0.0709987 0.0922892,0.177543 0.0922892,0.31954 0,0.193168 -0.0681661,0.426175 -0.204498,0.698839 -0.210255,0.430378 -0.465923,0.768468 -0.765635,1.01555 -0.252836,0.207422 -0.489955,0.311133 -0.711541,0.311133 -0.122169,0 -0.242876,-0.0468756 -0.362212,-0.140627 -0.379299,0.768376 -0.72013,1.55247 -1.01984,2.35072 -0.0625008,0.191706 -0.137794,0.286919 -0.224418,0.286919 -0.0412103,0 -0.0824207,-0.0270471 -0.125002,-0.0824207 -0.0297884,-0.0397483 -0.0454136,-0.0824207 -0.0454136,-0.129296 0,-0.150495 0.183208,-0.636247 0.549623,-1.46155 0.56534,-1.26975 1.10226,-2.32514 1.61077,-3.16598 0.105082,-0.177543 0.17608,-0.299711 0.211626,-0.366416 0.0965839,-0.180467 0.191706,-0.269923 0.282624,-0.269923 0.0952132,0 0.141997,0.0568355 0.141997,0.170415 0,0.0639628 -0.034083,0.149216 -0.0994165,0.257131 -0.0809586,0.139165 -0.14483,0.250003 -0.191706,0.333795zm-0.93605 1.72718c0.0611302,0.0638714 0.136332,0.0951218 0.228713,0.0951218 0.257039,0 0.543958,-0.228621 0.856462,-0.686047 0.116504,-0.170415 0.210255,-0.343663 0.279792,-0.521206 0.0553735,-0.140627 0.0824207,-0.247171 0.0824207,-0.319631 0,-0.0497082 -0.0114219,-0.0880859 -0.0355451,-0.112209 -0.0226611,-0.0255851 -0.0596682,-0.0383777 -0.109376,-0.0383777 -0.130667,0 -0.289752,0.0909186 -0.478625,0.271294 -0.180375,0.17471 -0.353714,0.42051 -0.519835,0.735755 -0.153419,0.291214 -0.254298,0.482919 -0.304006,0.5753z" class="fil3"/><path id="_6270307441" d="M13.8386 72.5017c0.272664,-0.291122 0.585168,-0.57667 0.940253,-0.853629 0.127834,-0.0994165 0.264166,-0.193168 0.409088,-0.278421 0.0709987,-0.042581 0.117874,-0.0625008 0.136332,-0.0625008 0.0412103,0 0.0837913,0.0298798 0.125002,0.0909186 0.0255851,0.034083 0.0369157,0.0639628 0.0369157,0.0923806 0,0.0497082 -0.0525409,0.117874 -0.157623,0.203036 -0.282716,0.224418 -0.424713,0.394925 -0.424713,0.508504 0,0.0639628 0.0369157,0.0952132 0.107914,0.0952132 0.119336,0 0.325297,-0.0980459 0.616419,-0.295417 0.0497996,-0.0327124 0.0923806,-0.0497996 0.125002,-0.0497996 0.0227525,0 0.044043,0.0114219 0.0667955,0.0327124 0.0241231,0.0255851 0.0369157,0.0511703 0.0369157,0.079588 0,0.0837913 -0.116504,0.210164 -0.34942,0.383411 -0.244247,0.181837 -0.475792,0.274218 -0.694545,0.274218 -0.0894566,0 -0.170415,-0.0242145 -0.245709,-0.0710901 -0.0639628,-0.0382863 -0.0952132,-0.107914 -0.0952132,-0.207331 0,-0.0696281 0.0284178,-0.149125 0.0867153,-0.237211 -0.218753,0.15479 -0.477254,0.420418 -0.774133,0.798256 -0.171877,0.232916 -0.342292,0.519835 -0.511337,0.862127 -0.0639628,0.126464 -0.143459,0.190335 -0.237211,0.190335 -0.102249,0 -0.15479,-0.0482462 -0.15479,-0.14483 0,-0.0952132 0.0809586,-0.346587 0.241414,-0.757046 0.238673,-0.610845 0.488585,-1.0838 0.75001,-1.41897 0.160455,-0.208793 0.295417,-0.312504 0.403331,-0.312504 0.0355451,0 0.0696281,0.0113306 0.0994165,0.0327124 0.0370071,0.0283264 0.0540029,0.0624094 0.0540029,0.10362 0,0.0426723 -0.0269558,0.100878 -0.0824207,0.176172 -0.0113306,0.0127926 -0.0851619,0.106544 -0.221494,0.27833 -0.123631,0.163379 -0.220215,0.325297 -0.286919,0.487214z" class="fil3"/><path id="_62703074412" d="M16.0117 73.0712l0 0.0752934c0,0.0611302 0.0142546,0.113671 0.045505,0.157714 0.0695367,0.102249 0.183208,0.153328 0.34083,0.153328 0.346587,0 0.747086,-0.265537 1.20305,-0.798165 0.079588,-0.0923806 0.147754,-0.137794 0.203128,-0.137794 0.0312504,0 0.0582062,0.0156252 0.0837913,0.0454136 0.0170872,0.0227525 0.0241231,0.044043 0.0241231,0.0625008 0,0.109376 -0.132038,0.292584 -0.399128,0.549715 -0.207331,0.203128 -0.430287,0.367878 -0.666127,0.495712 -0.235749,0.127834 -0.454501,0.191706 -0.656167,0.191706 -0.208793,0 -0.372172,-0.0724607 -0.491509,-0.217291 -0.0809586,-0.0994165 -0.120707,-0.235749 -0.120707,-0.407626 0,-0.468756 0.220123,-0.927552 0.661924,-1.37776 0.357918,-0.365045 0.66896,-0.548253 0.935959,-0.548253 0.0724607,0 0.137794,0.0212905 0.196092,0.0667041 0.0709987,0.0582975 0.107914,0.1335 0.107914,0.228713 0,0.146292 -0.0681661,0.326667 -0.204498,0.541125 -0.279883,0.443171 -0.701672,0.75001 -1.26418,0.918963zm0.0909186 -0.325205c0.19463,-0.0653334 0.346587,-0.140627 0.457334,-0.224418 0.19463,-0.149125 0.348049,-0.318169 0.463091,-0.507134 0.041119,-0.0667041 0.0610388,-0.126372 0.0610388,-0.178913 0,-0.0553735 -0.0255851,-0.0837913 -0.078126,-0.0837913 -0.0724607,0 -0.17471,0.0539115 -0.308209,0.163288 -0.238581,0.190335 -0.437506,0.468756 -0.595128,0.830968z" class="fil3"/><path id="_627030744123" d="M19.9348 71.1069c0.171786,0 0.301082,0.0312504 0.386335,0.0922892 0.0866239,0.0610388 0.129205,0.153419 0.129205,0.278421 0,0.163288 -0.0610388,0.321002 -0.183208,0.47433 -0.116504,0.143459 -0.291214,0.259963 -0.52413,0.34942 -0.127834,0.0468756 -0.234378,0.0710901 -0.321002,0.0710901 -0.116504,0 -0.17471,-0.0511703 -0.17471,-0.154881 0,-0.0681661 0.034083,-0.122169 0.100878,-0.157623 0.0156252,-0.00849792 0.110747,-0.0312504 0.282624,-0.0709987 0.102249,-0.0213819 0.197462,-0.0710901 0.282624,-0.144921 0.0752934,-0.0638714 0.112209,-0.1335 0.112209,-0.208793 0,-0.0582062 -0.0156252,-0.100878 -0.0497082,-0.129205 -0.032621,-0.0270471 -0.0823293,-0.0412103 -0.149125,-0.0412103 -0.161917,0 -0.33946,0.0653334 -0.532628,0.196 -0.225789,0.146292 -0.337998,0.321002 -0.337998,0.52413 0,0.14483 0.0738314,0.323835 0.221494,0.541125 0.163379,0.23584 0.244338,0.434673 0.244338,0.599423 0,0.244247 -0.107914,0.434582 -0.323835,0.573838 -0.1335,0.0866239 -0.284086,0.129205 -0.453131,0.129205 -0.266999,0 -0.468665,-0.0965839 -0.607921,-0.286919 -0.0965839,-0.136332 -0.146292,-0.296787 -0.146292,-0.482919 0,-0.217291 0.0554649,-0.397666 0.167674,-0.54542 0.0709987,-0.0965839 0.146292,-0.146292 0.224418,-0.146292 0.0695367,0 0.10362,0.0284178 0.10362,0.0837913 0,0.0227525 -0.0127926,0.0554649 -0.0369157,0.0994165 -0.0638714,0.119336 -0.0965839,0.259963 -0.0965839,0.42051 0,0.136332 0.0483376,0.251374 0.146292,0.345125 0.0852533,0.0837913 0.18467,0.125002 0.295417,0.125002 0.108006,0 0.193168,-0.0355451 0.252836,-0.108006 0.0511703,-0.0610388 0.0752934,-0.137703 0.0752934,-0.232916 0,-0.116504 -0.0667041,-0.266999 -0.198833,-0.453131 -0.183208,-0.255669 -0.275588,-0.487123 -0.275588,-0.694545 0,-0.27833 0.152049,-0.52413 0.454593,-0.737126 0.293955,-0.20596 0.603626,-0.308209 0.931755,-0.308209z" class="fil3"/><path id="_6270307441234" d="M20.5172 73.0712l0 0.0752934c0,0.0611302 0.0142546,0.113671 0.045505,0.157714 0.0695367,0.102249 0.183208,0.153328 0.34083,0.153328 0.346587,0 0.747086,-0.265537 1.20305,-0.798165 0.079588,-0.0923806 0.147754,-0.137794 0.203128,-0.137794 0.0312504,0 0.0582062,0.0156252 0.0837913,0.0454136 0.0170872,0.0227525 0.0241231,0.044043 0.0241231,0.0625008 0,0.109376 -0.132038,0.292584 -0.399128,0.549715 -0.207331,0.203128 -0.430287,0.367878 -0.666127,0.495712 -0.235749,0.127834 -0.454501,0.191706 -0.656167,0.191706 -0.208793,0 -0.372172,-0.0724607 -0.491509,-0.217291 -0.0809586,-0.0994165 -0.120707,-0.235749 -0.120707,-0.407626 0,-0.468756 0.220123,-0.927552 0.661924,-1.37776 0.357918,-0.365045 0.66896,-0.548253 0.935959,-0.548253 0.0724607,0 0.137794,0.0212905 0.196092,0.0667041 0.0709987,0.0582975 0.107914,0.1335 0.107914,0.228713 0,0.146292 -0.0681661,0.326667 -0.204498,0.541125 -0.279883,0.443171 -0.701672,0.75001 -1.26418,0.918963zm0.0909186 -0.325205c0.19463,-0.0653334 0.346587,-0.140627 0.457334,-0.224418 0.19463,-0.149125 0.348049,-0.318169 0.463091,-0.507134 0.041119,-0.0667041 0.0610388,-0.126372 0.0610388,-0.178913 0,-0.0553735 -0.0255851,-0.0837913 -0.078126,-0.0837913 -0.0724607,0 -0.17471,0.0539115 -0.308209,0.163288 -0.238581,0.190335 -0.437506,0.468756 -0.595128,0.830968z" class="fil3"/><path id="_62703074412345" d="M23.2996 72.4435c0.0355451,-0.034083 0.0710901,-0.0667955 0.103711,-0.100878 0.580965,-0.565249 0.968671,-0.847964 1.16613,-0.847964 0.107914,0 0.161917,0.0596682 0.161917,0.179005 0,0.0823293 -0.0482462,0.181746 -0.146292,0.295417 -0.529795,0.617881 -0.793961,1.1633 -0.793961,1.63489 0,0.151957 0.0412103,0.298249 0.125002,0.437414 0.0382863,0.0639628 0.0582062,0.113671 0.0582062,0.149125 0,0.034083 -0.0169958,0.0653334 -0.0497082,0.0952132 -0.0369157,0.0397483 -0.0794966,0.0582062 -0.129296,0.0582062 -0.11358,0 -0.210164,-0.0709987 -0.286828,-0.21592 -0.0752934,-0.136332 -0.113671,-0.301082 -0.113671,-0.495712 0,-0.373543 0.141997,-0.788296 0.424713,-1.2428 -0.376467,0.240043 -0.727257,0.667589 -1.05255,1.28118 -0.0837913,0.146292 -0.171786,0.220215 -0.265537,0.220215 -0.0483376,0 -0.0867153,-0.0170872 -0.116504,-0.0497996 -0.0397483,-0.0382863 -0.0582062,-0.0894566 -0.0582062,-0.150495 0,-0.149125 0.170415,-0.541217 0.511337,-1.17746 0.183208,-0.343754 0.326667,-0.593758 0.433211,-0.748548 0.105082,-0.152049 0.194538,-0.228713 0.269832,-0.228713 0.0355451,0 0.0709987,0.0170872 0.103711,0.0497082 0.0397483,0.0383777 0.0582062,0.0837913 0.0582062,0.1335 0,0.0611302 -0.0397483,0.147754 -0.120707,0.261334 -0.116504,0.170507 -0.210255,0.323835 -0.282716,0.463091z" class="fil3"/><path id="_627030744123456" d="M26.2455 71.1907c-0.180375,0.279792 -0.346587,0.593666 -0.498544,0.940253 -0.220123,0.494341 -0.3295,0.862127 -0.3295,1.10647 0,0.0696281 0.0156252,0.122169 0.044043,0.157714 0.0297884,0.0369157 0.0723694,0.0553735 0.130667,0.0553735 0.139165,0 0.306747,-0.130667 0.50421,-0.392001 0.125002,-0.160547 0.235749,-0.321002 0.332333,-0.483011 0.0525409,-0.0908272 0.109376,-0.136332 0.170507,-0.136332 0.0369157,0 0.0667041,0.0114219 0.0922892,0.0369157 0.0212905,0.0255851 0.032621,0.0497082 0.032621,0.0752934 0,0.102249 -0.1335,0.330962 -0.403331,0.686047 -0.321002,0.427546 -0.616419,0.640633 -0.882047,0.640633 -0.142089,0 -0.259963,-0.0653334 -0.353714,-0.19463 -0.0582062,-0.0837913 -0.0879946,-0.201666 -0.0879946,-0.353623 0,-0.336719 0.0979545,-0.727257 0.292584,-1.17472 0.0468756,-0.110747 0.177543,-0.377746 0.390539,-0.802459 -0.0752934,0.0198285 -0.132038,0.0297884 -0.170415,0.0297884 -0.0582062,0 -0.109376,-0.0141632 -0.15479,-0.042581 -0.0611302,-0.0383777 -0.0909186,-0.0866239 -0.0909186,-0.144921 0,-0.0695367 0.0397483,-0.125002 0.120707,-0.167583 0.0227525,-0.00995992 0.125002,-0.0284178 0.308209,-0.0540029 0.0667955,-0.00986855 0.163379,-0.0369157 0.291214,-0.0780346 0.0965839,-0.17471 0.254207,-0.411921 0.474421,-0.711632 0.122078,-0.166212 0.20596,-0.275588 0.252836,-0.325297 0.0667041,-0.0696281 0.12491,-0.103711 0.17608,-0.103711 0.0355451,0 0.0709987,0.0199198 0.107914,0.0582975 0.0327124,0.0354537 0.0497082,0.0723694 0.0497082,0.107914 0,0.0724607 -0.0780346,0.21592 -0.232916,0.428916 -0.102249,0.139256 -0.178913,0.251465 -0.228621,0.336627 0.306747,-0.0823293 0.528333,-0.12491 0.660462,-0.12491 0.153328,0 0.230083,0.0638714 0.230083,0.191706 0,0.0639628 -0.0270471,0.110838 -0.079588,0.142089 -0.0284178,0.0156252 -0.0994165,0.0297884 -0.215829,0.041119 -0.0483376,-0.00283264 -0.257131,0.0497082 -0.629303,0.157714 -0.102249,0.0312504 -0.203036,0.0625008 -0.303915,0.0965839z" class="fil3"/><path id="_6270307441234567" d="M27.1289 73.0712l0 0.0752934c0,0.0611302 0.0142546,0.113671 0.045505,0.157714 0.0695367,0.102249 0.183208,0.153328 0.34083,0.153328 0.346587,0 0.747086,-0.265537 1.20305,-0.798165 0.079588,-0.0923806 0.147754,-0.137794 0.203128,-0.137794 0.0312504,0 0.0582062,0.0156252 0.0837913,0.0454136 0.0170872,0.0227525 0.0241231,0.044043 0.0241231,0.0625008 0,0.109376 -0.132038,0.292584 -0.399128,0.549715 -0.207331,0.203128 -0.430287,0.367878 -0.666127,0.495712 -0.235749,0.127834 -0.454501,0.191706 -0.656167,0.191706 -0.208793,0 -0.372172,-0.0724607 -0.491509,-0.217291 -0.0809586,-0.0994165 -0.120707,-0.235749 -0.120707,-0.407626 0,-0.468756 0.220123,-0.927552 0.661924,-1.37776 0.357918,-0.365045 0.66896,-0.548253 0.935959,-0.548253 0.0724607,0 0.137794,0.0212905 0.196092,0.0667041 0.0709987,0.0582975 0.107914,0.1335 0.107914,0.228713 0,0.146292 -0.0681661,0.326667 -0.204498,0.541125 -0.279883,0.443171 -0.701672,0.75001 -1.26418,0.918963zm0.0909186 -0.325205c0.19463,-0.0653334 0.346587,-0.140627 0.457334,-0.224418 0.19463,-0.149125 0.348049,-0.318169 0.463091,-0.507134 0.041119,-0.0667041 0.0610388,-0.126372 0.0610388,-0.178913 0,-0.0553735 -0.0255851,-0.0837913 -0.078126,-0.0837913 -0.0724607,0 -0.17471,0.0539115 -0.308209,0.163288 -0.238581,0.190335 -0.437506,0.468756 -0.595128,0.830968z" class="fil3"/><path id="_62703074412345678" d="M30.819 71.4407c0.276959,-0.580965 0.539755,-1.08517 0.785463,-1.51555 0.238673,-0.416215 0.401961,-0.677549 0.487214,-0.786925 0.0952132,-0.119336 0.183208,-0.178913 0.266999,-0.178913 0.044043,0 0.0837913,0.0184578 0.120798,0.0553735 0.032621,0.0354537 0.0497082,0.0738314 0.0497082,0.116412 0,0.0625008 -0.0468756,0.170507 -0.142089,0.319631 -0.401961,0.649131 -0.771209,1.30813 -1.10647,1.97718 -0.387706,0.779707 -0.582336,1.3635 -0.582336,1.7513 0,0.157623 0.0297884,0.282624 0.0909186,0.375005 0.0113306,0.0184578 0.0610388,0.0638714 0.150587,0.1335 0.0156252,0.0127926 0.0241231,0.041119 0.0241231,0.0823293 0,0.0553735 -0.0212905,0.106544 -0.0639628,0.151957 -0.042581,0.045505 -0.0908272,0.0682575 -0.143459,0.0682575 -0.0638714,0 -0.13487,-0.0383777 -0.212996,-0.116504 -0.110838,-0.110747 -0.177543,-0.238581 -0.198833,-0.382041 -0.00858929,-0.0611302 -0.0185492,-0.17471 -0.0298798,-0.340922 -0.291214,0.52413 -0.568173,0.785463 -0.832339,0.785463 -0.151957,0 -0.274126,-0.0852533 -0.365045,-0.257131 -0.0610388,-0.11358 -0.0922892,-0.242876 -0.0922892,-0.387706 0,-0.43184 0.157623,-0.867884 0.474421,-1.30676 0.313875,-0.431749 0.650502,-0.649131 1.01125,-0.649131 0.0994165,0 0.203128,0.0355451 0.308209,0.105173zm-0.141997 0.34083c-0.0752934,-0.0497082 -0.139165,-0.0752934 -0.196,-0.0752934 -0.233007,0 -0.453131,0.143459 -0.660462,0.429008 -0.275588,0.372081 -0.411921,0.73009 -0.411921,1.07805 0,0.0412103 0.00712729,0.0794966 0.0241231,0.116504 0.034083,0.0681661 0.0837913,0.10362 0.150587,0.10362 0.0965839,0 0.214458,-0.0951218 0.353623,-0.282624 0.186132,-0.250003 0.357918,-0.54542 0.515632,-0.886342 0.0553735,-0.116412 0.109376,-0.232916 0.161917,-0.34942 0,0 0.0127926,-0.0269558 0.0383777,-0.0794966l0.0241231 -0.0540029z" class="fil3"/><path id="_627030744123456789" d="M34.6923 71.685c0.23584,-0.198833 0.447466,-0.299711 0.636339,-0.299711 0.116504,0 0.213088,0.0497082 0.286919,0.146292 0.0696281,0.0867153 0.105082,0.186132 0.105082,0.299711 0,0.21592 -0.0709987,0.478716 -0.212996,0.786925 -0.157714,0.34083 -0.386335,0.659 -0.686047,0.953046 -0.247171,0.242876 -0.482919,0.365045 -0.707337,0.365045 -0.0837913,0 -0.159085,-0.0142546 -0.227251,-0.0454136 -0.0682575,-0.0298798 -0.127834,-0.0767554 -0.180467,-0.137794 -0.0226611,0.0397483 -0.0369157,0.0638714 -0.042581,0.0752934 -0.0468756,0.102249 -0.0794966,0.16475 -0.0979545,0.187411 -0.0170872,0.0227525 -0.045505,0.0327124 -0.0852533,0.0327124 -0.0497082,0 -0.0965839,-0.0284178 -0.140627,-0.0866239 -0.0312504,-0.0383777 -0.0454136,-0.0809586 -0.0454136,-0.125002 0,-0.078126 0.159085,-0.470127 0.477254,-1.17746 0.447374,-0.98722 0.964377,-1.97005 1.55238,-2.94585 0.238673,-0.40059 0.384965,-0.634968 0.437506,-0.703134 0.0582062,-0.0837913 0.112209,-0.125002 0.161917,-0.125002 0.0611302,0 0.115042,0.0298798 0.161917,0.0909186 0.0312504,0.0397483 0.0468756,0.0852533 0.0468756,0.137794 0,0.0582062 -0.0269558,0.132129 -0.0794966,0.220123 -0.0114219,0.0199198 -0.0980459,0.161917 -0.262796,0.429008 -0.501377,0.776874 -0.867884,1.41751 -1.09797,1.92172zm-0.828044 1.67747c0.0412103,0.0553735 0.0837913,0.0965839 0.126372,0.125002 0.044043,0.0269558 0.0880859,0.0412103 0.134962,0.0412103 0.241505,0 0.497174,-0.208793 0.767006,-0.627841 0.12354,-0.188873 0.222956,-0.376375 0.295417,-0.562416 0.0625008,-0.166212 0.0952132,-0.289752 0.0952132,-0.36934 0,-0.0553735 -0.0127926,-0.0965839 -0.0369157,-0.12354 -0.0255851,-0.0255851 -0.0639628,-0.0398397 -0.116504,-0.0398397 -0.127834,0 -0.282624,0.0880859 -0.463091,0.262796 -0.180375,0.171877 -0.357918,0.420418 -0.532628,0.744253 -0.0823293,0.156252 -0.15479,0.301173 -0.215829,0.437506 -0.0355451,0.0752934 -0.0540029,0.112209 -0.0540029,0.112209z" class="fil3"/><path id="_62703074412345678910" d="M37.3641 72.7048c-0.247171,0.291214 -0.444542,0.508504 -0.590834,0.649131 -0.291214,0.27833 -0.53409,0.416124 -0.728719,0.416124 -0.0937512,0 -0.168953,-0.034083 -0.224418,-0.10362 -0.041119,-0.0554649 -0.0625008,-0.125002 -0.0625008,-0.208884 0,-0.29962 0.177634,-0.697377 0.532719,-1.19309 0.36075,-0.505672 0.620622,-0.758416 0.782631,-0.758416 0.0439516,0 0.0823293,0.0198285 0.116412,0.0582062 0.0298798,0.0312504 0.045505,0.0667041 0.045505,0.109376 0,0.0610388 -0.0156252,0.11358 -0.0483376,0.159085 -0.0312504,0.0468756 -0.122169,0.147663 -0.272664,0.306747 -0.157714,0.163379 -0.302544,0.340922 -0.436135,0.532628 -0.153328,0.21592 -0.228621,0.373634 -0.228621,0.474421 0,0.0582975 0.0269558,0.0866239 0.0823293,0.0866239 0.110838,0 0.319631,-0.150495 0.625008,-0.453039 0.190335,-0.191797 0.340922,-0.352252 0.448836,-0.482919 0.0227525,-0.0270471 0.119336,-0.159085 0.291122,-0.394925 0.156252,-0.208793 0.251465,-0.332333 0.286919,-0.37071 0.0838827,-0.0965839 0.161917,-0.146292 0.233007,-0.146292 0.0454136,0 0.0851619,0.0199198 0.120707,0.0582975 0.034083,0.0369157 0.0511703,0.078126 0.0511703,0.125002 0,0.0809586 -0.0568355,0.215829 -0.167674,0.404793 -0.132038,0.230083 -0.254207,0.444542 -0.365045,0.644837 -0.17608,0.30958 -0.30958,0.588001 -0.404793,0.832339 0.177543,-0.103711 0.340922,-0.230083 0.487214,-0.379299 0.250003,-0.249912 0.401961,-0.436044 0.457334,-0.558121 0.0540029,-0.110838 0.108006,-0.166212 0.163379,-0.166212 0.076664,0 0.116504,0.0397483 0.116504,0.116412 0,0.147754 -0.125002,0.366507 -0.375005,0.657629 -0.299711,0.34942 -0.669051,0.646299 -1.10647,0.890637 -0.232916,0.561045 -0.454501,1.02551 -0.661924,1.39475 -0.389168,0.679011 -0.789758,1.01847 -1.20305,1.01847 -0.169045,0 -0.305377,-0.0653334 -0.407626,-0.19463 -0.0809586,-0.100878 -0.120707,-0.227251 -0.120707,-0.379208 0,-0.433211 0.303915,-0.875011 0.911836,-1.32805 0.177543,-0.132129 0.440338,-0.298341 0.789758,-0.498544 0.141997,-0.0809586 0.252836,-0.146292 0.333795,-0.196 0.0497082,-0.127834 0.126372,-0.296879 0.228621,-0.507134 0.113671,-0.227251 0.213088,-0.433211 0.299711,-0.616419zm-0.765544 1.63626c-0.294046,0.149125 -0.595128,0.362212 -0.903338,0.640633 -0.311133,0.285457 -0.465923,0.551085 -0.465923,0.798165 0,0.0526323 0.0156252,0.0980459 0.0454136,0.133591 0.0412103,0.0497082 0.0965839,0.075202 0.161917,0.075202 0.208793,0 0.438968,-0.218661 0.691804,-0.653334 0.041119,-0.0724607 0.15479,-0.312504 0.34083,-0.72013 0.0383777,-0.0837913 0.0824207,-0.17471 0.129296,-0.274126z" class="fil3"/><path id="_627030984" d="M103.379 73.1818c-0.0909186,0.160547 -0.181837,0.296879 -0.269832,0.407717 -0.17471,0.217291 -0.348049,0.325205 -0.519926,0.325205 -0.150495,0 -0.266999,-0.0709987 -0.349328,-0.212996 -0.0526323,-0.0909186 -0.079588,-0.198924 -0.079588,-0.323835 0,-0.308301 0.0965839,-0.647761 0.291214,-1.01984 0.215829,-0.413383 0.477254,-0.731552 0.782631,-0.953137 0.200204,-0.143459 0.392001,-0.215829 0.578041,-0.215829 0.116504,0 0.213088,0.0354537 0.291214,0.107914 0.0667041,0.0639628 0.0994165,0.136332 0.0994165,0.21592 0,0.0610388 -0.0227525,0.146292 -0.0696281,0.254207 0.0412103,0.0582975 0.0625008,0.109376 0.0625008,0.153419 0,0.0582062 -0.0397483,0.15479 -0.116504,0.288381 -0.0809586,0.13487 -0.161917,0.315245 -0.241414,0.539663 -0.0866239,0.238673 -0.129296,0.430378 -0.129296,0.5753 0,0.116504 0.034083,0.211626 0.103711,0.286919 0.0199198,0.0198285 0.0767554,0.0510789 0.170415,0.0951218 0.0696281,0.034083 0.103711,0.0923806 0.103711,0.17471 0,0.0525409 -0.0184578,0.0965839 -0.0582062,0.129296 -0.0412103,0.0354537 -0.0894566,0.0539115 -0.144921,0.0539115 -0.150495,0 -0.27833,-0.0667041 -0.387706,-0.198833 -0.0880859,-0.109376 -0.132129,-0.244247 -0.132129,-0.409088 0,-0.0553735 0.00566528,-0.146292 0.0156252,-0.274126zm0.521297 -1.36917c-0.034083,-0.0611302 -0.0696281,-0.105173 -0.109376,-0.134962 -0.0383777,-0.0297884 -0.0794966,-0.044043 -0.12354,-0.044043 -0.211626,0 -0.440338,0.18467 -0.687509,0.553918 -0.271294,0.407717 -0.407626,0.752842 -0.407626,1.03547 0,0.0696281 0.0127926,0.122169 0.0397483,0.159085 0.0255851,0.0355451 0.0653334,0.0540029 0.117874,0.0540029 0.133591,0 0.289752,-0.142089 0.467294,-0.424713 0.0995079,-0.15479 0.223047,-0.384873 0.36934,-0.686047 0.0980459,-0.197371 0.167583,-0.328129 0.213088,-0.392001 0.0212905,-0.0327124 0.0625008,-0.0738314 0.120707,-0.120707z" class="fil3"/><path id="_6270309841" d="M105.131 72.4418c0.0355451,-0.034083 0.0710901,-0.0667955 0.103711,-0.100878 0.580965,-0.565249 0.968671,-0.847964 1.16613,-0.847964 0.107914,0 0.161917,0.0596682 0.161917,0.179005 0,0.0823293 -0.0482462,0.181746 -0.146292,0.295417 -0.529795,0.617881 -0.793961,1.1633 -0.793961,1.63489 0,0.151957 0.0412103,0.298249 0.125002,0.437414 0.0382863,0.0639628 0.0582062,0.113671 0.0582062,0.149125 0,0.034083 -0.0169958,0.0653334 -0.0497082,0.0952132 -0.0369157,0.0397483 -0.0794966,0.0582062 -0.129296,0.0582062 -0.11358,0 -0.210164,-0.0709987 -0.286828,-0.21592 -0.0752934,-0.136332 -0.113671,-0.301082 -0.113671,-0.495712 0,-0.373543 0.141997,-0.788296 0.424713,-1.2428 -0.376467,0.240043 -0.727257,0.667589 -1.05255,1.28118 -0.0837913,0.146292 -0.171786,0.220215 -0.265537,0.220215 -0.0483376,0 -0.0867153,-0.0170872 -0.116504,-0.0497996 -0.0397483,-0.0382863 -0.0582062,-0.0894566 -0.0582062,-0.150495 0,-0.149125 0.170415,-0.541217 0.511337,-1.17746 0.183208,-0.343754 0.326667,-0.593758 0.433211,-0.748548 0.105082,-0.152049 0.194538,-0.228713 0.269832,-0.228713 0.0355451,0 0.0709987,0.0170872 0.103711,0.0497082 0.0397483,0.0383777 0.0582062,0.0837913 0.0582062,0.1335 0,0.0611302 -0.0397483,0.147754 -0.120707,0.261334 -0.116504,0.170507 -0.210255,0.323835 -0.282716,0.463091z" class="fil3"/><path id="_62703098412" d="M108.232 71.4391c0.276959,-0.580965 0.539755,-1.08517 0.785463,-1.51555 0.238673,-0.416215 0.401961,-0.677549 0.487214,-0.786925 0.0952132,-0.119336 0.183208,-0.178913 0.266999,-0.178913 0.044043,0 0.0837913,0.0184578 0.120798,0.0553735 0.032621,0.0354537 0.0497082,0.0738314 0.0497082,0.116412 0,0.0625008 -0.0468756,0.170507 -0.142089,0.319631 -0.401961,0.649131 -0.771209,1.30813 -1.10647,1.97718 -0.387706,0.779707 -0.582336,1.3635 -0.582336,1.7513 0,0.157623 0.0297884,0.282624 0.0909186,0.375005 0.0113306,0.0184578 0.0610388,0.0638714 0.150587,0.1335 0.0156252,0.0127926 0.0241231,0.041119 0.0241231,0.0823293 0,0.0553735 -0.0212905,0.106544 -0.0639628,0.151957 -0.042581,0.045505 -0.0908272,0.0682575 -0.143459,0.0682575 -0.0638714,0 -0.13487,-0.0383777 -0.212996,-0.116504 -0.110838,-0.110747 -0.177543,-0.238581 -0.198833,-0.382041 -0.00858929,-0.0611302 -0.0185492,-0.17471 -0.0298798,-0.340922 -0.291214,0.52413 -0.568173,0.785463 -0.832339,0.785463 -0.151957,0 -0.274126,-0.0852533 -0.365045,-0.257131 -0.0610388,-0.11358 -0.0922892,-0.242876 -0.0922892,-0.387706 0,-0.43184 0.157623,-0.867884 0.474421,-1.30676 0.313875,-0.431749 0.650502,-0.649131 1.01125,-0.649131 0.0994165,0 0.203128,0.0355451 0.308209,0.105173zm-0.141997 0.34083c-0.0752934,-0.0497082 -0.139165,-0.0752934 -0.196,-0.0752934 -0.233007,0 -0.453131,0.143459 -0.660462,0.429008 -0.275588,0.372081 -0.411921,0.73009 -0.411921,1.07805 0,0.0412103 0.00712729,0.0794966 0.0241231,0.116504 0.034083,0.0681661 0.0837913,0.10362 0.150587,0.10362 0.0965839,0 0.214458,-0.0951218 0.353623,-0.282624 0.186132,-0.250003 0.357918,-0.54542 0.515632,-0.886342 0.0553735,-0.116412 0.109376,-0.232916 0.161917,-0.34942 0,0 0.0127926,-0.0269558 0.0383777,-0.0794966l0.0241231 -0.0540029z" class="fil3"/></g></g><path d="M61.0594 63.3662c-0.102066,0 -0.178639,-0.0359106 -0.229261,-0.107275 -0.050622,-0.0713642 -0.0761158,-0.178182 -0.0761158,-0.321002l0 -0.535095c0,-0.129845 0.0302453,-0.227616 0.0912841,-0.292493 0.0609474,-0.0653334 0.152688,-0.0977717 0.275131,-0.0977717 0.120707,0 0.211077,0.0324383 0.271202,0.0977717 0.0597595,0.0648766 0.0900048,0.163105 0.0900048,0.293772l0 0.625099 -0.0800449 0.0354537c-0.00995992,0.0952132 -0.0449567,0.169593 -0.105082,0.222408 -0.060125,0.052815 -0.138891,0.0791311 -0.237119,0.0791311zm0.0583889 -0.156983c0.0657903,0 0.114676,-0.021656 0.146292,-0.0648766 0.0315245,-0.0428551 0.0475152,-0.108645 0.0475152,-0.196457l0 -0.558944c0,-0.0735572 -0.0159907,-0.128474 -0.0475152,-0.164841 -0.0316159,-0.0362761 -0.0805018,-0.0544598 -0.146292,-0.0544598 -0.129296,0 -0.193807,0.0735572 -0.193807,0.22058l0 0.557664c0,0.0869894 0.0159907,0.152323 0.0480635,0.196 0.0319814,0.0432206 0.0804104,0.0653334 0.145744,0.0653334zm0.00648766 0.622084c-0.165664,0 -0.307113,-0.0276868 -0.423891,-0.0835172 -0.117235,-0.0558304 -0.206417,-0.137155 -0.267821,-0.243972 -0.0610388,-0.106909 -0.091741,-0.236206 -0.091741,-0.387158 0,-0.144556 0,-0.289021 0,-0.43312 0,-0.144008 0,-0.28765 0,-0.431292 0,-0.154059 0.0307022,-0.285548 0.0925633,-0.395016 0.0614957,-0.109376 0.151044,-0.192437 0.268735,-0.249546 0.117235,-0.0571097 0.258227,-0.0857102 0.422155,-0.0857102 0.16274,0 0.301996,0.0286005 0.416672,0.0857102 0.115042,0.0571097 0.202854,0.14017 0.262979,0.249546 0.0605819,0.109468 0.0909186,0.240957 0.0909186,0.395016l0 0.776965c0,0.107275 -0.0251282,0.190335 -0.0749279,0.248724 -0.0497082,0.0588458 -0.119793,0.0882687 -0.210255,0.0882687 -0.0903703,0 -0.160912,-0.0259506 -0.21062,-0.077395 -0.0497996,-0.0515358 -0.0748365,-0.124636 -0.0748365,-0.219392l0.15744 -0.0709074c0,0.0709074 0.0112392,0.125915 0.033352,0.164841 0.0224784,0.0389259 0.0540029,0.0583889 0.094665,0.0583889 0.0402966,0 0.0718211,-0.0169045 0.0943908,-0.0501651 0.0224784,-0.033352 0.0332607,-0.0809586 0.0332607,-0.142363l0 -0.776965c0,-0.123265 -0.0237576,-0.229261 -0.0721866,-0.317073 -0.0480635,-0.0879032 -0.117692,-0.154516 -0.209433,-0.200295 -0.091741,-0.045505 -0.202488,-0.0684402 -0.331419,-0.0684402 -0.131032,0 -0.243516,0.0229352 -0.33745,0.0692626 -0.0938426,0.0458705 -0.165664,0.11294 -0.215372,0.200295 -0.0497996,0.0873549 -0.0748365,0.192985 -0.0748365,0.31625 0,0.141906 0,0.284635 0,0.428734 0,0.144008 0,0.289386 0,0.435678 0,0.118879 0.02458,0.221037 0.0734659,0.305377 0.0493427,0.0843395 0.120707,0.148851 0.215098,0.192528 0.0942995,0.0441343 0.207148,0.0661558 0.339094,0.0661558l0.377746 0 0 0.150587 -0.377746 0z" class="fil4"/><path id="1" d="M62.6796 61.834l0.215372 0 0 0.968214c0,0.140535 0.0225697,0.236571 0.0670696,0.288472 0.0450481,0.0519926 0.120707,0.0779433 0.227159,0.0779433 0.104716,0 0.179918,-0.0273213 0.224966,-0.0822379 0.0454136,-0.0549166 0.067892,-0.148851 0.067892,-0.281619l0 -0.970773 0.207696 0 0 1.00495c0,0.181654 -0.0423982,0.315794 -0.126829,0.401869 -0.0843395,0.0860757 -0.215372,0.129388 -0.392823,0.129388 -0.0895479,0 -0.169501,-0.0159907 -0.240043,-0.0476066 -0.0705418,-0.0315245 -0.126372,-0.0770295 -0.167034,-0.136241 -0.0302453,-0.0428551 -0.0519013,-0.0930202 -0.0644197,-0.15013 -0.0125184,-0.0571097 -0.0190061,-0.155795 -0.0190061,-0.295965l0 -0.906262z" class="fil4"/><path id="12" d="M64.4506 61.7098l0.279061 0 0 0.256125 -0.279061 0 0 -0.256125zm-0.208884 0.70085l0 -0.182568 0.474147 0 0 1.04433c0,0.152232 -0.0294229,0.264349 -0.0882687,0.33617 -0.0588458,0.0718211 -0.15013,0.107732 -0.274309,0.107732l-0.239678 0 0 -0.185218 0.163562 0c0.0955787,0 0.160912,-0.021656 0.196366,-0.0653334 0.0355451,-0.0432206 0.0532719,-0.126738 0.0532719,-0.25046l0 -0.804652 -0.285091 0z" class="fil4"/><path id="123" d="M65.7163 61.7098l0.279061 0 0 0.256125 -0.279061 0 0 -0.256125zm-0.208884 0.70085l0 -0.182568 0.474147 0 0 1.04433c0,0.152232 -0.0294229,0.264349 -0.0882687,0.33617 -0.0588458,0.0718211 -0.15013,0.107732 -0.274309,0.107732l-0.239678 0 0 -0.185218 0.163562 0c0.0955787,0 0.160912,-0.021656 0.196366,-0.0653334 0.0355451,-0.0432206 0.0532719,-0.126738 0.0532719,-0.25046l0 -0.804652 -0.285091 0z" class="fil4"/><path id="1234" d="M66.4435 62.2155l0.201574 0 0.0809586 0.685681c0,0.00255851 0.000822379,0.00776691 0.00255851,0.0164476 0.0104168,0.0743796 0.0151683,0.144921 0.0151683,0.211534l0.126738 -0.470309 0.227159 0 0.128839 0.470309c0.00438602,-0.0415758 0.00822379,-0.0843395 0.0121529,-0.129388 0.00392914,-0.0444998 0.00566528,-0.0691712 0.00566528,-0.0735572l0.0761158 -0.710718 0.201574 0 -0.144465 1.13168 -0.257405 0 -0.140627 -0.500555 -0.134139 0.500555 -0.257405 0 -0.144465 -1.13168z" class="fil4"/><path id="12345" d="M68.5026 62.819c-0.0151683,-0.00173613 -0.0349968,-0.00301539 -0.0596682,-0.00383777 -0.0346313,-0.00173613 -0.0567442,-0.00264989 -0.0670696,-0.00264989 -0.143642,0 -0.25046,0.0169045 -0.320545,0.0501651 -0.070085,0.033352 -0.105173,0.083974 -0.105173,0.152323 0,0.048429 0.0186406,0.0878118 0.0558304,0.119428 0.0371898,0.031159 0.0852533,0.0466929 0.144465,0.0466929 0.0986855,0 0.181289,-0.0337175 0.247079,-0.100787 0.0656989,-0.0670696 0.100787,-0.154059 0.105082,-0.261334zm0 0.382406c-0.0463274,0.0540943 -0.0995079,0.0943908 -0.159633,0.121164 -0.060125,0.0264075 -0.125915,0.0398397 -0.197736,0.0398397 -0.120707,0 -0.218022,-0.0324383 -0.291122,-0.0977717 -0.0731004,-0.0648766 -0.109468,-0.150587 -0.109468,-0.257039 0,-0.129296 0.0536374,-0.223596 0.160912,-0.283721 0.107366,-0.0602164 0.275223,-0.0900048 0.503205,-0.0900048 0.0112392,0 0.026773,0.000456877 0.0475152,0.00127926 0.0208336,0.000822379 0.0363674,0.00127926 0.0463274,0.00127926l0 -0.00776691c0,-0.0895479 -0.0224784,-0.154425 -0.0670696,-0.194721 -0.0449567,-0.0402052 -0.117692,-0.060125 -0.218022,-0.060125 -0.0549166,0 -0.0973149,0.00740141 -0.127652,0.021656 -0.0297884,0.0142546 -0.0501651,0.0368243 -0.060125,0.0670696l-0.211534 0c0.00995992,-0.0878118 0.0497996,-0.154425 0.118514,-0.199473 0.0688057,-0.0454136 0.164019,-0.067892 0.286005,-0.067892 0.163105,0 0.281619,0.0354537 0.355999,0.105996 0.074471,0.0705418 0.111661,0.183025 0.111661,0.337906l0 0.70816 -0.187777 0 0 -0.145835z" class="fil4"/><path id="123456" d="M69.7035 63.3472c-0.163562,0 -0.277324,-0.0346313 -0.340465,-0.103437 -0.0635973,-0.0687143 -0.0952132,-0.208519 -0.0952132,-0.418774l0 -1.11524 0.195178 0 0 1.07978c0,0.164841 0.0215646,0.268278 0.0644197,0.310677 0.0432206,0.0419413 0.130667,0.0631404 0.262613,0.0631404l0.079588 0 0 0.183847 -0.166121 0z" class="fil4"/><path id="1234567" d="M70.7438 62.3842c-0.0951218,0 -0.171329,0.0354537 -0.228439,0.106452 -0.0571097,0.0709074 -0.0856188,0.166121 -0.0856188,0.285091 0,0.128474 0.0272299,0.227982 0.0822379,0.298889 0.0549166,0.0709987 0.132312,0.106452 0.23182,0.106452 0.102523,0 0.183482,-0.0359106 0.242693,-0.107732 0.0597595,-0.0718211 0.0895479,-0.168679 0.0895479,-0.291122 0,-0.1229 -0.0297884,-0.219758 -0.0899134,-0.291214 -0.0602164,-0.0713642 -0.140627,-0.106818 -0.242328,-0.106818zm0.329683 -0.0302453l0 -0.644197 0.195087 0 0 1.63745 -0.185127 0 0 -0.150952c-0.050622,0.0609474 -0.105173,0.104625 -0.163562,0.131489 -0.057932,0.0264075 -0.128931,0.0398397 -0.212813,0.0398397 -0.148851,0 -0.266085,-0.0523581 -0.353075,-0.157074 -0.0864412,-0.104716 -0.129753,-0.248724 -0.129753,-0.432206 0,-0.178182 0.0441343,-0.319266 0.131946,-0.422611 0.0878118,-0.103437 0.206326,-0.155338 0.35609,-0.155338 0.0718211,0 0.137977,0.0129753 0.198559,0.0384691 0.060125,0.0259506 0.114585,0.0640542 0.162648,0.115133z" class="fil4"/><path id="12345678" d="M72.3345 62.6416c-0.00913755,-0.0865326 -0.0381036,-0.153145 -0.0860757,-0.199838 -0.0485204,-0.0471497 -0.112118,-0.0705418 -0.191706,-0.0705418 -0.0769381,0 -0.141449,0.0237576 -0.19335,0.0709074 -0.0519013,0.0476066 -0.0865326,0.113854 -0.103437,0.199473l0.574569 0zm-0.0761158 0.458613l0.23182 0c-0.0134322,0.0826034 -0.0561959,0.14748 -0.128017,0.194173 -0.0718211,0.0471497 -0.164384,0.0705418 -0.277781,0.0705418 -0.168679,0 -0.301082,-0.0514444 -0.396661,-0.154425 -0.0956701,-0.103437 -0.143185,-0.247445 -0.143185,-0.432206 0,-0.179918 0.0471497,-0.321824 0.141906,-0.425261 0.094665,-0.103346 0.22323,-0.155338 0.385422,-0.155338 0.151409,0 0.267821,0.052815 0.349968,0.158354 0.081781,0.105996 0.1229,0.257039 0.1229,0.453862l0 0.00776691 -0.784824 0 0 0.0125184c0,0.110747 0.0286005,0.19728 0.0861671,0.259598 0.0574752,0.0626836 0.136241,0.0938426 0.236206,0.0938426 0.0479721,0 0.0868981,-0.00685316 0.116321,-0.0207422 0.0298798,-0.0137977 0.0497996,-0.0349968 0.0597595,-0.0626836z" class="fil4"/><path id="123456789" d="M73.6002 62.6416c-0.00913755,-0.0865326 -0.0381036,-0.153145 -0.0860757,-0.199838 -0.0485204,-0.0471497 -0.112118,-0.0705418 -0.191706,-0.0705418 -0.0769381,0 -0.141449,0.0237576 -0.19335,0.0709074 -0.0519013,0.0476066 -0.0865326,0.113854 -0.103437,0.199473l0.574569 0zm-0.0761158 0.458613l0.23182 0c-0.0134322,0.0826034 -0.0561959,0.14748 -0.128017,0.194173 -0.0718211,0.0471497 -0.164384,0.0705418 -0.277781,0.0705418 -0.168679,0 -0.301082,-0.0514444 -0.396661,-0.154425 -0.0956701,-0.103437 -0.143185,-0.247445 -0.143185,-0.432206 0,-0.179918 0.0471497,-0.321824 0.141906,-0.425261 0.094665,-0.103346 0.22323,-0.155338 0.385422,-0.155338 0.151409,0 0.267821,0.052815 0.349968,0.158354 0.081781,0.105996 0.1229,0.257039 0.1229,0.453862l0 0.00776691 -0.784824 0 0 0.0125184c0,0.110747 0.0286005,0.19728 0.0861671,0.259598 0.0574752,0.0626836 0.136241,0.0938426 0.236206,0.0938426 0.0479721,0 0.0868981,-0.00685316 0.116321,-0.0207422 0.0298798,-0.0137977 0.0497996,-0.0349968 0.0597595,-0.0626836z" class="fil4"/><path id="12345678910" d="M74.6085 63.1759c0.0995079,0 0.176903,-0.0354537 0.23182,-0.106452 0.055008,-0.0709074 0.0822379,-0.170415 0.0822379,-0.298889 0,-0.118971 -0.0285091,-0.214184 -0.0856188,-0.285091 -0.0571097,-0.0709987 -0.133317,-0.106452 -0.228439,-0.106452 -0.101701,0 -0.182111,0.0354537 -0.242328,0.106909 -0.060125,0.0713642 -0.0899134,0.167857 -0.0899134,0.289843 0,0.123265 0.0297884,0.22058 0.0895479,0.292401 0.0592113,0.0718211 0.14017,0.107732 0.242693,0.107732zm-0.522211 -0.960356l0.18997 0 0 0.137977c0.050622,-0.0515358 0.106361,-0.0900048 0.1674,-0.115133 0.0605819,-0.0254938 0.126281,-0.0380122 0.196366,-0.0380122 0.149764,0 0.268278,0.0519013 0.35609,0.155338 0.0878118,0.103346 0.131946,0.244429 0.131946,0.422611 0,0.179553 -0.043312,0.321002 -0.129753,0.424439 -0.0869894,0.102889 -0.204681,0.154425 -0.353075,0.154425 -0.0821465,0 -0.152688,-0.0121529 -0.212357,-0.0368243 -0.0597595,-0.02458 -0.111661,-0.0631404 -0.156618,-0.116778l0 0.512708 -0.18997 0 0 -1.50075z" class="fil4"/></g></svg>