<?xml version="1.0" standalone="no"?>
<!DOCTYPE svg PUBLIC "-//W3C//DTD SVG 20010904//EN"
 "http://www.w3.org/TR/2001/REC-SVG-20010904/DTD/svg10.dtd">
<svg version="1.0" xmlns="http://www.w3.org/2000/svg"
 width="4400.000000pt" height="3000.000000pt" viewBox="0 0 4400.000000 3000.000000"
 preserveAspectRatio="xMidYMid meet">
<metadata>
Created by potrace 1.13, written by Peter Selinger 2001-2015
</metadata>
<g transform="translate(0.000000,3000.000000) scale(0.100000,-0.100000)"
fill="#000000" stroke="none">
<path d="M6840 24030 c-101 -7 -216 -24 -365 -55 -38 -8 -103 -20 -144 -25
-40 -6 -78 -14 -85 -18 -6 -4 -594 -9 -1306 -12 l-1295 -5 -70 -23 c-38 -13
-86 -28 -105 -34 -19 -5 -76 -34 -125 -64 -128 -76 -257 -213 -306 -323 -11
-25 -29 -64 -39 -86 -52 -113 -50 -5 -50 -2156 0 -1910 1 -1997 19 -2064 24
-92 83 -218 126 -271 l35 -42 1 -794 c0 -721 5 -947 25 -1138 6 -64 6 -66 -20
-78 -15 -7 -32 -12 -39 -12 -19 0 -107 -49 -167 -93 -56 -41 -133 -127 -146
-163 -4 -10 -12 -26 -19 -34 -6 -8 -23 -44 -36 -80 l-24 -65 0 -1985 c0 -1905
1 -1987 18 -2035 87 -235 255 -384 472 -416 95 -14 6190 -12 6348 3 97 8 154
8 235 0 124 -14 3253 -15 4462 -3 704 8 728 9 815 30 169 42 289 121 375 246
l32 46 743 -1 c498 -1 750 2 763 9 22 12 52 90 92 238 16 58 30 106 32 108 1
1 469 4 1038 6 l1035 4 -4 -211 -4 -212 23 -12 c17 -9 77 -11 234 -6 116 3
963 6 1881 6 l1670 0 71 75 71 74 1174 3 c1143 3 1175 4 1224 23 49 19 86 20
1540 25 l1490 5 50 23 c86 39 154 123 169 206 l7 39 3087 -6 3087 -6 0 -328
c0 -233 3 -335 12 -353 29 -61 62 -103 110 -139 57 -42 81 -48 303 -76 69 -8
179 -22 245 -31 124 -15 287 -35 435 -53 47 -6 123 -15 170 -21 153 -20 333
-41 425 -51 97 -10 321 -38 560 -71 407 -55 251 -51 2328 -55 2187 -4 1998
-11 2093 79 67 63 90 118 104 248 6 58 17 152 25 210 8 58 19 150 25 205 5 55
19 159 30 230 18 121 39 295 61 495 5 47 16 139 24 205 8 66 36 282 61 480 24
198 50 389 57 425 9 49 12 538 12 2025 l0 1960 -24 48 c-49 96 -141 162 -240
174 -28 3 -51 8 -51 10 0 3 20 27 43 54 l44 50 6 1877 c4 1334 2 1880 -5 1890
-8 10 -62 12 -230 12 -195 -1 -222 1 -239 16 -17 15 -19 32 -19 179 0 134 -3
165 -15 175 -13 11 -365 12 -1818 6 -991 -3 -1836 -9 -1877 -13 l-75 -6 -147
-151 c-80 -83 -150 -147 -155 -143 -4 5 -6 209 -4 454 l4 444 -186 187 -186
187 -1846 4 c-1015 2 -1864 0 -1888 -3 -37 -6 -56 -21 -162 -124 -277 -272
-784 -789 -796 -812 -9 -18 -13 -81 -13 -220 l-1 -195 -875 -5 c-481 -3 -881
-3 -888 -1 -11 3 -13 66 -11 340 3 295 1 340 -13 366 -9 17 -97 110 -195 208
l-179 177 -1884 0 -1884 0 -185 -185 -186 -185 -5 -166 -5 -167 -485 -1 -485
-1 -5 150 c-4 120 -8 155 -22 174 -10 14 -97 105 -194 203 l-177 178 -1886 0
-1887 0 -187 -188 -187 -188 0 -355 0 -356 -486 -7 c-267 -3 -489 -4 -495 -1
-5 4 -9 177 -9 436 0 345 -3 436 -14 462 -8 18 -101 119 -208 225 l-194 192
-2020 1 -2019 0 -45 71 c-82 129 -226 255 -365 316 -43 20 -161 52 -225 62
-30 4 -604 9 -1275 9 -1040 1 -1230 3 -1285 16 -70 16 -195 39 -330 62 -47 7
-112 19 -145 25 -69 12 -4176 20 -4355 8z m4048 -248 c24 -7 85 -19 135 -26
132 -20 310 -53 354 -65 26 -7 440 -11 1291 -11 1227 0 1254 0 1309 -20 32
-11 64 -20 73 -20 20 0 129 -45 143 -59 6 -6 15 -11 19 -11 19 0 121 -74 174
-127 33 -32 85 -98 117 -146 l59 -88 2015 1 2016 2 46 -44 c117 -109 333 -325
344 -343 9 -14 13 -147 17 -468 l5 -447 799 0 c440 0 801 2 804 4 2 3 3 161 3
353 -1 210 3 354 9 363 5 8 87 93 182 187 l173 173 1587 0 1588 0 174 -175
c96 -96 181 -185 188 -197 8 -15 15 -78 18 -176 l5 -154 798 -4 c765 -5 797
-5 797 13 1 10 1 85 0 167 -1 114 2 153 14 170 16 26 207 219 296 301 l60 55
1581 0 1581 0 80 -77 c144 -140 273 -274 285 -296 9 -16 12 -115 13 -364 l0
-343 1201 0 1200 0 -3 203 c-3 174 -1 206 14 232 9 17 217 229 463 473 l446
442 1582 0 1583 0 181 -177 182 -178 4 -169 c3 -93 3 -317 0 -498 -5 -274 -3
-328 8 -329 8 0 129 0 269 1 l255 1 185 187 185 187 1585 -3 1585 -3 7 -32 c4
-18 7 -88 6 -156 l-2 -123 27 -24 c28 -24 30 -24 233 -21 193 2 206 1 220 -17
12 -17 14 -246 14 -1581 l0 -1562 -55 -60 -55 -61 0 -291 0 -291 23 -4 c12 -3
42 -8 67 -11 87 -11 174 -78 226 -175 18 -34 19 -87 19 -1695 l0 -1660 -23
-145 c-31 -200 -61 -439 -112 -895 -6 -55 -18 -152 -26 -215 -9 -63 -22 -171
-29 -240 -7 -69 -22 -188 -34 -265 -11 -77 -29 -225 -41 -330 -30 -270 -39
-332 -60 -381 -23 -54 -91 -120 -150 -148 l-45 -21 -1605 -3 c-1723 -3 -1689
-4 -2030 48 -69 10 -156 22 -195 25 -38 3 -133 15 -210 25 -77 11 -189 24
-249 30 -61 6 -113 13 -116 15 -4 2 -56 9 -116 15 -103 10 -239 26 -579 71
-82 11 -206 26 -275 34 -207 24 -353 45 -383 55 -59 20 -123 78 -158 142 l-34
63 -3 327 -3 327 -542 -2 c-298 -1 -1815 -1 -3372 1 -1556 1 -2835 2 -2841 2
-5 0 -16 -21 -23 -47 -16 -63 -70 -136 -123 -167 -100 -59 -30 -56 -1613 -56
-1355 0 -1453 -1 -1500 -17 -46 -17 -136 -18 -1226 -21 l-1176 -2 -53 -61
c-29 -33 -64 -67 -78 -77 -23 -15 -155 -16 -1607 -20 -1453 -3 -1584 -2 -1599
13 -14 14 -16 45 -16 222 l0 206 -767 -6 c-421 -4 -1021 -7 -1333 -7 l-567 0
-11 -42 c-50 -191 -77 -266 -105 -296 l-21 -22 -745 0 -746 1 -20 -28 c-72
-98 -164 -175 -260 -216 -142 -60 -144 -60 -855 -70 -633 -9 -3347 -12 -4320
-5 -261 2 -1730 -1 -3265 -6 -2976 -9 -2921 -10 -3051 39 -168 63 -278 176
-356 365 l-23 55 -3 1652 c-1 987 1 1674 7 1705 26 148 101 273 222 369 33 27
66 49 73 49 8 0 19 7 26 15 7 8 28 17 49 21 20 4 49 13 65 21 19 10 78 17 171
21 l143 7 -58 50 c-84 73 -154 176 -178 260 -82 287 -84 307 -89 1374 l-5 893
-35 46 c-48 63 -102 182 -124 272 -17 71 -18 162 -19 1746 0 1868 -5 1747 71
1912 68 147 183 278 304 347 28 16 57 34 65 41 15 12 54 27 180 67 64 21 84
21 1365 27 1185 5 1307 7 1380 23 166 36 222 47 299 57 43 5 83 13 89 17 28
17 376 20 2052 18 1360 -1 1800 -4 1833 -13z"/>
<path d="M8485 22390 c-44 -4 -98 -12 -120 -18 -22 -6 -69 -14 -105 -17 -36
-4 -75 -11 -88 -16 -12 -5 -66 -15 -120 -24 -53 -8 -128 -23 -167 -34 -196
-54 -315 -90 -335 -101 -12 -6 -61 -24 -108 -40 -94 -30 -134 -46 -229 -90
-34 -16 -73 -32 -87 -36 -15 -3 -28 -10 -31 -14 -4 -7 -79 -45 -135 -70 -14
-5 -38 -19 -55 -30 -45 -29 -103 -60 -113 -60 -5 0 -31 32 -57 72 -121 182
-253 273 -499 347 -65 20 -94 21 -471 21 -433 0 -405 3 -590 -56 -66 -21 -196
-98 -257 -153 -113 -101 -223 -289 -253 -433 -23 -105 -22 -844 1 -954 20 -95
81 -226 145 -310 l48 -62 -10 -79 c-16 -118 -23 -1295 -10 -1563 15 -290 25
-394 44 -455 9 -28 24 -80 33 -117 9 -37 24 -83 35 -102 25 -47 99 -143 141
-183 36 -35 196 -143 211 -143 9 0 52 -19 133 -57 28 -13 234 -70 337 -92 40
-9 77 -36 77 -56 0 -18 85 -187 149 -295 142 -242 278 -380 596 -605 119 -85
114 -82 362 -232 176 -106 495 -273 598 -312 33 -12 67 -26 76 -31 66 -34 362
-136 464 -160 50 -11 111 -27 136 -35 42 -13 86 -21 259 -46 36 -5 245 -12
465 -15 535 -8 858 11 1027 60 29 9 103 29 163 45 113 29 331 105 465 161 89
37 478 228 500 245 8 7 40 26 70 42 182 99 480 299 660 444 192 154 315 314
461 599 10 19 28 60 39 90 38 94 58 107 240 150 114 27 279 95 376 155 120 75
254 235 286 340 27 91 60 292 73 450 20 225 21 1375 2 1634 l-12 165 52 66
c61 79 128 233 144 331 6 41 9 232 7 500 -3 418 -4 436 -24 484 -12 28 -32 75
-44 105 -72 179 -283 376 -460 429 -185 55 -143 51 -575 51 -437 0 -410 3
-600 -62 -127 -43 -269 -158 -370 -301 -41 -58 -57 -67 -84 -43 -16 13 -41 27
-161 87 -36 17 -72 36 -80 40 -42 22 -244 105 -310 126 -41 14 -102 35 -135
48 -33 13 -96 33 -140 45 -44 12 -100 28 -125 36 -90 29 -268 67 -465 98 -49
8 -110 20 -135 26 -52 15 -1182 23 -1315 10z m865 -640 c36 -5 99 -12 140 -16
41 -4 85 -11 98 -15 13 -5 39 -9 59 -9 20 0 52 -4 72 -10 20 -5 79 -18 131
-30 98 -21 118 -26 210 -53 525 -153 918 -346 1247 -610 196 -157 387 -383
484 -572 28 -55 55 -104 60 -110 5 -5 9 -18 9 -30 0 -12 4 -25 8 -30 23 -26
54 -143 90 -335 22 -123 25 -722 4 -835 -8 -38 -18 -106 -24 -150 -18 -150
-39 -268 -58 -331 -7 -22 -16 -59 -20 -84 -14 -76 -27 -123 -42 -165 -9 -22
-21 -60 -28 -85 -7 -25 -16 -54 -20 -65 -4 -11 -17 -44 -29 -74 -12 -29 -21
-58 -21 -63 0 -9 -70 -163 -91 -201 -5 -10 -23 -43 -40 -74 -111 -205 -203
-292 -614 -581 -68 -48 -224 -144 -322 -198 -226 -126 -379 -202 -528 -264
-44 -18 -100 -41 -125 -51 -37 -15 -195 -67 -335 -109 -41 -13 -175 -40 -255
-53 -79 -12 -501 -14 -585 -3 -113 15 -420 91 -467 117 -10 5 -27 9 -37 9 -11
0 -23 5 -26 10 -3 6 -16 10 -29 10 -12 0 -26 4 -32 8 -5 5 -36 19 -69 32 -150
57 -449 201 -560 270 -16 10 -52 31 -80 46 -27 14 -62 35 -77 45 -14 11 -29
19 -32 19 -4 0 -19 8 -34 19 -15 10 -76 51 -137 91 -60 41 -111 77 -113 82 -2
4 -8 8 -13 8 -11 0 -219 157 -267 202 -128 121 -209 240 -310 458 -59 128
-112 267 -112 295 0 12 -4 25 -8 30 -5 6 -14 30 -21 55 -8 25 -17 56 -21 70
-4 14 -13 50 -19 80 -7 30 -20 91 -31 135 -33 140 -53 268 -85 550 -17 149
-20 503 -4 610 5 39 14 102 19 140 13 110 45 238 80 320 7 17 16 39 20 50 30
84 120 239 210 360 90 122 305 327 465 442 30 21 145 93 233 146 74 43 348
177 364 177 8 0 18 4 23 9 6 5 35 19 65 31 30 12 64 26 75 30 60 25 194 70
208 70 10 0 25 4 35 9 9 5 51 19 92 31 41 11 89 25 105 30 17 4 75 18 130 29
55 12 116 26 136 31 20 6 50 10 66 10 17 0 43 4 59 9 16 5 56 12 89 15 66 6
230 24 285 30 50 6 274 -3 350 -14z m2424 -42 c-4 -13 -10 -36 -15 -53 -4 -16
-12 -43 -18 -60 -20 -58 -41 -134 -41 -150 0 -27 -29 -29 -56 -5 -44 42 -27
103 65 227 47 64 79 84 65 41z m-5259 -155 c38 -79 42 -112 15 -146 -15 -18
-30 -27 -44 -25 -18 3 -23 13 -33 83 -6 44 -19 105 -28 135 -33 106 -31 110
18 57 25 -27 57 -74 72 -104z m-768 61 c60 -28 153 -115 153 -144 0 -9 6 -22
13 -28 8 -9 12 -45 12 -107 0 -62 -4 -98 -12 -106 -21 -21 -15 -75 15 -126 15
-26 42 -79 60 -118 19 -38 38 -78 43 -87 5 -10 9 -26 9 -37 0 -10 6 -34 14
-52 8 -19 22 -76 32 -127 l17 -93 74 7 c61 6 73 4 73 -8 0 -8 -22 -62 -49
-119 -74 -158 -114 -302 -152 -544 -20 -131 -21 -162 -16 -495 7 -352 16 -457
57 -645 5 -27 15 -75 21 -105 6 -30 17 -73 24 -95 38 -116 56 -187 51 -202 -7
-17 -32 -15 -126 7 -25 6 -63 15 -85 20 -120 27 -132 30 -232 71 -93 37 -144
75 -167 124 -47 98 -60 293 -60 880 -1 487 5 666 25 753 27 122 33 136 78 179
24 24 51 43 58 43 7 0 21 4 31 10 9 5 60 24 112 43 l95 34 -3 49 c-2 27 -8 53
-13 59 -5 5 -9 28 -9 51 0 24 -4 46 -10 49 -5 3 -10 14 -10 24 0 9 -11 39 -24
67 -13 27 -32 67 -42 89 -10 22 -29 57 -42 77 -21 33 -27 36 -49 27 -46 -17
-165 -11 -201 11 -18 11 -37 20 -43 20 -20 0 -96 81 -120 127 -20 40 -24 60
-23 143 0 93 1 97 37 151 45 68 58 80 127 117 77 42 173 44 257 6z m6925 -6
c112 -59 168 -141 176 -256 9 -121 -60 -237 -174 -292 -64 -30 -72 -32 -162
-29 l-95 4 -46 -90 c-75 -147 -100 -225 -108 -335 l-4 -65 93 -33 c174 -62
218 -90 248 -155 19 -44 24 -69 39 -207 60 -543 57 -912 -15 -1450 -12 -92
-62 -163 -139 -195 -129 -56 -202 -78 -340 -105 -33 -7 -73 -16 -89 -21 -95
-29 -101 -7 -41 161 14 37 36 128 54 220 6 30 18 91 27 135 23 113 34 245 41
515 7 292 -9 505 -53 690 -9 36 -19 83 -24 105 -16 78 -67 212 -116 306 -41
79 -30 93 63 83 65 -8 73 -1 73 70 0 26 7 71 16 100 9 28 21 67 26 86 15 54
70 181 97 225 53 84 61 109 43 131 -5 5 -15 35 -22 66 -14 60 -5 138 23 198
14 33 108 130 124 130 7 0 27 9 45 20 25 15 51 20 107 20 63 0 81 -4 133 -32z"/>
<path d="M7240 19933 c-70 -31 -95 -41 -115 -48 -94 -30 -286 -181 -319 -251
-11 -22 -22 -46 -26 -54 -4 -9 -13 -64 -20 -122 l-13 -107 26 -44 c65 -111
179 -219 262 -248 49 -17 59 -18 88 -6 35 15 125 112 228 246 35 46 82 106
104 135 56 72 165 167 221 193 74 34 142 38 256 18 55 -10 101 -22 104 -27 3
-4 15 -8 28 -8 27 0 179 -59 258 -101 57 -29 71 -25 119 38 87 114 215 207
374 273 27 12 63 19 180 37 84 14 117 14 208 4 59 -6 117 -15 130 -20 12 -5
42 -15 67 -22 118 -35 293 -162 373 -271 16 -21 36 -38 46 -38 15 0 154 53
236 90 54 24 207 53 285 54 77 1 92 -2 150 -31 93 -46 188 -140 320 -318 90
-121 160 -201 208 -238 43 -33 75 -31 154 9 97 49 161 132 261 338 14 28 9
148 -7 187 -48 115 -187 222 -408 313 l-87 36 -1828 -1 c-1626 0 -1832 -2
-1863 -16z"/>
<path d="M8969 19451 c-45 -17 -119 -64 -167 -106 -41 -34 -89 -114 -112 -185
-20 -59 -20 -220 0 -282 24 -78 97 -177 165 -224 101 -68 149 -84 263 -84 104
0 161 15 242 66 59 36 139 129 172 201 30 64 32 75 32 183 0 107 -2 119 -31
181 -52 110 -203 249 -272 249 -11 0 -23 5 -26 10 -11 18 -214 10 -266 -9z"/>
<path d="M7725 19348 c-37 -34 -78 -79 -91 -98 -32 -48 -147 -195 -213 -271
-63 -74 -174 -159 -231 -177 -84 -26 -174 -12 -305 48 -22 10 -44 15 -49 10
-8 -8 3 -52 29 -115 7 -16 16 -41 20 -54 7 -24 70 -157 102 -216 28 -53 96
-149 118 -167 11 -10 30 -17 42 -18 12 0 24 -4 27 -9 3 -5 20 -11 38 -14 18
-4 74 -16 123 -27 50 -12 131 -25 180 -30 50 -6 124 -14 165 -20 372 -49 1202
-77 1801 -60 541 14 801 29 1054 61 50 6 126 15 170 19 119 13 269 45 330 70
11 5 32 11 46 14 49 11 145 159 236 366 24 54 73 203 73 222 0 28 -15 29 -51
2 -72 -53 -191 -94 -275 -94 -134 0 -255 91 -436 330 -197 259 -237 297 -307
287 -77 -12 -129 -25 -196 -51 -38 -16 -92 -37 -120 -47 -80 -32 -88 -41 -76
-86 35 -135 38 -210 12 -338 -6 -27 -13 -65 -17 -83 -3 -18 -10 -35 -15 -38
-5 -3 -9 -14 -9 -25 0 -57 -153 -281 -237 -347 -101 -78 -150 -107 -263 -153
-142 -57 -387 -63 -545 -12 -120 39 -259 121 -340 200 -141 139 -238 341 -249
523 -4 52 -2 139 3 193 10 104 8 127 -15 127 -7 0 -42 14 -76 30 -34 17 -69
30 -78 30 -9 0 -20 3 -23 7 -20 19 -164 62 -238 70 -46 5 -48 4 -114 -59z"/>
<path d="M34298 21412 c-409 -410 -457 -461 -464 -496 -4 -22 -4 -139 -1 -260
3 -125 1 -230 -4 -244 -12 -31 -148 -182 -164 -182 -7 0 -73 63 -147 139 -74
77 -146 143 -159 146 -13 3 -163 5 -332 3 l-309 -3 -34 -37 c-19 -21 -37 -38
-40 -38 -3 0 -15 12 -27 26 -40 51 -61 54 -394 54 l-308 0 -143 -147 -143
-148 -132 136 c-73 76 -142 142 -154 148 -14 7 -126 11 -331 11 l-309 0 -34
-28 c-38 -31 -258 -255 -311 -316 -62 -72 -481 -496 -490 -496 -5 0 -8 67 -6
148 3 147 3 149 -23 183 -15 19 -129 139 -254 267 l-227 232 -215 0 -216 0 7
328 c4 207 3 340 -4 362 -7 26 -58 83 -198 223 l-188 187 -324 0 -324 0 -185
-185 -186 -185 3 -317 c3 -266 6 -322 19 -342 9 -14 56 -63 105 -110 49 -46
100 -103 114 -127 23 -40 24 -48 22 -180 l-3 -139 -151 155 c-83 85 -189 194
-235 243 l-85 87 -324 0 -325 0 -163 -167 c-89 -93 -178 -192 -197 -220 -19
-29 -39 -53 -45 -53 -6 0 -53 -44 -105 -97 l-95 -98 1 105 c0 58 4 197 8 310
5 122 5 212 -1 223 -8 15 -29 17 -223 17 -275 0 -255 -16 -255 194 0 85 -3
161 -6 170 -5 14 -44 16 -329 16 l-322 0 -254 -262 c-139 -145 -301 -313 -359
-374 -58 -61 -112 -112 -120 -113 -8 -1 -90 76 -181 171 l-166 173 -219 5
-219 5 3 340 c2 264 0 345 -10 362 -7 12 -95 105 -195 207 l-182 186 -328 0
-328 0 -185 -186 -185 -186 3 -306 c2 -176 7 -318 13 -333 6 -15 57 -70 113
-122 98 -91 136 -142 136 -183 0 -13 -39 20 -115 96 l-115 115 -198 7 c-108 3
-255 7 -326 7 l-130 1 -80 -82 c-45 -46 -218 -224 -386 -397 -168 -173 -333
-343 -367 -377 -35 -34 -67 -74 -73 -89 -6 -17 -10 -322 -10 -847 0 -815 0
-821 -20 -803 -43 39 -43 40 -38 1070 4 675 3 987 -4 1000 -13 23 -77 92 -319
343 l-177 182 -319 0 c-231 -1 -324 -4 -339 -13 -11 -7 -96 -91 -190 -187 -93
-95 -291 -297 -440 -446 -207 -207 -275 -281 -284 -310 -10 -31 -12 -190 -6
-751 l7 -713 -220 0 -219 0 -13 37 c-9 29 -10 152 -5 528 11 828 9 2731 -2
2752 -6 10 -100 107 -209 215 l-198 198 -320 0 -320 0 -156 -160 c-85 -88
-161 -160 -167 -160 -7 0 -81 71 -165 157 l-153 156 -311 5 c-186 3 -317 1
-327 -5 -34 -19 -826 -817 -826 -832 0 -9 -1 -157 -2 -328 l-3 -313 55 -56 55
-56 296 7 297 6 -6 -1608 c-3 -884 -2 -1630 2 -1658 7 -47 15 -57 134 -178
l126 -127 331 0 330 0 100 103 c55 57 112 118 128 136 l27 33 0 754 c0 632 2
759 14 782 20 38 82 96 95 88 8 -5 11 -204 11 -669 0 -600 2 -665 17 -687 18
-28 124 -140 356 -377 l159 -163 324 0 324 0 104 108 c57 59 165 170 239 247
l135 140 153 -160 c85 -88 191 -198 236 -245 l82 -85 328 3 328 4 35 34 c20
19 40 34 45 34 5 0 26 -16 46 -36 l37 -36 323 1 324 1 166 169 167 170 167
-174 168 -175 309 0 c248 0 314 3 337 14 15 8 94 86 176 173 223 236 448 463
460 463 7 0 9 -60 7 -183 -3 -150 -1 -189 11 -213 8 -16 63 -78 121 -137 l106
-108 324 3 325 3 40 39 40 39 41 -36 c22 -21 46 -37 53 -37 6 0 147 -3 313 -6
259 -6 304 -4 330 9 16 8 76 63 132 121 87 90 102 111 102 139 0 17 2 331 5
697 3 366 2 886 -2 1156 l-8 492 -33 41 -33 41 120 0 c132 0 165 -9 179 -49 5
-15 7 -522 4 -1182 -3 -636 -1 -1174 2 -1195 6 -29 28 -59 104 -138 155 -162
106 -146 457 -146 267 0 304 2 332 18 17 9 89 78 159 152 71 74 168 175 215
224 l87 90 149 -154 c82 -85 180 -188 218 -228 39 -41 82 -80 97 -88 34 -18
612 -21 650 -3 24 11 290 282 353 360 19 24 38 47 43 50 4 3 114 111 245 240
l237 233 0 -181 0 -181 40 -49 c21 -26 133 -145 248 -263 l210 -215 331 0 331
0 146 145 c80 80 168 175 196 213 28 37 55 67 59 67 5 0 100 92 211 205 110
113 203 203 205 201 2 -2 5 -68 6 -148 2 -140 3 -146 29 -184 15 -21 130 -144
255 -272 l228 -233 328 3 328 3 82 86 c45 47 208 216 363 375 154 159 285 298
291 309 6 13 10 136 8 338 l-1 318 -37 37 -37 37 -307 3 c-310 3 -354 -1 -367
-34 -3 -8 -10 -14 -16 -14 -11 0 -13 274 -2 302 6 15 778 798 828 841 21 17
22 17 39 -9 17 -26 18 -94 18 -1178 l-1 -1151 24 -35 c13 -19 68 -79 122 -132
l98 -98 328 0 327 0 111 108 c151 147 152 148 144 339 -4 107 -9 1749 -6 2001
0 9 49 12 212 12 l211 0 122 120 121 120 90 0 c80 0 93 -3 110 -21 22 -25 20
128 16 -1382 -3 -973 -2 -1040 14 -1065 10 -15 63 -73 120 -129 l102 -103 324
0 c321 0 324 0 354 23 32 23 167 162 205 211 l23 29 -3 1207 c-2 1059 -1 1211
12 1236 9 16 40 56 70 89 l55 60 -1 -1160 c-2 -1155 -2 -1161 18 -1186 12 -15
125 -134 253 -265 l232 -239 322 -3 322 -3 105 108 c59 60 157 163 220 228
225 237 406 420 410 415 3 -3 4 -85 2 -182 -3 -200 -2 -204 78 -283 23 -21 41
-42 41 -46 0 -4 -13 -12 -29 -18 -80 -34 -132 -134 -156 -301 -9 -63 -22 -151
-30 -195 -19 -110 -105 -829 -126 -1055 -5 -58 -14 -132 -19 -165 -5 -33 -14
-112 -20 -175 -6 -63 -16 -134 -21 -157 -5 -23 -16 -106 -24 -185 -8 -79 -25
-197 -36 -263 -18 -103 -22 -175 -26 -503 l-5 -382 27 -55 c29 -59 68 -103
125 -141 29 -19 70 -29 201 -48 90 -13 193 -27 229 -30 36 -3 126 -15 200 -26
74 -10 178 -23 230 -29 113 -11 312 -36 465 -57 61 -8 169 -21 240 -30 205
-23 520 -62 640 -78 313 -43 362 -46 707 -46 322 0 348 1 406 21 49 16 72 32
111 75 59 64 86 130 95 234 4 41 16 143 26 225 10 83 21 182 25 220 4 39 13
104 21 145 8 41 19 129 24 195 6 66 17 158 25 205 7 47 16 123 20 170 4 47 12
123 20 170 7 47 16 121 20 165 3 44 11 108 16 142 11 75 64 487 85 663 11 94
14 213 12 475 -3 388 -1 371 -74 461 -70 87 -144 109 -459 134 -195 16 -388
44 -392 56 -2 6 129 142 292 301 l295 290 0 324 0 325 -48 47 -48 47 -147 0
-147 0 0 634 c0 418 4 644 10 663 6 15 120 137 252 270 l242 242 3 325 3 326
-27 6 c-14 4 -114 4 -222 1 -215 -6 -244 0 -253 48 -3 14 -3 86 0 159 3 91 1
139 -7 154 l-12 22 -302 -5 c-166 -3 -311 -5 -322 -5 -13 0 -57 -39 -120 -105
-55 -58 -190 -199 -299 -313 l-200 -207 -111 113 -110 112 -327 0 -327 0 -94
-97 c-52 -54 -129 -136 -173 -183 -159 -170 -298 -310 -303 -305 -3 3 -4 21
-3 40 2 31 -9 47 -139 187 -78 84 -188 199 -243 256 l-101 102 -324 0 -325 0
-70 -72 c-155 -159 -263 -276 -296 -321 -18 -26 -39 -47 -45 -47 -7 0 -43 -34
-80 -75 -37 -41 -71 -75 -76 -75 -6 0 -9 115 -9 287 1 194 -2 289 -9 291 -6 2
-11 9 -11 15 0 7 79 89 175 182 l174 170 1 319 1 319 -183 184 -182 183 -331
0 -330 0 -457 -458z m824 141 c18 -15 104 -97 191 -183 140 -138 157 -159 157
-188 0 -30 -17 -51 -142 -180 -79 -80 -150 -153 -158 -161 -38 -39 -75 -61
-104 -61 -26 0 -51 21 -181 155 -139 144 -174 171 -190 145 -11 -17 -5 -781 6
-801 9 -18 24 -19 235 -19 136 0 233 -4 245 -10 47 -26 28 -51 -227 -302 -135
-134 -250 -251 -255 -261 -6 -11 -12 -468 -15 -1225 -4 -1087 -7 -1209 -21
-1232 -21 -32 -211 -215 -240 -231 -38 -20 -68 -2 -181 111 -82 81 -114 121
-122 148 -6 24 -10 430 -10 1198 0 1160 0 1161 -21 1188 l-20 26 -159 0 c-170
0 -194 7 -183 50 3 11 84 98 180 193 97 94 182 186 189 204 11 24 14 89 14
263 0 173 3 239 14 263 15 35 888 914 921 928 32 13 42 11 77 -18z m-17895
-82 c43 -37 137 -129 210 -204 101 -105 133 -144 137 -169 3 -18 7 -753 9
-1633 2 -1472 4 -1602 19 -1630 28 -50 224 -235 249 -235 15 0 59 36 133 109
130 128 140 134 181 116 38 -16 100 -81 115 -119 11 -29 8 -32 -317 -358 -180
-181 -343 -338 -361 -350 -26 -16 -38 -18 -55 -11 -32 15 -188 165 -381 367
-164 171 -170 179 -176 227 -4 27 -4 444 0 927 4 482 4 888 0 902 -16 63 -28
53 -538 -472 l-152 -156 0 -757 c0 -635 -2 -760 -14 -783 -14 -26 -91 -104
-203 -205 -78 -70 -84 -68 -220 70 -63 65 -121 130 -129 144 -12 23 -14 279
-16 1631 -1 882 -4 1676 -6 1766 l-3 163 -53 55 c-35 36 -60 54 -76 54 -18 0
-72 -48 -210 -185 -220 -219 -217 -217 -299 -131 -76 81 -74 85 72 234 185
188 676 675 690 684 36 23 60 6 235 -162 97 -94 190 -187 205 -208 l29 -37 -3
-810 c-2 -445 0 -816 4 -822 6 -10 14 -10 37 2 32 16 618 603 637 638 19 33
18 646 -1 690 -7 18 -68 84 -134 148 -75 72 -123 126 -128 143 -6 26 4 39 117
153 144 145 294 283 309 283 5 0 45 -31 87 -69z m5669 -338 c98 -98 185 -191
196 -208 17 -28 18 -61 18 -512 0 -265 3 -488 6 -497 3 -9 13 -16 22 -16 8 0
90 74 182 165 101 100 174 165 186 165 10 -1 29 -6 41 -13 39 -21 363 -349
369 -373 3 -12 1 -33 -6 -46 -6 -12 -87 -97 -181 -188 -128 -125 -169 -171
-169 -190 0 -18 42 -67 171 -195 94 -94 176 -180 182 -190 8 -14 12 -274 13
-895 2 -828 1 -876 -16 -910 -23 -45 -222 -238 -254 -246 -13 -3 -36 1 -52 9
-42 22 -211 198 -228 237 -11 27 -12 154 -8 754 4 637 3 725 -11 751 -23 46
-204 217 -225 213 -16 -3 -17 -56 -19 -833 -1 -457 -2 -840 -3 -852 0 -47
-240 -283 -287 -283 -20 0 -54 27 -145 118 -66 64 -124 126 -130 136 -7 13
-10 554 -9 1697 2 1459 0 1682 -13 1706 -8 15 -64 79 -125 141 -79 80 -111
119 -111 136 0 18 47 71 188 210 150 149 192 186 214 186 23 0 61 -33 204
-177z m5517 0 c98 -98 186 -191 195 -208 15 -26 17 -86 20 -510 4 -466 6 -505
34 -505 6 0 81 70 167 155 141 139 161 155 191 155 31 0 56 -21 278 -242 134
-134 249 -254 256 -268 10 -20 15 -213 20 -887 6 -757 5 -865 -8 -897 -10 -24
-144 -165 -393 -414 -510 -509 -524 -522 -565 -522 -29 0 -58 26 -285 253
-203 201 -256 259 -264 289 -6 24 -9 570 -9 1562 1 1322 -1 1528 -13 1553 -8
15 -58 71 -109 123 -96 97 -118 125 -118 156 0 9 53 69 118 133 204 201 260
251 283 251 16 0 77 -54 202 -177z m-11716 -611 c23 -39 25 -48 15 -80 -7 -22
-33 -58 -62 -87 l-50 -49 0 164 0 164 36 -35 c20 -18 47 -53 61 -77z m8584 58
c4 -14 7 -84 8 -157 1 -183 -13 -173 268 -173 117 1 218 -2 223 -5 6 -3 10
-19 10 -34 0 -23 -42 -70 -239 -267 -198 -198 -241 -246 -250 -279 -15 -55
-15 -1998 -1 -2026 6 -10 18 -19 27 -19 8 0 52 35 97 79 121 117 125 118 207
36 82 -82 95 -61 -270 -426 -196 -195 -329 -321 -345 -325 -17 -4 -35 0 -54
11 -42 28 -212 197 -230 230 -16 27 -17 135 -22 1217 -5 1125 -6 1188 -23
1205 -16 16 -34 18 -153 15 -75 -2 -149 0 -165 3 -35 8 -54 37 -40 63 8 16
161 168 683 681 181 178 209 202 234 199 20 -2 30 -10 35 -28z m14270 -5 c4
-16 7 -89 8 -161 1 -111 4 -133 19 -147 14 -12 54 -16 229 -19 187 -3 214 -5
230 -21 16 -15 16 -20 3 -41 -8 -13 -111 -122 -229 -242 -117 -120 -223 -231
-235 -247 l-21 -29 2 -1015 c2 -751 5 -1019 14 -1029 6 -8 18 -14 25 -14 8 0
57 41 108 90 52 50 102 90 111 90 9 0 41 -23 71 -51 80 -77 78 -86 -53 -222
-335 -346 -519 -528 -540 -533 -13 -4 -33 -4 -45 0 -23 5 -225 197 -253 240
-14 21 -16 159 -15 1213 0 1018 -2 1192 -14 1208 -13 18 -27 20 -178 20 -90 0
-169 4 -175 8 -7 5 -13 20 -13 35 0 22 73 99 421 442 232 228 436 425 453 438
41 30 69 25 77 -13z m-17814 -348 c37 -21 353 -328 369 -359 9 -16 12 -38 8
-51 -13 -46 -380 -397 -414 -397 -13 0 -79 58 -186 165 -94 93 -171 162 -178
159 -18 -7 -26 -400 -26 -1241 0 -542 3 -670 14 -696 7 -18 58 -76 113 -129
79 -77 106 -98 128 -98 24 0 60 31 202 173 207 206 207 206 289 124 92 -92
113 -61 -322 -491 -207 -204 -388 -379 -403 -388 -14 -10 -35 -18 -47 -18 -21
0 -258 225 -448 427 l-96 102 0 898 0 898 468 467 c306 306 474 468 487 468
11 -1 30 -6 42 -13z m11339 -6 c16 -10 107 -94 202 -187 147 -144 172 -173
172 -199 0 -26 -27 -57 -189 -217 -156 -155 -193 -188 -217 -188 -23 0 -57 29
-189 160 -89 88 -169 160 -178 160 -9 0 -19 -10 -22 -22 -3 -13 -7 -572 -8
-1243 -2 -1176 -3 -1222 -21 -1250 -31 -49 -223 -234 -250 -241 -35 -9 -59 8
-178 124 -85 83 -111 114 -119 146 -8 29 -11 254 -8 786 2 410 3 915 1 1123
l-2 378 -125 129 c-100 102 -125 134 -125 156 -1 24 29 58 181 207 100 97 193
180 206 183 13 4 36 1 51 -5 15 -6 101 -86 191 -176 104 -105 170 -165 183
-165 13 0 85 64 197 174 154 152 188 182 211 185 3 1 19 -7 36 -18z m-5799
-254 l263 -262 3 -770 c3 -1070 4 -996 -21 -1036 -11 -19 -117 -127 -234 -240
-117 -113 -314 -308 -437 -432 -123 -124 -236 -231 -252 -237 -24 -10 -33 -10
-55 5 -14 9 -129 118 -255 242 -148 146 -235 240 -249 267 -20 42 -20 58 -20
904 0 575 3 870 10 889 12 31 892 910 925 924 11 4 29 8 39 8 13 1 113 -92
283 -262z m3770 250 c39 -22 493 -479 499 -503 3 -12 0 -33 -7 -46 -7 -12
-208 -218 -448 -457 -240 -238 -444 -445 -453 -460 -16 -24 -18 -65 -18 -480
0 -529 -13 -470 133 -606 66 -62 98 -85 117 -85 21 0 64 38 201 175 206 206
202 205 286 122 90 -91 94 -82 -177 -347 -126 -124 -301 -296 -389 -382 -147
-146 -162 -158 -196 -158 -34 0 -51 15 -290 253 -209 209 -255 261 -264 293
-13 51 -6 1736 8 1761 13 26 897 905 924 920 28 16 46 16 74 0z m5426 -94
c258 -251 385 -379 397 -401 6 -13 9 -34 6 -45 -3 -12 -208 -224 -456 -471
-248 -246 -456 -459 -461 -473 -5 -14 -9 -217 -9 -465 0 -380 2 -444 16 -473
9 -19 58 -74 109 -124 72 -69 101 -91 121 -91 22 0 61 34 200 172 95 95 182
176 193 180 31 11 61 -4 108 -55 76 -82 67 -114 -60 -232 -39 -37 -202 -196
-362 -353 -159 -156 -300 -291 -312 -299 -15 -10 -33 -13 -50 -8 -34 8 -505
474 -528 521 -13 28 -15 147 -15 912 l0 880 44 54 c24 29 63 70 87 92 24 21
213 206 420 412 341 339 379 374 409 374 28 0 48 -15 143 -107z m1613 94 c12
-7 101 -89 198 -183 161 -156 176 -174 176 -205 0 -32 -17 -52 -188 -222 -170
-168 -192 -187 -222 -187 -30 0 -50 17 -192 158 -199 196 -188 200 -188 -78
l0 -197 28 -39 c16 -21 194 -202 395 -401 201 -198 373 -375 381 -392 14 -25
16 -78 16 -346 0 -214 -4 -323 -11 -338 -20 -39 -773 -788 -807 -803 -28 -13
-36 -13 -61 1 -38 19 -348 321 -367 356 -31 61 -25 71 154 251 173 175 213
208 252 208 17 0 69 -45 180 -155 86 -85 163 -155 172 -155 8 0 18 10 22 23 3
12 6 132 6 267 -1 187 -4 251 -14 270 -8 13 -185 195 -394 405 -322 322 -382
386 -391 420 -17 61 -14 517 3 558 13 32 737 761 779 784 28 15 46 16 73 0z
m-18236 -236 c132 -128 250 -250 262 -270 l23 -36 -3 -981 c-2 -693 0 -989 8
-1010 6 -16 62 -81 125 -144 62 -63 116 -125 120 -137 10 -36 -16 -71 -182
-234 -167 -165 -196 -189 -227 -189 -12 0 -91 71 -201 180 -102 101 -190 180
-200 180 -10 0 -98 -79 -200 -180 -100 -99 -187 -180 -193 -180 -6 0 -23 5
-37 10 -29 11 -486 467 -516 515 -18 29 -19 65 -19 880 0 564 4 863 11 888 8
31 76 104 362 390 526 527 561 559 597 555 24 -2 80 -52 270 -237z m5912
-1153 c-2 -525 -6 -756 -14 -765 -14 -18 -168 -18 -167 0 0 6 -3 296 -6 644
-5 553 -4 637 10 669 8 20 52 74 97 120 45 46 82 84 82 84 1 0 0 -338 -2 -752z
m12932 541 l26 -20 0 -271 c0 -173 -4 -268 -10 -266 -5 2 -84 76 -174 165
l-164 163 126 125 c81 79 135 125 148 125 12 0 33 -9 48 -21z m-16424 -588 l0
-590 -304 -3 c-283 -3 -305 -4 -325 -22 -12 -11 -24 -17 -27 -13 -3 3 -5 218
-5 479 1 260 1 481 1 490 0 15 20 17 209 20 l208 3 119 112 c65 62 120 112
122 113 1 0 2 -265 2 -589z m14739 -257 c18 -21 133 -138 255 -259 l221 -220
-77 -5 -78 -5 -160 -160 -160 -160 0 196 0 197 -40 36 -40 36 -318 0 c-306 0
-320 -1 -337 -20 -10 -11 -22 -20 -27 -20 -13 0 -9 260 5 297 7 20 147 170
362 389 l350 356 5 -309 5 -310 34 -39z m1769 -1636 c56 -58 55 -71 -5 -63
-27 3 -95 12 -153 20 -58 8 -168 22 -245 31 -211 26 -200 18 -128 95 72 78 97
114 88 129 -3 5 -3 19 0 30 5 15 15 20 40 20 30 0 52 17 192 150 l158 149 5
-259 5 -259 43 -43z m-1043 -232 c72 -9 193 -25 270 -36 77 -11 217 -29 310
-40 94 -12 240 -29 325 -39 85 -11 182 -24 215 -29 33 -6 94 -14 135 -17 41
-4 113 -13 160 -20 47 -8 117 -17 155 -20 39 -4 129 -15 200 -25 72 -11 195
-26 275 -35 272 -30 340 -52 409 -130 76 -87 92 -170 67 -350 -37 -279 -47
-353 -71 -545 -13 -113 -29 -243 -34 -290 -25 -223 -52 -446 -56 -460 -2 -8
-11 -85 -20 -170 -9 -85 -20 -174 -26 -197 -8 -39 -19 -129 -70 -557 -22 -188
-38 -238 -97 -299 -88 -91 -147 -105 -349 -82 -81 9 -190 23 -242 31 -51 8
-166 23 -255 34 -88 10 -215 25 -281 34 -66 8 -203 25 -305 36 -102 12 -248
30 -325 40 -77 10 -171 22 -210 25 -38 4 -115 13 -170 21 -55 8 -158 21 -230
30 -406 46 -449 57 -518 133 -70 77 -82 113 -81 236 0 61 8 160 17 220 10 61
24 175 32 255 16 167 36 335 65 570 12 91 30 237 41 325 11 88 29 223 39 300
31 226 70 539 85 686 9 85 23 159 36 195 28 73 96 142 170 172 63 25 126 25
334 -2z"/>
<path d="M23115 19738 c-3 -13 -4 -165 -3 -338 3 -302 4 -315 22 -318 14 -3
61 38 171 150 83 84 154 163 157 176 8 30 -26 73 -174 218 -132 130 -163 151
-173 112z"/>
<path d="M28635 19730 c-3 -5 -5 -435 -5 -955 0 -763 3 -953 14 -978 14 -35
313 -327 334 -327 7 0 17 12 22 26 6 16 10 378 10 963 l0 938 -32 41 c-51 63
-305 302 -322 302 -8 0 -17 -4 -21 -10z"/>
<path d="M26605 19708 c-3 -13 -4 -449 -3 -970 l3 -948 150 -151 c83 -82 158
-155 168 -160 48 -27 47 -54 47 966 l0 952 -32 41 c-51 63 -296 292 -312 292
-9 0 -18 -10 -21 -22z"/>
<path d="M30625 19727 c-3 -7 -4 -147 -3 -312 3 -281 4 -300 21 -303 13 -3 63
41 163 139 79 79 146 151 150 161 3 9 1 26 -5 36 -10 19 -260 269 -284 284
-18 12 -37 10 -42 -5z"/>
<path d="M35956 19678 c-3 -29 -6 -164 -6 -299 0 -320 -4 -314 120 -194 119
116 210 221 210 243 0 21 -282 302 -303 302 -10 0 -16 -16 -21 -52z"/>
<path d="M19176 19748 c-10 -40 -7 -1904 4 -1933 11 -28 298 -314 332 -330 49
-22 48 -40 48 954 0 579 -4 939 -10 962 -7 26 -52 77 -179 202 -92 92 -173
167 -179 167 -5 0 -12 -10 -16 -22z"/>
<path d="M37559 15654 c-23 -26 -26 -42 -39 -174 -11 -126 -42 -384 -65 -550
-8 -58 -20 -153 -26 -212 -18 -162 -11 -167 220 -188 196 -18 264 0 345 90 54
60 74 116 91 256 8 68 22 181 32 252 32 250 19 334 -65 419 -78 77 -160 103
-382 119 -85 6 -97 4 -111 -12z m339 -240 c54 -36 62 -99 37 -316 -31 -263
-45 -318 -92 -352 -28 -21 -106 -32 -147 -22 -51 13 -56 36 -41 193 8 77 18
167 24 200 6 32 15 103 21 157 14 135 18 146 52 161 35 14 108 4 146 -21z"/>
<path d="M38395 15563 c-35 -9 -77 -45 -90 -77 -8 -18 -21 -99 -30 -181 -8
-83 -24 -217 -35 -300 -51 -399 -54 -432 -40 -464 17 -41 62 -78 108 -89 20
-5 112 -19 204 -32 156 -21 169 -22 192 -7 38 25 58 115 36 157 -13 24 -57 36
-195 52 -143 16 -149 22 -140 126 12 151 16 156 132 150 73 -3 76 -2 97 25 14
19 21 43 21 72 0 62 -24 84 -106 95 -85 12 -101 31 -93 109 9 84 22 126 44
146 20 18 25 18 154 1 73 -10 143 -15 156 -11 28 9 50 61 50 119 0 40 -4 47
-28 60 -47 24 -385 62 -437 49z"/>
<path d="M39020 15485 c-20 -24 -17 -94 8 -247 21 -124 52 -348 71 -513 14
-114 36 -242 49 -276 14 -37 60 -87 94 -105 36 -18 78 -13 126 16 33 20 90
101 110 155 26 73 166 426 232 585 89 216 100 249 89 276 -16 44 -154 62 -186
24 -9 -10 -38 -72 -63 -137 -26 -65 -77 -196 -115 -292 -96 -245 -123 -264
-145 -103 -6 48 -18 132 -26 187 -7 55 -18 145 -24 200 -5 55 -15 124 -21 153
-9 47 -15 55 -44 68 -19 7 -58 16 -87 20 -44 5 -56 3 -68 -11z"/>
<path d="M23085 16170 c-182 -29 -395 -156 -513 -305 -53 -67 -138 -236 -156
-310 -18 -76 -20 -103 -18 -473 l2 -304 32 -29 31 -30 -6 -243 c-7 -296 -10
-286 96 -286 40 0 77 -4 84 -8 7 -4 12 -48 15 -115 3 -94 6 -111 22 -123 16
-11 73 -14 291 -14 l271 0 15 -32 14 -33 363 -3 c419 -3 438 0 599 78 179 88
336 260 408 449 57 150 65 224 65 626 0 314 -2 372 -20 477 -57 334 -281 579
-606 663 -96 25 -98 25 -518 24 -231 -1 -443 -5 -471 -9z m610 -270 c338 -49
613 -305 706 -655 34 -131 34 -305 -3 -430 -55 -193 -124 -302 -281 -443 -144
-130 -334 -212 -492 -212 -97 0 -99 4 -103 162 -2 73 -8 139 -14 145 -15 19
-238 18 -262 0 -15 -11 -20 -33 -25 -111 -8 -125 -18 -136 -126 -136 -150 0
-165 13 -173 150 -2 49 -10 94 -16 99 -6 5 -44 11 -85 13 -94 5 -101 13 -101
127 0 47 4 91 8 98 20 31 154 45 206 21 30 -13 46 -59 46 -128 0 -66 9 -74 88
-78 61 -4 73 -1 91 17 19 19 21 32 21 149 1 178 5 182 197 182 144 0 164 -7
182 -63 6 -18 10 -80 9 -137 -2 -58 1 -111 6 -119 6 -10 25 -12 72 -8 83 6
154 47 249 142 61 60 76 82 105 155 30 76 33 95 33 185 1 144 -35 249 -117
342 -219 249 -630 210 -808 -77 -23 -38 -68 -154 -68 -177 0 -34 -21 -83 -40
-93 -10 -6 -81 -10 -158 -10 -172 0 -185 6 -184 91 2 135 81 337 186 475 122
161 344 296 529 323 87 12 239 13 322 1z m-105 -752 c16 -11 27 -25 24 -30 -7
-11 -124 -10 -124 1 0 11 49 51 62 51 5 0 22 -10 38 -22z"/>
<path d="M20602 15900 c-58 -26 -74 -46 -132 -165 l-49 -100 -1 117 c0 64 -4
119 -9 122 -5 3 -150 9 -323 12 l-314 7 -23 -24 c-35 -37 -115 -203 -151 -314
-27 -85 -38 -106 -74 -137 l-41 -38 -117 0 c-65 0 -118 3 -119 8 0 4 -3 48 -5
97 -7 167 -9 184 -19 194 -11 11 -621 18 -645 7 -8 -3 -32 -31 -53 -61 l-38
-55 -143 0 c-184 0 -182 1 -178 -141 l4 -99 -104 0 -103 0 -27 32 -27 33 -320
3 c-270 2 -325 0 -357 -13 -48 -20 -189 -20 -237 0 -30 12 -94 15 -350 15
l-314 0 -60 -30 -61 -30 -213 2 -214 3 0 72 c0 51 -4 76 -15 87 -21 20 -628
28 -652 8 -9 -7 -39 -58 -68 -115 -72 -142 -136 -248 -208 -345 l-62 -84 0
-303 c0 -167 3 -310 6 -319 4 -10 18 -16 41 -16 l34 0 -1 -232 c-1 -128 -1
-245 -1 -259 1 -14 10 -35 21 -47 21 -22 25 -22 334 -22 311 0 313 0 333 23
29 31 71 161 108 328 14 66 55 169 67 169 4 0 8 -18 8 -39 0 -73 -8 -71 353
-71 303 0 325 1 360 20 52 28 207 30 207 2 0 -10 7 -28 16 -40 15 -22 16 -22
344 -22 l328 0 51 40 c41 32 59 40 92 40 24 0 50 -7 60 -15 14 -14 62 -16 344
-16 352 1 343 0 395 55 36 37 50 33 50 -13 0 -23 8 -48 19 -62 l19 -24 335 -3
334 -3 53 40 c41 31 57 38 71 31 10 -6 153 -10 334 -10 355 0 356 0 420 71
l35 39 163 -2 162 -3 6 -40 c6 -43 20 -74 45 -99 13 -14 52 -16 281 -16 l265
0 -6 -92 c-17 -267 -18 -315 -7 -337 l12 -22 336 3 335 3 63 67 c59 62 90 108
200 298 28 48 88 118 195 227 l154 158 -3 305 c-1 167 -5 308 -7 312 -3 4 -36
8 -75 8 l-69 0 0 83 c0 127 24 120 -346 109 -170 -4 -317 -12 -328 -17 -18 -8
-18 1 -11 309 7 295 6 318 -10 336 -17 19 -33 20 -339 20 -297 0 -324 -2 -364
-20z m399 -269 c21 -17 24 -27 23 -83 -2 -73 -67 -278 -116 -368 -17 -30 -54
-98 -82 -150 -28 -52 -68 -122 -89 -156 -43 -69 -58 -144 -37 -194 20 -48 40
-38 40 18 0 40 7 60 38 108 46 69 65 88 112 107 43 18 95 6 111 -25 7 -13 9
-43 6 -75 -8 -77 11 -71 118 41 50 52 102 99 116 105 34 12 67 -4 91 -45 15
-26 17 -39 8 -84 -7 -36 -7 -57 0 -64 6 -6 51 31 133 112 69 67 136 124 151
128 39 9 71 -2 86 -32 12 -22 12 -34 -4 -92 -41 -146 -34 -157 53 -92 57 43
99 51 122 24 25 -31 -9 -74 -215 -273 -60 -58 -124 -130 -144 -160 -19 -31
-45 -72 -57 -91 -98 -156 -159 -228 -226 -269 -41 -25 -66 -26 -91 -4 -42 38
-11 104 158 330 83 110 108 151 124 204 20 67 25 99 14 99 -3 0 -27 -17 -53
-39 -147 -123 -234 -133 -261 -30 -6 22 -18 43 -26 46 -9 3 -37 -4 -64 -17
-36 -17 -57 -21 -84 -16 -33 6 -40 3 -105 -58 -158 -145 -256 -140 -306 16
l-20 63 -57 -3 c-49 -3 -58 -1 -67 17 -18 33 -2 69 60 138 60 66 64 74 95 213
9 41 27 104 41 140 13 36 33 97 44 135 27 94 109 260 155 314 63 72 157 101
205 62z m-877 -22 c16 -12 26 -30 26 -46 0 -56 -71 -293 -113 -378 -61 -122
-71 -158 -71 -255 0 -68 5 -104 17 -127 28 -54 57 -52 157 13 19 12 45 25 56
28 29 9 54 -17 54 -55 0 -67 -171 -199 -257 -199 -19 0 -56 9 -82 21 -37 16
-55 32 -82 74 -19 30 -37 55 -40 55 -4 0 -50 -47 -103 -104 -109 -117 -163
-152 -221 -142 -37 7 -58 31 -69 79 -8 34 -16 34 -85 -5 -119 -68 -222 -67
-298 2 -23 22 -47 40 -52 40 -5 0 -38 -25 -73 -55 -125 -110 -178 -133 -242
-104 -35 16 -46 57 -46 165 0 62 -4 94 -11 94 -6 0 -35 -21 -63 -48 -29 -26
-73 -58 -99 -72 -44 -23 -48 -24 -89 -10 -34 12 -50 27 -81 73 -33 49 -42 57
-69 57 -27 0 -48 -16 -138 -104 -58 -58 -118 -110 -134 -115 -36 -14 -79 -14
-94 1 -16 16 -15 81 3 148 17 63 19 90 6 90 -4 0 -43 -31 -85 -69 -105 -93
-199 -141 -275 -140 -77 1 -93 8 -145 56 -29 27 -51 40 -63 37 -10 -3 -50 -32
-88 -65 -184 -156 -229 -157 -255 -6 -15 90 -5 129 41 153 34 17 49 42 49 84
0 56 -24 46 -122 -51 -140 -140 -258 -211 -347 -211 -73 0 -107 14 -157 63
-41 40 -42 40 -71 26 -16 -9 -36 -23 -43 -32 -22 -26 -143 -93 -183 -100 -57
-11 -87 13 -87 69 0 24 7 63 16 87 40 108 36 174 -11 205 -33 21 -58 11 -96
-39 -50 -65 -139 -156 -186 -188 -66 -46 -124 -36 -187 30 -17 17 -40 31 -52
31 -28 0 -55 -61 -124 -275 -59 -183 -95 -272 -120 -299 -27 -28 -68 -14 -86
29 -19 45 -18 88 6 303 11 100 17 189 13 198 -6 16 -19 16 -80 -2 -16 -4 -25
-1 -29 10 -11 28 4 60 58 132 63 82 140 206 204 328 77 145 115 175 150 121
16 -24 15 -31 -6 -113 -12 -48 -29 -107 -37 -131 -17 -55 -8 -68 40 -50 56 20
88 0 142 -87 65 -104 84 -101 178 25 27 36 55 81 63 100 34 81 111 129 177
110 51 -15 139 -89 165 -139 20 -39 23 -57 20 -129 -2 -56 1 -85 8 -88 18 -6
120 93 133 129 52 143 134 239 233 272 48 17 58 17 83 5 16 -8 38 -29 48 -47
19 -33 19 -35 1 -95 -16 -55 -28 -71 -106 -147 -48 -47 -88 -93 -88 -102 0
-10 11 -25 24 -33 20 -13 32 -14 65 -5 50 13 115 67 295 241 76 74 150 142
164 151 27 18 67 23 97 12 47 -19 57 -117 24 -244 -27 -105 -17 -123 41 -74
18 16 49 66 79 128 54 114 98 162 187 203 65 30 102 25 139 -19 54 -64 24
-143 -101 -263 -46 -44 -84 -87 -84 -94 0 -26 32 -51 66 -51 49 0 135 71 279
230 102 114 133 142 166 151 35 11 43 10 67 -8 43 -32 52 -60 45 -135 -7 -76
-1 -82 44 -44 109 91 217 71 253 -47 12 -42 28 -52 64 -43 56 14 252 300 227
330 -8 10 -41 15 -101 18 -100 3 -122 16 -135 74 -5 25 -1 38 19 60 l24 29
149 4 148 3 38 54 c64 91 117 87 129 -12 5 -32 12 -72 18 -88 18 -53 12 -72
-37 -115 -44 -39 -48 -48 -76 -149 -40 -151 -44 -169 -52 -239 -6 -53 -4 -64
9 -69 23 -9 162 117 169 153 12 60 63 150 112 199 97 97 189 121 246 65 64
-64 25 -166 -112 -294 -72 -67 -79 -77 -70 -96 15 -27 52 -36 94 -22 38 13
153 110 347 290 69 64 151 137 183 161 50 39 60 52 73 100 36 129 129 306 189
359 42 37 53 38 89 10z"/>
<path d="M35687 15811 c-38 -46 -112 -198 -147 -304 -29 -88 -36 -100 -78
-134 -26 -20 -82 -68 -124 -106 l-77 -68 -6 28 c-9 42 -20 57 -46 64 -13 4
-108 7 -211 8 l-188 1 0 40 c0 29 -5 42 -19 50 -12 6 -135 10 -331 10 -298 0
-313 -1 -353 -21 -58 -30 -217 -164 -370 -311 l-127 -123 -2 -242 c-2 -134 -3
-280 -3 -325 l0 -83 40 -3 c32 -2 46 -11 72 -40 l31 -37 339 3 338 3 10 -23
10 -23 665 4 c421 2 672 7 685 13 11 6 41 28 66 49 l46 38 195 3 196 3 53 37
c30 21 66 53 81 72 l27 34 -6 311 -6 311 -55 0 -54 0 6 38 c10 59 24 380 25
568 1 148 -1 173 -15 178 -9 3 -157 6 -329 6 l-313 0 -25 -29z m379 -276 c15
-23 15 -31 -1 -107 -21 -105 -63 -230 -113 -338 -48 -105 -55 -142 -46 -238 6
-63 11 -79 33 -100 31 -29 64 -25 124 16 81 54 117 53 117 -3 0 -42 -37 -86
-114 -139 -65 -46 -122 -60 -177 -46 -43 12 -105 60 -114 91 -4 10 -15 24 -25
29 -16 9 -31 -3 -102 -76 -135 -141 -209 -174 -263 -119 -14 13 -25 30 -25 38
0 30 -24 37 -72 19 -44 -15 -49 -15 -82 0 -19 10 -53 42 -76 73 -23 32 -48 55
-59 55 -26 0 -98 -58 -150 -120 -51 -61 -123 -110 -161 -110 -41 0 -64 31 -56
77 15 98 18 153 9 153 -5 0 -36 -21 -69 -46 -65 -52 -127 -83 -162 -84 -35 0
-98 36 -122 70 -29 41 -58 39 -105 -11 -56 -58 -131 -99 -181 -99 -33 0 -46 6
-74 35 -28 29 -41 35 -77 35 -89 0 -67 49 90 200 150 145 325 285 393 317 40
18 57 21 77 14 50 -19 47 -72 -7 -119 -19 -16 -42 -42 -52 -57 -15 -23 -15
-28 -3 -36 8 -5 21 -9 30 -9 26 0 41 -25 53 -88 11 -54 14 -57 43 -60 28 -3
40 7 142 122 145 161 193 185 252 126 28 -28 30 -35 28 -92 -3 -74 6 -81 63
-43 92 61 169 42 218 -55 24 -47 35 -60 53 -60 25 0 81 45 217 173 47 44 123
111 170 148 85 68 85 68 119 161 49 132 141 295 178 317 31 18 62 12 79 -14z"/>
<path d="M26425 15793 c-5 -1 -369 -4 -807 -5 -603 -2 -800 -6 -809 -15 -18
-18 -19 -1541 -1 -1560 11 -10 136 -13 653 -13 l639 0 0 -84 0 -84 45 -36 c24
-20 70 -49 102 -64 l58 -27 385 0 c352 0 390 2 439 19 95 33 173 121 195 219
l12 52 264 -5 c244 -5 593 -6 1285 -4 149 0 452 0 675 0 323 -1 414 2 448 13
36 12 46 12 70 0 36 -19 747 -23 2111 -14 971 7 1004 8 1023 27 18 18 19 38
16 556 -3 490 -5 541 -22 584 -25 66 -82 121 -152 148 l-59 22 -1335 -7 -1335
-7 -55 78 c-58 83 -120 136 -210 181 l-55 28 -765 -3 c-663 -3 -767 -5 -780
-18 -12 -12 -15 -40 -13 -137 1 -82 -2 -124 -9 -129 -7 -3 -84 -7 -173 -7
-192 -2 -194 -1 -207 89 -4 35 -13 69 -19 77 -9 10 -51 13 -179 13 l-168 0
-12 35 c-6 19 -25 46 -41 60 l-31 25 -321 0 c-348 -1 -352 -1 -388 -56 -16
-24 -19 -47 -19 -136 l0 -108 -170 0 -170 0 0 114 c0 105 -2 117 -22 141 -22
24 -72 46 -93 38z m3212 -273 c103 -11 180 -49 267 -130 83 -78 123 -141 152
-242 30 -102 31 -188 3 -282 -33 -112 -65 -165 -148 -246 -62 -61 -91 -81
-147 -102 -202 -80 -423 -48 -565 80 -240 218 -252 562 -26 784 93 91 213 142
347 147 19 0 72 -3 117 -9z m-4024 -34 c183 -65 273 -163 313 -341 22 -99 22
-176 -1 -280 -39 -186 -150 -299 -346 -354 -65 -18 -102 -21 -277 -21 -230 0
-235 2 -247 82 -3 24 -5 238 -3 476 l3 434 25 20 c23 19 36 20 240 15 203 -4
219 -5 293 -31z m602 4 c39 -37 48 -85 25 -137 -37 -83 -121 -105 -182 -46
-60 57 -56 142 9 193 37 29 112 24 148 -10z m1107 19 c36 -16 68 -70 68 -113
0 -31 -7 -46 -38 -77 -21 -21 -50 -41 -65 -44 -34 -9 -84 19 -115 66 -65 94
45 217 150 168z m1562 1 c45 -17 47 -50 44 -532 -3 -513 3 -479 -96 -486 -51
-4 -62 -1 -88 21 l-29 25 0 465 c0 497 -1 487 50 507 28 12 89 12 119 0z
m-1145 -118 c16 -12 24 -34 30 -76 9 -63 27 -86 67 -86 70 0 108 -63 85 -140
-13 -44 -27 -55 -89 -65 -26 -4 -46 -14 -52 -25 -6 -10 -10 -72 -10 -138 0
-135 12 -164 72 -176 71 -14 95 -54 78 -131 -13 -59 -30 -67 -135 -63 -190 8
-235 76 -235 359 0 70 -3 135 -6 144 -4 9 -24 25 -44 35 -65 33 -79 140 -23
178 56 38 73 60 73 97 0 39 22 90 42 98 33 13 126 6 147 -11z m-1551 -158 c49
-13 52 -39 52 -376 0 -232 -4 -319 -13 -338 -11 -23 -19 -25 -82 -28 -117 -5
-110 -29 -113 353 -2 286 -1 330 13 352 25 38 83 53 143 37z m580 -11 c38 -14
53 -15 101 -5 105 22 159 11 180 -35 7 -16 11 -123 11 -316 0 -259 -2 -302
-20 -377 -34 -141 -95 -218 -206 -260 -50 -18 -75 -21 -164 -18 -90 3 -113 7
-161 31 -80 39 -139 96 -139 135 0 44 83 122 129 122 4 0 34 -20 65 -45 53
-41 64 -45 113 -45 80 0 133 34 133 85 0 14 -10 16 -79 9 -53 -4 -103 -2 -148
7 -65 12 -72 17 -139 84 -96 95 -117 150 -112 290 3 81 9 110 29 155 53 114
180 199 299 200 37 0 83 -7 108 -17z m580 -10 c41 -25 44 -53 40 -371 l-3
-304 -28 -24 c-39 -33 -124 -34 -162 -1 l-26 22 -2 321 c-2 305 -1 323 17 343
37 41 112 47 164 14z m1116 -12 c79 -39 119 -87 136 -164 7 -33 10 -135 8
-279 -3 -195 -5 -230 -19 -244 -22 -22 -98 -29 -154 -15 -37 9 -56 8 -102 -5
-74 -21 -182 -15 -239 14 -90 46 -131 133 -114 239 11 69 32 105 85 150 25 20
45 41 45 45 0 5 -20 27 -44 51 -77 73 -72 124 18 185 72 48 127 62 227 59 74
-3 96 -8 153 -36z m2166 15 c110 -45 176 -118 150 -165 -15 -30 -88 -81 -114
-81 -12 0 -41 14 -66 30 -63 42 -100 47 -154 20 -35 -17 -50 -32 -70 -73 -32
-62 -33 -112 -5 -178 27 -62 68 -89 137 -89 42 0 58 6 94 33 74 57 96 56 161
-6 48 -45 48 -75 1 -127 -72 -80 -202 -120 -327 -100 -132 20 -231 100 -282
227 -22 55 -27 86 -29 158 -1 86 1 93 36 161 93 179 294 260 468 190z m653 -4
c23 -11 65 -37 93 -60 40 -32 56 -54 76 -104 33 -80 43 -154 29 -206 -10 -35
-17 -43 -56 -58 -25 -9 -45 -20 -45 -24 0 -5 20 -27 45 -51 59 -56 61 -90 8
-141 -68 -66 -121 -83 -258 -83 -106 0 -125 3 -163 23 -56 30 -116 84 -155
141 l-32 46 0 150 c0 144 1 152 27 201 84 160 278 234 431 166z m720 -2 c71
-27 116 -66 143 -124 23 -49 24 -59 24 -302 0 -226 -2 -252 -17 -267 -26 -23
-85 -30 -143 -18 -42 9 -62 8 -107 -5 -74 -22 -183 -15 -240 14 -141 73 -151
296 -18 398 41 31 44 48 11 69 -30 20 -76 85 -76 108 0 27 58 85 115 112 96
48 208 53 308 15z m764 -3 c50 -26 102 -76 123 -117 29 -57 40 -148 40 -343 0
-211 -8 -242 -65 -253 -20 -3 -52 -4 -72 -1 -66 11 -67 16 -73 235 -4 166 -8
203 -24 235 -32 66 -84 84 -146 52 -54 -28 -60 -54 -60 -264 0 -122 -4 -199
-11 -215 -16 -34 -66 -50 -129 -41 -82 11 -80 3 -80 363 l0 313 26 26 c25 25
28 26 117 19 51 -3 105 -2 122 4 47 15 195 6 232 -13z"/>
<path d="M29436 15285 c-69 -28 -137 -91 -169 -155 -17 -35 -22 -62 -21 -125
0 -99 23 -155 92 -224 39 -39 64 -54 121 -72 64 -21 77 -22 128 -11 88 18 137
47 183 108 58 77 70 111 70 201 0 96 -19 142 -87 211 -87 89 -204 114 -317 67z"/>
<path d="M25286 15289 c-14 -20 -16 -60 -16 -289 0 -214 3 -270 14 -286 33
-45 258 -7 329 56 19 16 46 57 61 90 26 56 28 70 24 164 -3 94 -6 107 -33 152
-48 76 -133 115 -289 129 -69 7 -74 6 -90 -16z"/>
<path d="M26637 15025 c-96 -50 -113 -201 -32 -282 28 -28 40 -33 82 -33 93 0
143 56 143 162 0 73 -24 118 -80 146 -52 26 -75 27 -113 7z"/>
<path d="M28228 15024 c-15 -8 -32 -23 -38 -34 -9 -16 -7 -20 13 -25 12 -3 52
-5 87 -3 58 3 65 5 68 25 2 16 -5 26 -27 37 -37 20 -68 20 -103 0z"/>
<path d="M28265 14762 c-87 -10 -64 -92 25 -92 61 0 119 45 93 71 -14 14 -78
25 -118 21z"/>
<path d="M31108 15019 c-22 -13 -23 -45 -2 -53 9 -3 33 -6 54 -6 51 0 70 8 70
31 0 34 -80 53 -122 28z"/>
<path d="M31083 14774 c-22 -9 -14 -49 13 -75 21 -20 36 -24 84 -24 49 1 66 6
102 31 26 18 43 38 43 49 0 19 -8 20 -115 22 -63 1 -121 -1 -127 -3z"/>
<path d="M31788 15025 c-25 -14 -48 -43 -48 -60 0 -11 193 0 197 11 2 6 -5 21
-15 33 -23 30 -95 38 -134 16z"/>
<path d="M31815 14763 c-77 -19 -50 -93 34 -93 62 0 101 24 101 62 0 27 -78
45 -135 31z"/>
<path d="M4820 15217 c-99 -33 -178 -83 -250 -156 -72 -72 -115 -142 -149
-239 -20 -60 -21 -78 -21 -480 0 -415 0 -419 24 -488 13 -38 36 -91 52 -119
35 -63 149 -177 206 -207 159 -83 224 -91 668 -84 184 3 562 8 840 11 278 4
509 10 513 15 5 4 8 75 8 157 -2 177 -3 175 91 171 l63 -3 3 -87 3 -87 48 -35
c56 -40 127 -73 226 -107 l70 -24 925 3 c869 3 997 7 1093 31 33 8 41 6 55
-10 16 -19 42 -19 1097 -19 628 0 1109 -4 1150 -10 95 -13 644 -13 758 0 51 6
358 12 682 13 533 2 597 4 660 21 39 10 88 26 111 37 23 10 45 19 49 19 4 0
36 20 70 45 105 75 172 174 212 315 16 58 18 107 18 450 0 367 -1 388 -22 457
-12 40 -34 97 -50 125 -34 65 -145 176 -204 204 -182 87 -183 87 -859 93 -316
3 -765 6 -997 8 -265 3 -442 0 -475 -6 -34 -7 -423 -11 -1107 -11 -954 0
-1056 -1 -1072 -16 -16 -14 -29 -15 -116 -4 -57 8 -316 16 -618 21 -286 5
-684 11 -885 15 -370 6 -453 1 -537 -30 -38 -14 -51 -14 -125 -1 -86 16 -678
27 -1693 32 -441 2 -451 2 -515 -20z m692 -288 c421 -126 570 -644 281 -972
-247 -281 -743 -273 -970 15 -54 68 -84 125 -112 215 -21 64 -23 87 -19 190 5
119 7 128 61 243 81 172 271 307 467 330 92 11 213 2 292 -21z m2377 -4 c122
-37 221 -95 221 -129 0 -12 -17 -46 -37 -74 -21 -28 -51 -69 -66 -92 -35 -49
-55 -51 -135 -10 -81 41 -174 63 -244 58 -66 -5 -98 -27 -98 -68 0 -38 35 -65
115 -88 39 -12 111 -33 160 -48 140 -41 191 -64 248 -114 78 -70 101 -123 100
-235 0 -81 -3 -96 -31 -150 -38 -72 -45 -81 -102 -126 -100 -79 -242 -109
-433 -90 -161 16 -286 59 -384 133 -32 23 -53 46 -53 58 0 28 150 200 175 200
8 0 36 -15 62 -32 70 -48 147 -76 239 -89 126 -16 193 8 194 72 0 53 -35 69
-300 140 -232 62 -338 179 -327 359 11 187 144 321 347 350 91 14 263 1 349
-25z m4228 1 c142 -49 265 -145 332 -261 132 -225 105 -519 -63 -705 -156
-173 -381 -243 -628 -196 -115 22 -219 77 -303 161 -124 123 -175 247 -175
425 0 180 49 300 174 426 96 96 211 155 341 174 96 14 244 3 322 -24z m-5357
-8 c168 -45 271 -146 305 -298 41 -185 -36 -366 -190 -449 -89 -48 -155 -62
-303 -68 -87 -4 -145 -10 -150 -17 -4 -6 -9 -78 -12 -161 l-5 -150 -155 0
-155 0 -3 563 c-1 392 1 569 9 583 10 20 17 21 307 16 217 -3 312 -9 352 -19z
m2141 7 c154 -29 262 -85 356 -185 92 -98 137 -223 136 -380 0 -173 -48 -294
-160 -407 -75 -76 -158 -122 -277 -156 -61 -17 -112 -20 -361 -24 -266 -4
-290 -3 -302 13 -16 22 -19 1087 -3 1128 l10 26 259 0 c191 0 281 -4 342 -15z
m1375 -1 c104 -22 167 -55 234 -123 76 -78 105 -161 98 -281 -7 -141 -49 -209
-198 -330 l-32 -25 20 -25 c68 -89 232 -345 228 -356 -4 -11 -40 -14 -180 -14
l-174 0 -108 163 c-59 89 -115 167 -123 174 -22 17 -116 17 -130 0 -6 -8 -12
-76 -13 -173 l-3 -159 -149 -3 c-101 -2 -153 1 -162 9 -12 9 -14 106 -14 566
0 363 4 561 10 574 10 18 24 19 314 19 241 0 320 -3 382 -16z m834 -3 c6 -13
10 -213 10 -580 l0 -561 -22 -5 c-13 -3 -86 -4 -163 -3 l-140 3 -3 560 c-1
308 0 570 3 583 5 22 8 22 155 22 137 0 150 -2 160 -19z m2215 -5 c74 -17 76
-18 170 -62 75 -36 193 -150 228 -220 37 -73 67 -196 67 -273 0 -83 -34 -215
-73 -289 -45 -84 -147 -180 -237 -223 -135 -65 -197 -74 -515 -74 l-280 0 -3
563 c-1 397 1 569 9 584 11 20 15 20 287 15 199 -4 297 -10 347 -21z"/>
<path d="M5240 14654 c-165 -44 -253 -213 -206 -392 15 -54 63 -126 108 -162
39 -30 124 -60 172 -60 104 0 210 70 262 172 22 44 26 65 26 138 0 71 -4 96
-25 141 -34 76 -101 133 -185 159 -75 23 -79 23 -152 4z"/>
<path d="M11785 14636 c-51 -23 -113 -82 -138 -133 -8 -15 -20 -57 -27 -93
-11 -56 -10 -74 5 -130 20 -77 40 -112 92 -161 138 -130 351 -91 443 83 30 56
33 70 33 148 0 109 -25 172 -94 234 -86 78 -212 98 -314 52z"/>
<path d="M6465 14662 c-48 -5 -55 -24 -55 -153 0 -153 0 -153 129 -147 149 7
193 39 199 142 4 59 2 65 -27 98 -41 47 -141 71 -246 60z"/>
<path d="M8622 14628 c-9 -9 -12 -85 -12 -280 0 -308 -7 -288 104 -288 160 0
259 49 313 154 34 67 36 203 4 270 -31 63 -98 121 -162 140 -64 19 -229 22
-247 4z"/>
<path d="M9912 14638 c-8 -8 -12 -51 -12 -129 0 -97 3 -118 16 -123 9 -3 68
-6 131 -6 143 0 192 19 218 83 32 80 -2 154 -81 176 -54 15 -257 14 -272 -1z"/>
<path d="M13023 14635 c-23 -16 -23 -18 -23 -280 0 -226 2 -266 16 -279 32
-32 236 -14 304 27 85 51 122 114 128 222 7 127 -21 197 -106 262 -52 40 -90
50 -207 58 -74 6 -94 4 -112 -10z"/>
</g>
</svg>
