<svg xmlns="http://www.w3.org/2000/svg" xmlns:xlink="http://www.w3.org/1999/xlink" id="Layer_1" x="0" y="0" enable-background="new 0 0 519.09 200" version="1.1" viewBox="0 0 519.09 200" xml:space="preserve"><path fill="#176587" d="M503.32,98.02l-0.69-0.75c-3.59-3.43-8.37-5.55-13.31-5.55h-29.49h-13.4h-23.35v1.38	c-3-0.49-4.23-1.38-6.06-1.38h-24.1c-4.48,0-8.69,1.53-12.06,4.35c-3.42-2.85-7.55-4.35-12.04-4.35h-42.74v1.06	c0-0.27-2.79-1.06-4.16-1.06h-43.84v1.38c-1-0.49-2.52-1.38-4.36-1.38h-24.1c-4.48,0-8.69,1.53-12.06,4.35	c-3.42-2.85-7.55-4.35-12.04-4.35h-43.44v1.38c0-0.49-2.92-1.38-4.76-1.38h-11.16c1.12-1,2.19-7.08,2.21-20.77	c-0.03-16.18-1.52-20.05-2.84-22.21c3.81-2.9,6.34-7.29,6.51-12.44c0.29-9.07-6.86-16.62-15.92-16.91c-4.4-0.15-8.59,1.47-11.8,4.48	c-2.98,2.79-4.78,6.52-5.13,10.55c-15.3-12.67-37.69-17.46-49.77-17.46c-9.01,0-23.49,2.45-37.1,9.32	c-5.21,2.63-9.75,5.64-13.6,8.98c-0.17-4.35-2.01-8.37-5.19-11.35c-3.21-3.01-7.35-4.59-11.79-4.44	C12.7,19.76,5.56,27.38,5.85,36.46c0.17,5.15,2.7,9.67,6.51,12.57c-1.32,2.16-2.81,6.31-2.84,22.53	c0.04,18.46,1.97,21.26,3.38,23.31c2.83,4.1,8.44,6.91,16.67,8.39c2.41,5.8,5.48,10.77,9.15,14.09	c5.09,4.61,28.53,21.82,50.15,21.82c0.18,0,0.36,0,0.56-0.01c0.19,0.01,0.19,0.01,0.38,0.01c16.93,0,35.27-10.56,44.27-17.35v37.45	c0,5.05,2.14,9.58,5.7,13.09c3.51,3.57,8.39,5.36,13.44,5.36h24.1c1.82,0,4.76,0.07,4.76-0.43v0.43h38v-24h5.44	c1.84,0,3.56-0.01,5.56-0.5v6.05c0,5.05,1.84,9.58,5.4,13.09c3.51,3.57,8.09,5.36,13.14,5.36h24.1c1.82,0,3.36,0.07,4.36-0.43v0.43	h43.84c1.36,0,4.16,0.19,4.16-0.1v0.1h61v-0.44c3,0.51,3.98,0.44,5.84,0.44h24.1c1.82,0,3.06,0.07,6.06-0.43v0.43h23.35h13.4h29.49	c4.98,0,10.22-1.8,13.79-5.36c3.51-3.51,5.98-8.05,5.98-13.09v-48.2C509.09,106.13,506.75,101.62,503.32,98.02z"/><g><g><path fill="#FFF" d="M183.29,111.07c0,10.73,0,26.8,0,48.2c0,1.69-0.57,3.1-1.72,4.25c-1.2,1.2-2.61,1.8-4.25,1.8 c-5.39,0-13.43,0-24.1,0c-1.69,0-3.1-0.6-4.25-1.8c-1.2-1.14-1.8-2.56-1.8-4.25c0-4.03,0-10.08,0-18.14c0-3.32,0-7.46,0-12.42 c0-5.07,0-10.95,0-17.65c0-1.63,0.6-3.05,1.8-4.25c1.15-1.14,2.56-1.72,4.25-1.72c5.34,0,13.37,0,24.1,0 c1.63,0,3.05,0.57,4.25,1.72C182.72,108.02,183.29,109.43,183.29,111.07z M159.19,153.3c2.72,0,6.75,0,12.09,0 c0-0.54,0-1.33,0-2.37c0-7.52,0-18.79,0-33.82c-2.67,0-6.7,0-12.09,0c0,4.03,0,10.05,0,18.05 C159.19,139.2,159.19,145.24,159.19,153.3z"/></g><g><path fill="#FFF" d="M231.49,111.07c0,5.39,0,13.43,0,24.1c0,1.69-0.57,3.13-1.72,4.33c-1.2,1.14-2.61,1.72-4.25,1.72 c-4.03,0-10.08,0-18.14,0c0,5.34,0,13.37,0,24.1c-2.67,0-6.67,0-12.01,0c0-2.67,0-6.02,0-10.05c0-3.98,0-8.66,0-14.05 c0-2.67,0-6.67,0-12.01c0-2.72,0-6.75,0-12.09c0-2.67,0-6.67,0-12.01c2.67,0,6.67,0,12.01,0c4.03,0,10.07,0,18.14,0 c1.63,0,3.05,0.57,4.25,1.72C230.92,108.02,231.49,109.43,231.49,111.07z M207.39,129.2c2.72,0,6.75,0,12.09,0 c0-0.49,0-1.2,0-2.12c0-2.23,0-5.56,0-9.97c-2.67,0-6.7,0-12.09,0C207.39,119.78,207.39,123.81,207.39,129.2z"/></g><g><path fill="#FFF" d="M267.68,123.16c0-1.36,0-3.38,0-6.05c-2.67,0-6.7,0-12.09,0c0,2.67,0,6.7,0,12.09c4.03,0,10.07,0,18.14,0 c1.63,0,3.05,0.57,4.25,1.72c1.14,1.2,1.72,2.61,1.72,4.25c0,5.39,0,13.43,0,24.1c0,1.69-0.57,3.1-1.72,4.25 c-1.2,1.2-2.61,1.8-4.25,1.8c-5.39,0-13.43,0-24.1,0c-1.69,0-3.1-0.6-4.25-1.8c-1.2-1.14-1.8-2.56-1.8-4.25c0-2.67,0-6.67,0-12.01 c2.67,0,6.67,0,12.01,0c0,1.31,0,3.32,0,6.05c2.72,0,6.75,0,12.09,0c0-2.72,0-6.75,0-12.09c-4.03,0-10.05,0-18.05,0 c-1.69,0-3.1-0.57-4.25-1.72c-1.2-1.2-1.8-2.64-1.8-4.33c0-2.67,0-6.02,0-10.05c0-4.03,0-8.71,0-14.05c0-1.63,0.6-3.05,1.8-4.25 c1.15-1.14,2.56-1.72,4.25-1.72c5.34,0,13.37,0,24.1,0c1.63,0,3.05,0.57,4.25,1.72c1.14,1.2,1.72,2.61,1.72,4.25 c0,2.72,0,6.75,0,12.09C277.02,123.16,273.02,123.16,267.68,123.16z"/></g><g><path fill="#FFF" d="M327.89,111.07c0,10.73,0,26.8,0,48.2c0,1.69-0.57,3.1-1.72,4.25c-1.2,1.2-2.61,1.8-4.25,1.8 c-4.03,0-10.08,0-18.14,0c-1.31,0-3.3,0-5.96,0c-1.36,0-3.38,0-6.05,0c0-6.7,0-15.06,0-25.08s0-21.73,0-35.13 c2.34,0,5.85,0,10.54,0c0.33,0,0.82,0,1.47,0c4.03,0,10.07,0,18.14,0c1.63,0,3.05,0.57,4.25,1.72 C327.32,108.02,327.89,109.43,327.89,111.07z M303.79,153.3c2.72,0,6.75,0,12.09,0c0-0.54,0-1.33,0-2.37c0-7.52,0-18.79,0-33.82 c-2.67,0-6.7,0-12.09,0c0,4.03,0,10.05,0,18.05C303.79,139.2,303.79,145.24,303.79,153.3z"/></g><g><path fill="#FFF" d="M368.82,135.17c1.63,0,3.05,0.6,4.25,1.8c1.14,1.14,1.72,2.56,1.72,4.25c0,5.34,0,13.37,0,24.1 c-2.67,0-6.67,0-12.01,0c0-5.34,0-13.37,0-24.1c-2.67,0-6.7,0-12.09,0c0,5.34,0,13.37,0,24.1c-2.67,0-6.67,0-12.01,0 c0-5.34,0-13.37,0-24.1c0-2.67,0-6.67,0-12.01c0-2.67,0-6.02,0-10.05c0-4.03,0-8.71,0-14.05c2.67,0,6.67,0,12.01,0 c4.03,0,10.07,0,18.14,0c1.63,0,3.05,0.57,4.25,1.72c1.14,1.2,1.72,2.61,1.72,4.25c0,4.03,0,10.08,0,18.14 c0,1.63-0.57,3.05-1.72,4.25C371.87,134.59,370.46,135.17,368.82,135.17z M362.78,129.2c0-0.49,0-1.2,0-2.12c0-2.23,0-5.56,0-9.97 c-2.67,0-6.7,0-12.09,0c0,2.67,0,6.7,0,12.09C353.41,129.2,357.44,129.2,362.78,129.2z"/></g><g><path fill="#FFF" d="M422.99,111.07c0,10.73,0,26.8,0,48.2c0,1.69-0.57,3.1-1.72,4.25c-1.2,1.2-2.61,1.8-4.25,1.8 c-5.39,0-13.43,0-24.1,0c-1.69,0-3.1-0.6-4.25-1.8c-1.2-1.14-1.8-2.56-1.8-4.25c0-4.03,0-10.08,0-18.14c0-3.32,0-7.46,0-12.42 c0-5.07,0-10.95,0-17.65c0-1.63,0.6-3.05,1.8-4.25c1.15-1.14,2.56-1.72,4.25-1.72c5.34,0,13.37,0,24.1,0 c1.63,0,3.05,0.57,4.25,1.72C422.41,108.02,422.99,109.43,422.99,111.07z M398.89,153.3c2.72,0,6.75,0,12.09,0 c0-0.54,0-1.33,0-2.37c0-7.52,0-18.79,0-33.82c-2.67,0-6.7,0-12.09,0c0,4.03,0,10.05,0,18.05 C398.89,139.2,398.89,145.24,398.89,153.3z"/></g><g><path fill="#FFF" d="M435.08,105.1c2.01,0,6.02,0,12.01,0c0,7.52,0,22.58,0,45.18c0,2.51,0,7.52,0,15.03 c-1.96,0-5.96,0-12.01,0c0-6.7,0-15.06,0-25.08S435.08,118.5,435.08,105.1z"/></g><g><path fill="#FFF" d="M495.29,111.07c0,10.73,0,26.8,0,48.2c0,1.69-0.57,3.1-1.72,4.25c-1.2,1.2-2.61,1.8-4.25,1.8 c-4.03,0-10.08,0-18.14,0c-1.31,0-3.3,0-5.96,0c-1.36,0-3.38,0-6.05,0c0-6.7,0-15.06,0-25.08s0-21.73,0-35.13 c2.34,0,5.85,0,10.54,0c0.33,0,0.82,0,1.47,0c4.03,0,10.07,0,18.14,0c1.63,0,3.05,0.57,4.25,1.72 C494.72,108.02,495.29,109.43,495.29,111.07z M471.19,153.3c2.72,0,6.75,0,12.09,0c0-0.54,0-1.33,0-2.37c0-7.52,0-18.79,0-33.82 c-2.67,0-6.7,0-12.09,0c0,4.03,0,10.05,0,18.05C471.19,139.2,471.19,145.24,471.19,153.3z"/></g></g><path fill="#FFF" d="M155.42,41.67c3.18,0.1,5.83-2.39,5.94-5.56c0.1-3.17-2.39-5.83-5.56-5.93c-3.17-0.1-5.83,2.39-5.93,5.56	c-0.04,1.21,0.3,2.34,0.91,3.29c-3.27,5.03-4.06,9.07-4.13,11.57c-1.95-0.37-3.42-0.55-3.42-0.55s5.01,6.57,4.64,21.87	c0.24,12.01-3.35,21.12-3.35,21.12s9.72-1.37,11.7-4.24c0.97-1.41,1.5-9.31,1.5-17.25v0c0-7.94-0.53-15.83-1.5-17.25	c-0.89-1.29-3.58-2.27-6.28-2.96c-0.05-1.74,0.34-5.33,3.37-10.15C153.95,41.46,154.66,41.64,155.42,41.67z"/><path fill="#FFF" d="M30.05,71.91c-0.37-15.3,4.64-21.87,4.64-21.87s-1.47,0.18-3.42,0.55c-0.08-2.5-0.86-6.54-4.13-11.57	c0.61-0.95,0.95-2.08,0.91-3.29c-0.1-3.17-2.76-5.67-5.93-5.56c-3.17,0.1-5.66,2.76-5.56,5.93c0.1,3.18,2.76,5.66,5.94,5.56	c0.76-0.03,1.47-0.2,2.12-0.49c3.04,4.82,3.43,8.41,3.38,10.15c-2.7,0.7-5,1.68-5.88,2.96c-0.97,1.41-1.09,9.31-1.09,17.25v0	c0,7.94,0.12,15.84,1.09,17.25c1.98,2.87,11.49,4.24,11.49,4.24S29.81,83.93,30.05,71.91z"/><path fill="#FFF" d="M144.23,62.22c-3.93-24.27-37.88-34.54-54.8-34.54c-16.91,0-50.87,10.27-54.8,34.54	c-2.46,15.21,2.58,39.32,11.27,47.2c3.78,3.42,24.96,19.05,42.96,19.05c0.19,0,0.37-0.01,0.56-0.01c0.19,0,0.37,0.01,0.56,0.01	c18,0,39.18-15.63,42.96-19.05C141.66,101.54,146.69,77.43,144.23,62.22z M128.33,94.12c-8.12,4.88-69.66,4.88-77.78,0	c-1.98-2.45-4.07-6.6-5.32-11.26c1.47,1.05,3.06,1.73,4.72,2.01c0.28,0.05,0.55,0.07,0.82,0.07c3.37,0,6.04-3.52,8.64-6.93	c1.47-1.93,3.68-4.84,4.85-5.04c1.18-0.2,4.6,0.7,9.55,3.05c-0.38,1.37-0.58,2.81-0.58,4.31c0,8.96,7.26,16.22,16.22,16.22	c8.96,0,16.22-7.26,16.22-16.22c0-1.64-0.24-3.21-0.69-4.7c4.48-2.05,7.58-2.84,8.69-2.65c1.16,0.2,3.38,3.11,4.85,5.04	c2.59,3.41,5.27,6.93,8.64,6.93c0.27,0,0.54-0.02,0.82-0.07c2.41-0.4,4.35-1.47,5.91-2.87C132.65,87.01,130.43,91.52,128.33,94.12z M80.85,80.52c0-4.87,3.95-8.82,8.82-8.82c4.87,0,8.82,3.95,8.82,8.82c0,4.87-3.95,8.82-8.82,8.82	C84.8,89.33,80.85,85.38,80.85,80.52z M133.88,73.79c-1.6,3.81-3.85,5.98-6.7,6.46c0,0-0.46,0.04-1.58-1.03	c-1.07-1.01-2.24-2.55-3.37-4.04c-2.47-3.24-4.8-6.31-7.78-6.82c-2.81-0.48-7.34,1.12-11.48,3.03c-2.9-4.39-7.88-7.28-13.53-7.28	c-5.8,0-10.89,3.05-13.76,7.63c-4.33-2.06-9.25-3.9-12.23-3.38c-2.98,0.51-5.31,3.58-7.78,6.82c-1.13,1.49-2.3,3.03-3.37,4.04	c-1.13,1.07-1.58,1.03-1.58,1.03c-2.8-0.47-5.01-2.94-6.66-5.82c0.01-1.56,0.16-3.58,0.48-5.06c0.52-2.41,4.34-4.64,9.84-7.64h70.1	c5.5,3,9.32,5.23,9.85,7.64c0.13,0.6,0.23,1.46,0.31,2.08C134.43,72.12,134.19,73.07,133.88,73.79z"/></svg>