<?xml version="1.0" standalone="no"?>
<!DOCTYPE svg PUBLIC "-//W3C//DTD SVG 20010904//EN"
 "http://www.w3.org/TR/2001/REC-SVG-20010904/DTD/svg10.dtd">
<svg version="1.0" xmlns="http://www.w3.org/2000/svg"
 width="892.000000pt" height="573.000000pt" viewBox="0 0 892.000000 573.000000"
 preserveAspectRatio="xMidYMid meet">

<g transform="translate(0.000000,573.000000) scale(0.100000,-0.100000)"
fill="#000000" stroke="none">
<path d="M230 2870 l0 -2660 4230 0 4230 0 0 2660 0 2660 -4230 0 -4230 0 0
-2660z m2805 1077 c50 -14 111 -34 137 -46 l47 -20 72 37 c64 33 79 37 148 37
42 0 94 -6 116 -13 61 -18 134 -80 169 -142 29 -52 31 -61 31 -160 0 -78 -4
-113 -16 -135 -14 -25 -16 -51 -11 -152 l5 -123 251 0 c138 0 850 -2 1581 -3
l1330 -2 53 -29 c61 -34 120 -95 154 -158 23 -43 23 -46 23 -393 0 -346 0
-351 -23 -393 -35 -66 -88 -119 -150 -149 l-57 -28 -560 -8 c-308 -4 -888 -6
-1290 -5 l-730 3 -63 23 c-60 22 -63 22 -89 5 -24 -16 -69 -19 -373 -27 -370
-9 -457 -3 -531 34 -59 31 -111 82 -144 142 -26 47 -30 65 -33 161 -4 96 -6
107 -21 101 -9 -4 -54 -18 -101 -30 -216 -58 -440 -8 -686 154 -96 63 -152
115 -180 168 -12 22 -32 38 -60 49 -106 40 -173 125 -194 244 -6 36 -11 137
-10 226 1 141 -2 167 -21 220 -34 96 -17 217 44 297 45 59 113 102 186 118 84
18 152 8 237 -36 68 -33 74 -35 100 -21 40 20 149 55 225 72 101 23 320 14
434 -18z"/>
<path d="M2641 3819 c-107 -21 -234 -73 -317 -130 l-42 -29 -7 28 c-19 78
-105 130 -192 117 -67 -10 -128 -71 -138 -137 -8 -52 5 -103 35 -141 18 -22
19 -31 9 -83 -17 -88 -7 -341 14 -381 23 -43 59 -70 124 -90 48 -15 58 -23 78
-63 42 -81 132 -155 285 -231 147 -74 287 -95 419 -64 74 18 208 79 275 124
l46 32 0 -211 c0 -165 3 -217 14 -239 20 -37 80 -89 111 -96 14 -3 37 -7 51
-10 15 -3 174 -3 355 1 l329 7 0 119 0 118 54 0 54 0 4 -69 c4 -80 32 -126 95
-157 37 -18 80 -19 1278 -17 682 1 1255 5 1273 8 37 7 96 55 118 96 21 41 21
607 0 647 -16 31 -71 84 -103 101 -15 8 -183 11 -563 11 -470 0 -546 -2 -572
-16 -27 -14 -33 -14 -63 0 -29 14 -113 16 -684 16 -577 0 -654 -2 -684 -16
-31 -15 -36 -15 -65 0 -27 14 -77 16 -352 16 l-320 0 7 28 c12 43 8 343 -5
374 -9 21 -8 29 4 39 43 36 59 142 29 199 -21 41 -74 78 -123 86 -78 12 -171
-43 -188 -112 -3 -13 -8 -24 -9 -24 -2 0 -27 16 -57 35 -148 98 -402 148 -577
114z m334 -129 c175 -55 304 -154 341 -260 39 -113 17 -324 -47 -452 -69 -137
-356 -282 -521 -263 -132 14 -334 116 -415 208 -91 104 -132 393 -74 522 53
120 198 215 396 261 83 19 231 12 320 -16z m-818 -18 c7 -8 12 -29 12 -46 -1
-47 33 -137 50 -131 9 4 11 0 6 -12 -27 -71 -37 -144 -32 -238 3 -55 11 -115
17 -133 16 -42 9 -48 -37 -34 -70 22 -68 16 -71 191 -4 172 2 196 43 207 29 7
31 21 11 69 -11 26 -21 35 -39 35 -35 0 -59 23 -59 55 0 56 65 80 99 37z
m1331 5 c33 -25 0 -97 -44 -97 -16 0 -29 -10 -39 -30 -19 -37 -19 -70 0 -70
34 0 52 -35 59 -114 9 -100 -2 -243 -21 -261 -16 -17 -90 -41 -99 -33 -3 4 -1
23 5 45 28 99 21 274 -14 356 -5 11 -3 17 7 17 14 0 34 59 46 140 10 62 53 83
100 47z m215 -746 c15 -12 17 -45 17 -280 0 -215 -3 -271 -14 -287 -13 -17
-29 -19 -153 -22 -129 -3 -140 -2 -166 18 l-27 21 0 262 c0 144 4 267 8 273
19 29 50 34 183 32 97 -2 141 -7 152 -17z m475 3 c21 -15 22 -21 22 -168 0
-114 -3 -156 -13 -164 -7 -6 -60 -13 -118 -14 l-104 -3 -3 -123 -3 -123 -57 3
-57 3 -3 290 c-1 159 0 295 3 302 7 21 303 18 333 -3z m487 -9 c22 -21 25 -33
25 -90 l0 -65 -59 0 c-58 0 -60 1 -63 28 -3 26 -6 27 -60 30 l-58 3 0 -60 0
-59 101 -4 c138 -4 139 -5 139 -185 0 -129 -1 -135 -25 -158 -23 -24 -29 -25
-158 -25 -171 0 -179 5 -185 109 l-4 71 66 0 66 0 0 -30 0 -31 58 3 57 3 0 60
0 60 -110 5 c-139 6 -137 3 -133 188 4 176 -1 172 185 172 129 0 135 -1 158
-25z m479 4 l26 -20 0 -264 0 -264 -26 -20 c-24 -19 -40 -21 -180 -21 l-154 0
0 305 0 305 154 0 c140 0 156 -2 180 -21z m471 -4 c23 -22 25 -31 25 -128 0
-88 -3 -109 -19 -128 -18 -23 -18 -24 1 -49 16 -23 18 -41 16 -150 l-3 -125
-57 -3 -57 -3 -3 123 -3 123 -57 3 -57 3 -3 -123 -3 -123 -57 -3 -58 -3 0 306
0 305 155 0 c152 0 156 -1 180 -25z m491 1 c11 -16 14 -72 14 -282 l0 -263
-27 -21 c-26 -20 -37 -21 -166 -18 -124 3 -140 5 -153 22 -19 27 -21 534 -1
558 20 25 35 27 180 25 124 -2 140 -4 153 -21z m254 -281 l0 -305 -60 0 -60 0
0 305 0 305 60 0 60 0 0 -305z m463 286 c15 -12 17 -45 17 -280 0 -215 -3
-271 -14 -287 -13 -17 -30 -19 -180 -22 l-166 -3 0 306 0 306 163 -3 c121 -2
168 -7 180 -17z"/>
<path d="M2400 3363 c-50 -33 -70 -57 -70 -83 0 -33 35 -80 59 -80 9 0 39 25
65 55 40 47 52 55 82 55 19 0 51 -7 71 -15 36 -15 37 -15 68 15 61 59 148 60
215 3 29 -24 35 -25 64 -15 18 7 48 12 68 12 31 0 42 -7 83 -55 25 -30 55 -55
65 -55 26 0 60 51 60 89 0 27 -7 36 -47 61 l-47 30 -355 -1 c-312 0 -359 -2
-381 -16z"/>
<path d="M2745 3268 c-51 -29 -60 -89 -21 -134 51 -60 146 -21 146 58 0 67
-68 109 -125 76z"/>
<path d="M2503 3238 c-72 -83 -82 -91 -118 -85 -21 4 -35 2 -35 -5 0 -21 34
-80 54 -93 55 -36 595 -46 720 -13 52 14 77 41 92 102 6 26 5 27 -14 17 -43
-23 -65 -13 -123 51 l-56 62 -39 -15 c-32 -12 -39 -20 -37 -40 7 -108 -90
-204 -189 -185 -82 15 -145 95 -136 172 3 28 0 35 -22 43 -62 24 -68 23 -97
-11z"/>
<path d="M3480 2645 l0 -185 60 0 60 0 0 185 0 185 -60 0 -60 0 0 -185z"/>
<path d="M3967 2823 c-4 -3 -7 -30 -7 -60 l0 -53 60 0 60 0 0 60 0 60 -53 0
c-30 0 -57 -3 -60 -7z"/>
<path d="M4930 2645 l0 -185 60 0 60 0 0 185 0 185 -60 0 -60 0 0 -185z"/>
<path d="M5400 2770 l0 -60 60 0 61 0 -3 58 -3 57 -57 3 -58 3 0 -61z"/>
<path d="M5880 2645 l0 -185 60 0 60 0 0 185 0 185 -60 0 -60 0 0 -185z"/>
<path d="M6600 2645 l0 -185 60 0 60 0 0 185 0 185 -60 0 -60 0 0 -185z"/>
</g>
</svg>
