<svg xmlns="http://www.w3.org/2000/svg" xmlns:xlink="http://www.w3.org/1999/xlink" style="isolation:isolate" width="1000pt" height="417.893" viewBox="0 0 1000 313.42"><defs><clipPath id="_clipPath_IQrii8IrOWWsrdrjK63bEZvgXflbq8oz"><rect width="1000" height="313.42"/></clipPath></defs><g clip-path="url(#_clipPath_IQrii8IrOWWsrdrjK63bEZvgXflbq8oz)"><rect width="1000" height="313.42" style="fill:#176587"/><g><path fill="#176587" d="M 229.976 41.931 C 230.783 16.909 211.007 -4.094 185.93 -4.898 C 173.757 -5.315 162.167 -0.939 153.28 7.352 C 145.05 15.048 140.062 25.289 139.076 36.393 C 96.732 1.443 34.778 -11.79 1.351 -11.79 C -23.592 -11.79 -63.65 -5.047 -101.304 13.902 C -115.717 21.151 -128.278 29.457 -138.927 38.671 C -139.405 26.688 -144.484 15.569 -153.281 7.352 C -162.153 -0.954 -173.609 -5.315 -185.901 -4.898 C -211.008 -4.094 -230.769 16.909 -229.977 41.96 C -229.499 56.161 -222.509 68.635 -211.949 76.628 C -215.594 82.567 -219.716 94.029 -219.806 138.758 C -219.701 189.666 -214.354 197.391 -210.456 203.047 C -202.629 214.345 -187.111 222.101 -164.318 226.179 C -157.642 242.181 -149.144 255.89 -139.002 265.044 C -124.917 277.756 -60.05 325.21 -0.217 325.21 C 0.291 325.21 0.784 325.195 1.321 325.18 C 1.844 325.195 2.367 325.21 2.89 325.21 C 62.693 325.21 127.56 277.756 141.675 265.029 C 151.936 255.771 160.509 241.883 167.215 225.643 C 188.439 221.446 202.957 213.854 210.455 203.033 C 214.353 197.391 219.7 189.666 219.805 138.639 C 219.715 94.029 215.593 82.567 211.948 76.628 C 222.508 68.62 229.513 56.131 229.976 41.931 Z"/><path fill="#FFF" d="M 183.929 56.324 C 192.711 56.607 200.059 49.745 200.358 40.993 C 200.642 32.24 193.742 24.917 184.959 24.634 C 176.177 24.351 168.828 31.213 168.545 39.966 C 168.44 43.3 169.381 46.426 171.069 49.046 C 162.018 62.933 159.837 74.068 159.628 80.959 C 154.236 79.932 150.173 79.426 150.173 79.426 C 150.173 79.426 164.049 97.541 163.003 139.741 C 163.675 172.875 153.743 197.987 153.743 197.987 C 153.743 197.987 181.27 194.206 186.766 186.287 C 189.455 182.387 191.576 160.61 191.576 138.714 L 191.576 138.714 C 191.576 116.818 189.47 95.056 186.766 91.156 C 184.317 87.613 176.535 84.904 169.067 82.984 C 168.933 78.176 169.844 68.277 178.238 55 C 180.03 55.759 181.823 56.25 183.929 56.324 Z"/><path fill="#FFF" d="M -162.989 139.741 C -164.02 97.541 -150.159 79.426 -150.159 79.426 C -150.159 79.426 -154.222 79.932 -159.614 80.959 C -159.823 74.053 -162.003 62.919 -171.055 49.046 C -169.367 46.426 -168.426 43.315 -168.53 39.966 C -168.814 31.213 -176.163 24.336 -184.945 24.634 C -193.727 24.917 -200.613 32.24 -200.344 40.993 C -200.06 49.745 -192.712 56.607 -183.914 56.324 C -181.823 56.25 -179.852 55.774 -178.045 54.97 C -169.636 68.248 -168.56 78.161 -168.695 82.954 C -176.163 84.874 -183.914 87.583 -186.379 91.126 C -189.067 95.026 -190.815 116.788 -190.815 138.684 L -190.815 138.684 C -190.815 160.58 -189.082 182.357 -186.379 186.257 C -180.882 194.191 -153.893 197.957 -153.893 197.957 C -153.893 197.957 -163.661 172.875 -162.989 139.741 Z"/><path fill="#FFF" d="M 152.966 112.992 C 142.093 46.054 48.131 17.742 1.336 17.742 C -45.473 17.742 -139.42 46.054 -150.294 112.992 C -157.104 154.954 -143.169 221.431 -119.107 243.148 C -108.652 252.585 -50.028 295.678 -0.217 295.678 C 0.306 295.678 0.814 295.648 1.336 295.633 C 1.859 295.633 2.367 295.678 2.89 295.678 C 52.701 295.678 111.31 252.585 121.78 243.148 C 145.842 221.431 159.792 154.954 152.966 112.992 Z M 108.95 200.978 C 86.486 214.435 -83.814 214.435 -106.277 200.978 C -111.759 194.235 -117.524 182.789 -121.004 169.913 C -116.927 172.816 -112.55 174.691 -107.935 175.45 C -107.173 175.584 -106.412 175.644 -105.665 175.644 C -96.345 175.644 -88.937 165.939 -81.767 156.546 C -77.705 151.232 -71.581 143.194 -68.355 142.644 C -65.099 142.078 -55.629 144.564 -41.933 151.054 C -42.979 154.834 -43.546 158.809 -43.546 162.932 C -43.546 187.641 -23.457 207.662 1.336 207.662 C 26.13 207.662 46.219 187.641 46.219 162.932 C 46.219 158.422 45.547 154.075 44.292 149.967 C 56.689 144.311 65.277 142.123 68.354 142.658 C 71.58 143.209 77.704 151.247 81.767 156.561 C 88.951 165.969 96.344 175.659 105.664 175.659 C 106.411 175.659 107.158 175.599 107.934 175.465 C 114.596 174.349 119.958 171.417 124.289 167.561 C 120.914 181.375 114.76 193.819 108.95 200.978 Z M -22.412 163.453 C -22.412 150.027 -11.494 139.146 1.979 139.146 C 15.451 139.146 26.369 150.027 26.369 163.453 C 26.369 176.879 15.451 187.76 1.979 187.76 C -11.494 187.775 -22.412 176.879 -22.412 163.453 Z M 124.334 144.906 C 119.898 155.4 113.67 161.399 105.799 162.709 C 105.784 162.709 104.544 162.813 101.422 159.866 C 98.465 157.067 95.224 152.825 92.087 148.717 C 85.262 139.771 78.809 131.331 70.565 129.902 C 62.798 128.577 50.237 132.998 38.796 138.267 C 30.76 126.166 16.989 118.187 1.336 118.187 C -14.72 118.187 -28.804 126.597 -36.735 139.235 C -48.714 133.564 -62.336 128.488 -70.565 129.902 C -78.81 131.316 -85.262 139.771 -92.088 148.717 C -95.225 152.825 -98.466 157.067 -101.423 159.866 C -104.545 162.813 -105.799 162.709 -105.799 162.709 C -113.536 161.414 -119.675 154.611 -124.215 146.663 C -124.186 142.376 -123.782 138.074 -122.886 133.995 C -121.437 127.356 -110.878 118.678 -95.643 114.213 L 98.331 114.213 C 113.55 118.678 124.125 127.356 125.574 133.995 C 125.932 135.662 126.216 137.389 126.425 139.101 C 125.858 140.932 125.17 142.926 124.334 144.906 Z"/></g><g opacity=".05"><path fill="#FFF" d="M 1013.935 252.969 C 1013.848 253.131 1004.474 269.357 988.481 283.887 C 968.892 301.686 949.289 308.217 930.215 303.288 C 930.186 303.275 927.251 302.292 922.856 293.019 C 918.691 284.237 915.176 272.117 911.785 260.394 C 904.394 234.861 897.413 210.745 879.955 199.691 C 859.137 186.509 812.455 185.313 776.263 186.711 C 775.464 146.108 749.444 106.631 707.115 88.408 C 664.984 70.27 618.647 78.347 588.594 105.372 C 564.8 78.293 532.29 45.829 508.653 39.839 C 488.624 34.755 466.309 46.258 442.675 58.434 C 431.828 64.028 420.606 69.811 411.367 72.814 C 401.604 75.992 398.868 74.526 398.85 74.527 C 363.83 52.557 368.254 -15.177 372.915 -39.412 L 341.731 -46.449 C 341.524 -45.385 336.69 -20.064 338.592 9.774 C 341.286 52.049 356.442 83.007 382.426 99.309 C 384.054 100.33 385.708 101.194 387.394 101.92 C 408.562 111.033 434.187 97.833 459.018 85.027 C 473.056 77.79 494.27 66.854 502.094 68.845 C 511.505 71.231 536.947 91.263 569.415 129.113 C 567.635 132.221 566.008 135.459 564.56 138.822 C 542.14 190.9 569.605 252.774 625.916 277.017 C 682.22 301.256 746.046 278.693 768.469 226.609 C 769.836 223.435 771.012 220.219 772.015 216.984 C 822.565 214.402 855.095 219.137 863.397 224.4 C 870.211 228.718 876.856 251.641 881.24 266.809 C 889.011 293.65 897.026 321.333 918.194 330.446 C 919.88 331.172 921.652 331.783 923.506 332.261 C 994.12 350.501 1040.078 271.797 1042 268.437 L 1013.935 252.969 Z M 644.347 234.205 C 612.92 220.676 597.589 186.144 610.103 157.077 C 622.617 128.009 658.238 115.413 689.664 128.943 C 721.091 142.473 736.423 177.004 723.908 206.072 C 711.394 235.139 675.774 247.735 644.347 234.205 Z"/></g><g><g><g><path fill="#FFF" d="M 407.331 115.811 C 407.331 133.994 407.331 161.226 407.331 197.49 C 407.331 200.354 406.49 202.743 404.792 204.692 C 403.02 206.726 400.938 207.743 398.517 207.743 C 390.558 207.743 378.687 207.743 362.933 207.743 C 360.438 207.743 358.356 206.726 356.658 204.692 C 354.886 202.76 354 200.354 354 197.49 C 354 190.661 354 180.409 354 166.75 C 354 161.124 354 154.109 354 145.704 C 354 137.112 354 127.148 354 115.794 C 354 113.032 354.886 110.626 356.658 108.592 C 358.356 106.66 360.438 105.677 362.933 105.677 C 370.817 105.677 382.674 105.677 398.517 105.677 C 400.923 105.677 403.02 106.643 404.792 108.592 C 406.49 110.643 407.331 113.032 407.331 115.811 Z M 371.748 187.374 C 375.764 187.374 381.714 187.374 389.598 187.374 C 389.598 186.458 389.598 185.12 389.598 183.357 C 389.598 170.614 389.598 151.516 389.598 126.046 C 385.656 126.046 379.706 126.046 371.748 126.046 C 371.748 132.876 371.748 143.077 371.748 156.634 C 371.748 163.48 371.748 173.715 371.748 187.374 Z"/></g><g><path fill="#FFF" d="M 478.499 115.811 C 478.499 124.945 478.499 138.569 478.499 156.651 C 478.499 159.515 477.657 161.955 475.959 163.988 C 474.187 165.92 472.105 166.903 469.684 166.903 C 463.734 166.903 454.801 166.903 442.9 166.903 C 442.9 175.952 442.9 189.56 442.9 207.743 C 438.958 207.743 433.052 207.743 425.167 207.743 C 425.167 203.218 425.167 197.541 425.167 190.712 C 425.167 183.967 425.167 176.037 425.167 166.903 C 425.167 162.378 425.167 155.6 425.167 146.551 C 425.167 141.942 425.167 135.112 425.167 126.063 C 425.167 121.539 425.167 114.76 425.167 105.711 C 429.11 105.711 435.016 105.711 442.9 105.711 C 448.851 105.711 457.769 105.711 469.684 105.711 C 472.091 105.711 474.187 106.677 475.959 108.626 C 477.657 110.643 478.499 113.032 478.499 115.811 Z M 442.915 146.534 C 446.931 146.534 452.881 146.534 460.766 146.534 C 460.766 145.704 460.766 144.5 460.766 142.941 C 460.766 139.163 460.766 133.52 460.766 126.046 C 456.824 126.046 450.873 126.046 442.915 126.046 C 442.915 130.571 442.915 137.4 442.915 146.534 Z"/></g><g><path fill="#FFF" d="M 531.933 136.299 C 531.933 133.994 531.933 130.571 531.933 126.046 C 527.991 126.046 522.041 126.046 514.082 126.046 C 514.082 130.571 514.082 137.4 514.082 146.534 C 520.033 146.534 528.951 146.534 540.866 146.534 C 543.273 146.534 545.369 147.5 547.141 149.449 C 548.824 151.482 549.681 153.872 549.681 156.651 C 549.681 165.785 549.681 179.409 549.681 197.49 C 549.681 200.354 548.839 202.743 547.141 204.692 C 545.369 206.726 543.288 207.742 540.866 207.742 C 532.908 207.742 521.037 207.742 505.282 207.742 C 502.787 207.742 500.705 206.726 499.007 204.692 C 497.235 202.76 496.35 200.354 496.35 197.49 C 496.35 192.966 496.35 186.187 496.35 177.138 C 500.292 177.138 506.198 177.138 514.082 177.138 C 514.082 179.358 514.082 182.764 514.082 187.391 C 518.098 187.391 524.049 187.391 531.933 187.391 C 531.933 182.781 531.933 175.952 531.933 166.903 C 525.983 166.903 517.094 166.903 505.282 166.903 C 502.787 166.903 500.705 165.937 499.007 163.988 C 497.235 161.955 496.35 159.515 496.35 156.651 C 496.35 152.126 496.35 146.449 496.35 139.62 C 496.35 132.791 496.35 124.86 496.35 115.811 C 496.35 113.049 497.235 110.643 499.007 108.609 C 500.705 106.677 502.787 105.694 505.282 105.694 C 513.167 105.694 525.023 105.694 540.866 105.694 C 543.273 105.694 545.369 106.66 547.141 108.609 C 548.824 110.643 549.681 113.032 549.681 115.811 C 549.681 120.42 549.681 127.25 549.681 136.299 C 545.724 136.299 539.818 136.299 531.933 136.299 Z"/></g><g><path fill="#FFF" d="M 620.834 115.811 C 620.834 133.994 620.834 161.226 620.834 197.49 C 620.834 200.354 619.992 202.743 618.294 204.692 C 616.522 206.726 614.44 207.743 612.019 207.743 C 606.068 207.743 597.136 207.743 585.235 207.743 C 583.301 207.743 580.363 207.743 576.435 207.743 C 574.427 207.743 571.445 207.743 567.502 207.743 C 567.502 196.389 567.502 182.222 567.502 165.242 C 567.502 148.262 567.502 128.419 567.502 105.711 C 570.957 105.711 576.14 105.711 583.065 105.711 C 583.552 105.711 584.275 105.711 585.235 105.711 C 591.185 105.711 600.103 105.711 612.019 105.711 C 614.425 105.711 616.522 106.677 618.294 108.626 C 619.992 110.643 620.834 113.032 620.834 115.811 Z M 585.25 187.374 C 589.266 187.374 595.216 187.374 603.101 187.374 C 603.101 186.458 603.101 185.12 603.101 183.357 C 603.101 170.614 603.101 151.516 603.101 126.046 C 599.158 126.046 593.208 126.046 585.25 126.046 C 585.25 132.876 585.25 143.077 585.25 156.634 C 585.25 163.48 585.25 173.715 585.25 187.374 Z"/></g><g><path fill="#FFF" d="M 681.267 156.651 C 683.673 156.651 685.77 157.667 687.542 159.701 C 689.225 161.633 690.081 164.039 690.081 166.903 C 690.081 175.952 690.081 189.56 690.081 207.743 C 686.139 207.743 680.233 207.743 672.349 207.743 C 672.349 198.693 672.349 185.086 672.349 166.903 C 668.406 166.903 662.456 166.903 654.498 166.903 C 654.498 175.952 654.498 189.56 654.498 207.743 C 650.555 207.743 644.649 207.743 636.765 207.743 C 636.765 198.693 636.765 185.086 636.765 166.903 C 636.765 162.378 636.765 155.6 636.765 146.551 C 636.765 142.026 636.765 136.35 636.765 129.52 C 636.765 122.691 636.765 114.76 636.765 105.711 C 640.707 105.711 646.613 105.711 654.498 105.711 C 660.448 105.711 669.366 105.711 681.282 105.711 C 683.688 105.711 685.785 106.677 687.557 108.626 C 689.24 110.66 690.096 113.049 690.096 115.828 C 690.096 122.657 690.096 132.91 690.096 146.568 C 690.096 149.33 689.255 151.736 687.557 153.77 C 685.77 155.668 683.688 156.651 681.267 156.651 Z M 672.349 146.534 C 672.349 145.704 672.349 144.5 672.349 142.941 C 672.349 139.163 672.349 133.52 672.349 126.046 C 668.406 126.046 662.456 126.046 654.498 126.046 C 654.498 130.571 654.498 137.4 654.498 146.534 C 658.514 146.534 664.464 146.534 672.349 146.534 Z"/></g><g><path fill="#FFF" d="M 761.249 115.811 C 761.249 133.994 761.249 161.226 761.249 197.49 C 761.249 200.354 760.407 202.743 758.709 204.692 C 756.937 206.726 754.856 207.743 752.434 207.743 C 744.476 207.743 732.605 207.743 716.85 207.743 C 714.355 207.743 712.273 206.726 710.575 204.692 C 708.804 202.76 707.918 200.354 707.918 197.49 C 707.918 190.661 707.918 180.409 707.918 166.75 C 707.918 161.124 707.918 154.109 707.918 145.704 C 707.918 137.112 707.918 127.148 707.918 115.794 C 707.918 113.032 708.804 110.626 710.575 108.592 C 712.273 106.66 714.355 105.677 716.85 105.677 C 724.735 105.677 736.591 105.677 752.434 105.677 C 754.841 105.677 756.937 106.643 758.709 108.592 C 760.393 110.643 761.249 113.032 761.249 115.811 Z M 725.665 187.374 C 729.681 187.374 735.632 187.374 743.516 187.374 C 743.516 186.458 743.516 185.12 743.516 183.357 C 743.516 170.614 743.516 151.516 743.516 126.046 C 739.574 126.046 733.624 126.046 725.665 126.046 C 725.665 132.876 725.665 143.077 725.665 156.634 C 725.665 163.48 725.665 173.715 725.665 187.374 Z"/></g><g><path fill="#FFF" d="M 779.1 105.694 C 782.068 105.694 787.988 105.694 796.833 105.694 C 796.833 118.438 796.833 143.958 796.833 182.256 C 796.833 186.509 796.833 194.999 796.833 207.726 C 793.939 207.726 788.033 207.726 779.1 207.726 C 779.1 196.372 779.1 182.205 779.1 165.225 C 779.1 148.246 779.1 128.402 779.1 105.694 Z"/></g><g><path fill="#FFF" d="M 868 115.811 C 868 133.994 868 161.226 868 197.49 C 868 200.354 867.158 202.743 865.46 204.692 C 863.689 206.726 861.607 207.743 859.185 207.743 C 853.235 207.743 844.302 207.743 832.402 207.743 C 830.467 207.743 827.529 207.743 823.602 207.743 C 821.594 207.743 818.611 207.743 814.669 207.743 C 814.669 196.389 814.669 182.222 814.669 165.242 C 814.669 148.262 814.669 128.419 814.669 105.711 C 818.124 105.711 823.306 105.711 830.231 105.711 C 830.718 105.711 831.442 105.711 832.402 105.711 C 838.352 105.711 847.27 105.711 859.185 105.711 C 861.592 105.711 863.689 106.677 865.46 108.626 C 867.158 110.643 868 113.032 868 115.811 Z M 832.416 187.374 C 836.432 187.374 842.383 187.374 850.267 187.374 C 850.267 186.458 850.267 185.12 850.267 183.357 C 850.267 170.614 850.267 151.516 850.267 126.046 C 846.325 126.046 840.375 126.046 832.416 126.046 C 832.416 132.876 832.416 143.077 832.416 156.634 C 832.416 163.48 832.416 173.715 832.416 187.374 Z"/></g></g></g></g></svg>