<svg xmlns="http://www.w3.org/2000/svg" xmlns:xlink="http://www.w3.org/1999/xlink" id="Layer_1" x="0" y="0" enable-background="new 1141 622.58 1000 313.42" version="1.1" viewBox="1141 622.58 1000 313.42" xml:space="preserve"><rect width="1000" height="313.42" x="1141" y="622.58" fill="#176587"/><path fill="#FFF" d="M1759.89,683.15c-0.02,0.25-2.78,25.56-14.03,52.31c-13.78,32.77-33.18,51.47-57.67,55.57	c-0.04,0-3.92,0.35-13.61-8.87c-9.18-8.73-19.27-21.98-29.02-34.8c-21.24-27.92-41.3-54.29-66.97-58.71	c-30.61-5.27-85.14,18.34-126.26,39.55c-21.12-50.29-70.82-85.61-128.79-85.61c-57.7,0-107.22,35.01-128.5,84.93	c-40.96-21.03-94.67-44.1-124.96-38.87c-25.67,4.42-45.73,30.79-66.98,58.71c-9.75,12.82-19.84,26.08-29.02,34.8	c-9.7,9.22-13.59,8.86-13.61,8.87c-51.39-8.61-79.97-95.6-86.64-128.38l-39.53,7.97c0.29,1.44,7.3,35.67,24.34,71.92	c24.14,51.36,57.05,81.88,95.18,88.27c2.39,0.4,4.73,0.59,7.04,0.59c28.99,0,52.03-30.27,74.35-59.62	c12.62-16.59,31.69-41.66,41.72-43.38c12.06-2.08,51.42,9.26,107.76,39.08c-0.51,4.84-0.78,9.76-0.78,14.74	c0,77.11,62.51,139.63,139.63,139.63c77.11,0,139.63-62.51,139.63-139.63c0-4.7-0.24-9.35-0.69-13.93	c57.12-30.41,97.06-41.99,109.27-39.88c10.02,1.73,29.1,26.79,41.71,43.38c22.33,29.35,45.36,59.62,74.35,59.62	c2.31,0,4.66-0.19,7.04-0.59c90.66-15.19,104.61-138.22,105.16-143.45L1759.89,683.15z M1323.54,858.46	c-43.04,0-77.93-34.89-77.93-77.93s34.89-77.93,77.93-77.93s77.93,34.89,77.93,77.93S1366.58,858.46,1323.54,858.46z" opacity=".05"/></svg>